<svg width="20" height="20" viewBox="0 0 20 20" fill="none" xmlns="http://www.w3.org/2000/svg">
<path fill-rule="evenodd" clip-rule="evenodd" d="M10 2.29163C9.45188 2.29163 8.91262 2.46799 7.56718 2.92854L7.08984 3.09194C5.82934 3.52341 4.91008 3.83833 4.26466 4.10053C3.9425 4.23141 3.70908 4.34108 3.54524 4.43623C3.46435 4.48321 3.40861 4.52197 3.37139 4.55223C3.33983 4.57789 3.3278 4.59241 3.32608 4.59453C3.32447 4.59715 3.31411 4.61446 3.29952 4.6554C3.28287 4.70216 3.26441 4.7692 3.24643 4.86251C3.21003 5.05137 3.18245 5.3108 3.1634 5.66072C3.12523 6.36172 3.125 7.34024 3.125 8.6805V9.99276C3.125 14.3053 6.34991 16.4278 8.49899 17.3666C8.80856 17.5018 8.98732 17.5784 9.18633 17.6293C9.3764 17.678 9.60833 17.7083 10 17.7083C10.3917 17.7083 10.6236 17.678 10.8137 17.6293C11.0127 17.5784 11.1914 17.5018 11.501 17.3666C13.6501 16.4278 16.875 14.3053 16.875 9.99276V8.6805C16.875 7.34024 16.8748 6.36172 16.8366 5.66072C16.8175 5.3108 16.79 5.05137 16.7536 4.86251C16.7356 4.7692 16.7171 4.70216 16.7005 4.6554C16.6859 4.61443 16.6755 4.59712 16.6739 4.59453C16.6722 4.59239 16.6601 4.57787 16.6286 4.55223C16.5914 4.52197 16.5356 4.48321 16.4548 4.43623C16.2909 4.34108 16.0575 4.23141 15.7353 4.10053C15.0899 3.83833 14.1707 3.52341 12.9102 3.09194L12.4328 2.92854C11.0874 2.46799 10.5481 2.29163 10 2.29163ZM7.26949 1.70922C8.47277 1.29711 9.21873 1.04163 10 1.04163C10.7813 1.04163 11.5272 1.29711 12.7305 1.70922C12.7658 1.72132 12.8015 1.73355 12.8376 1.74591L13.3367 1.91674C14.5711 2.33929 15.5238 2.6654 16.2058 2.94245C16.5493 3.08201 16.8447 3.21718 17.0825 3.3553C17.3114 3.48821 17.541 3.65399 17.697 3.87624C17.8512 4.09593 17.9309 4.366 17.981 4.62598C18.0331 4.89626 18.0645 5.22049 18.0847 5.59276C18.125 6.33196 18.125 7.34463 18.125 8.65814V9.99276C18.125 15.077 14.285 17.5146 12.0014 18.5121L11.9788 18.522C11.6956 18.6457 11.4295 18.762 11.1237 18.8403C10.8008 18.9229 10.4577 18.9583 10 18.9583C9.54228 18.9583 9.19922 18.9229 8.87634 18.8403C8.57051 18.762 8.30436 18.6457 8.0212 18.522L7.99861 18.5121C5.71502 17.5146 1.875 15.077 1.875 9.99276V8.65821C1.875 7.34467 1.875 6.33197 1.91525 5.59276C1.93552 5.22049 1.96693 4.89626 2.01901 4.62598C2.06911 4.366 2.14884 4.09593 2.30303 3.87624C2.45902 3.65399 2.68862 3.48821 2.91748 3.3553C3.15531 3.21718 3.45065 3.08201 3.79419 2.94245C4.47617 2.66539 5.42885 2.33929 6.6633 1.91674L7.16236 1.74591C7.19847 1.73355 7.23418 1.72132 7.26949 1.70922ZM10 6.5837C9.90088 6.73078 9.77876 6.9476 9.59697 7.27373L9.48773 7.46968C9.47962 7.48423 9.47126 7.49943 9.46259 7.51518C9.37211 7.67959 9.2492 7.90295 9.04622 8.05704C8.8395 8.21396 8.5902 8.26884 8.41197 8.30807C8.39505 8.3118 8.37876 8.31538 8.36322 8.3189L8.1511 8.36689C7.76346 8.4546 7.52188 8.51074 7.35955 8.56749C7.45992 8.71829 7.6284 8.91748 7.9017 9.23706L8.04631 9.40616C8.05694 9.4186 8.06803 9.43144 8.07947 9.44468C8.2026 9.58721 8.36639 9.77682 8.4421 10.0203C8.51702 10.2612 8.49165 10.5104 8.47227 10.701C8.47046 10.7188 8.4687 10.736 8.46708 10.7528L8.44522 10.9784C8.40616 11.3814 8.3821 11.6421 8.38278 11.8266C8.54296 11.7698 8.76235 11.6701 9.09717 11.516L9.29577 11.4245C9.31038 11.4178 9.32568 11.4106 9.34163 11.4032C9.5065 11.326 9.74039 11.2166 10 11.2166C10.2596 11.2166 10.4935 11.326 10.6584 11.4032C10.6743 11.4106 10.6896 11.4178 10.7042 11.4245L10.9028 11.516C11.2377 11.6701 11.457 11.7698 11.6172 11.8266C11.6179 11.6421 11.5938 11.3814 11.5548 10.9784L11.5329 10.7528C11.5313 10.736 11.5295 10.7188 11.5277 10.701C11.5083 10.5105 11.483 10.2612 11.5579 10.0203C11.6336 9.77682 11.7974 9.58721 11.9205 9.44468C11.932 9.43144 11.9431 9.4186 11.9537 9.40616L12.0983 9.23706C12.3716 8.91748 12.5401 8.71829 12.6405 8.56749C12.4781 8.51074 12.2365 8.4546 11.8489 8.36689L11.6368 8.3189C11.6212 8.31538 11.605 8.3118 11.588 8.30807C11.4098 8.26884 11.1605 8.21396 10.9538 8.05704C10.7508 7.90295 10.6279 7.6796 10.5374 7.51518C10.5287 7.49944 10.5204 7.48423 10.5123 7.46968L10.403 7.27373C10.2212 6.9476 10.0991 6.73078 10 6.5837ZM11.7941 11.8751C11.795 11.8751 11.7955 11.8752 11.7956 11.8752ZM8.20444 11.8752C8.20445 11.8752 8.20495 11.8751 8.20589 11.8751ZM9.06929 5.73733C9.24901 5.50264 9.54246 5.20829 10 5.20829C10.4575 5.20829 10.751 5.50264 10.9307 5.73733C11.1038 5.96332 11.2809 6.28121 11.4736 6.62695C11.4807 6.63963 11.4877 6.65235 11.4949 6.6651L11.6041 6.86105C11.6348 6.91607 11.6585 6.9586 11.6795 6.99505C11.6937 7.01956 11.7048 7.03806 11.7137 7.05235C11.7278 7.05622 11.7455 7.06081 11.7682 7.06635C11.8074 7.07589 11.853 7.08621 11.9126 7.09972L12.1247 7.14771C12.1392 7.15098 12.1536 7.15424 12.168 7.1575C12.5405 7.2417 12.8881 7.32028 13.1505 7.42373C13.435 7.53581 13.7786 7.73782 13.911 8.16361C14.0413 8.58259 13.8809 8.9443 13.7188 9.20171C13.5666 9.44354 13.3316 9.71828 13.0763 10.0167C13.067 10.0276 13.0577 10.0385 13.0483 10.0495L12.9037 10.2186C12.8631 10.2661 12.8318 10.3027 12.8052 10.3348C12.7834 10.3611 12.7683 10.3801 12.7575 10.3945C12.7589 10.4409 12.7649 10.5062 12.7771 10.6322L12.8031 10.9002C12.8418 11.2996 12.8772 11.6641 12.8644 11.9512C12.8511 12.2495 12.7807 12.6487 12.4262 12.9178C12.0614 13.1947 11.6539 13.1407 11.3648 13.0579C11.0943 12.9804 10.7692 12.8307 10.4207 12.6701C10.4072 12.6639 10.3936 12.6577 10.38 12.6514L10.1814 12.56C10.1256 12.5342 10.0828 12.5146 10.0457 12.4982C10.0274 12.4901 10.0124 12.4837 10 12.4786C9.98758 12.4837 9.97258 12.4901 9.9543 12.4982C9.91716 12.5146 9.87441 12.5342 9.81856 12.56L9.61995 12.6514C9.60636 12.6577 9.5928 12.6639 9.57928 12.6701C9.23075 12.8307 8.9057 12.9804 8.63517 13.0579C8.34611 13.1407 7.93857 13.1947 7.57381 12.9178C7.21926 12.6487 7.14889 12.2495 7.1356 11.9512C7.12281 11.6641 7.15818 11.2996 7.19693 10.9003C7.1983 10.8862 7.19967 10.872 7.20105 10.8578L7.22291 10.6322C7.23512 10.5062 7.24107 10.4409 7.24248 10.3945C7.23169 10.3801 7.21662 10.3611 7.19482 10.3348C7.16822 10.3027 7.13692 10.2661 7.09631 10.2186L6.9517 10.0495C6.94234 10.0385 6.933 10.0276 6.92369 10.0167C6.66839 9.71827 6.43339 9.44354 6.28115 9.20171C6.11911 8.9443 5.95871 8.58259 6.089 8.16361C6.22141 7.73782 6.56505 7.53581 6.84946 7.42373C7.11194 7.32028 7.45955 7.2417 7.83197 7.1575C7.84636 7.15424 7.86079 7.15098 7.87525 7.14771L8.08737 7.09972C8.14705 7.08621 8.19261 7.07589 8.23178 7.06635C8.25452 7.06081 8.27225 7.05622 8.28627 7.05235C8.2952 7.03807 8.3063 7.01956 8.32046 6.99505C8.34152 6.9586 8.36524 6.91607 8.39591 6.86106L8.50514 6.6651C8.51225 6.65235 8.51934 6.63963 8.52641 6.62695C8.71907 6.28122 8.89622 5.96332 9.06929 5.73733Z" fill="#2B7FFF"/>
</svg>
