<svg width="26" height="26" viewBox="0 0 26 26" fill="none" xmlns="http://www.w3.org/2000/svg">
<path d="M9.74996 18.6873C9.30123 18.6873 8.93746 19.0511 8.93746 19.4998C8.93746 19.9486 9.30123 20.3123 9.74996 20.3123H16.25C16.6987 20.3123 17.0625 19.9486 17.0625 19.4998C17.0625 19.0511 16.6987 18.6873 16.25 18.6873H9.74996Z" fill="black" fill-opacity="0.3"/>
<path fill-rule="evenodd" clip-rule="evenodd" d="M13 1.354C12.2328 1.354 11.5359 1.57373 10.7797 1.94143C10.0488 2.29688 9.20442 2.82093 8.14972 3.47552L5.91093 4.86498C4.91297 5.48433 4.11386 5.98027 3.49793 6.45196C2.86012 6.94042 2.37024 7.43789 2.01638 8.08435C1.66326 8.72947 1.50424 9.41589 1.428 10.2273C1.35411 11.0136 1.35412 11.9751 1.35413 13.181V14.928C1.35411 16.9906 1.3541 18.6186 1.51955 19.8916C1.68928 21.1974 2.0459 22.2516 2.85168 23.0851C3.66117 23.9224 4.69129 24.2965 5.96653 24.4738C7.20249 24.6457 8.78099 24.6457 10.7703 24.6457H15.2296C17.2189 24.6457 18.7974 24.6457 20.0334 24.4738C21.3086 24.2965 22.3387 23.9224 23.1482 23.0851C23.954 22.2516 24.3106 21.1974 24.4804 19.8916C24.6458 18.6186 24.6458 16.9906 24.6458 14.928V13.181C24.6458 11.9752 24.6458 11.0136 24.5719 10.2273C24.4957 9.41589 24.3367 8.72947 23.9835 8.08435C23.6297 7.43789 23.1398 6.94042 22.502 6.45196C21.8861 5.98028 21.087 5.48434 20.089 4.86499L17.8502 3.47551C16.7955 2.82093 15.9511 2.29688 15.2202 1.94143C14.4641 1.57373 13.7671 1.354 13 1.354ZM8.96945 4.8793C10.0699 4.19635 10.8436 3.71733 11.4904 3.4028C12.1205 3.09636 12.5668 2.979 13 2.979C13.4331 2.979 13.8794 3.09636 14.5095 3.4028C15.1563 3.71733 15.9301 4.19635 17.0305 4.8793L19.1971 6.22399C20.238 6.87001 20.9689 7.32463 21.514 7.7421C22.0444 8.14829 22.3495 8.48348 22.5581 8.86459C22.7675 9.24706 22.8897 9.69421 22.9541 10.3793C23.02 11.0808 23.0208 11.9661 23.0208 13.2208V14.8685C23.0208 17.0037 23.0192 18.5261 22.8689 19.6821C22.7213 20.8175 22.4434 21.4762 21.9799 21.9556C21.5202 22.4311 20.8944 22.7135 19.8096 22.8643C18.6985 23.0188 17.2331 23.0207 15.1666 23.0207H10.8333C8.7668 23.0207 7.30144 23.0188 6.19037 22.8643C5.10556 22.7135 4.47969 22.4311 4.01998 21.9556C3.55656 21.4762 3.27858 20.8175 3.131 19.6821C2.98074 18.5261 2.97913 17.0037 2.97913 14.8685V13.2208C2.97913 11.9661 2.97995 11.0808 3.04587 10.3793C3.11025 9.69421 3.23246 9.24706 3.44181 8.86459C3.65042 8.48348 3.95556 8.14829 4.48596 7.7421C5.03107 7.32463 5.76188 6.87001 6.80278 6.22399L8.96945 4.8793Z" fill="black" fill-opacity="0.3"/>
</svg>
