<svg width="26" height="26" viewBox="0 0 26 26" fill="none" xmlns="http://www.w3.org/2000/svg">
<path fill-rule="evenodd" clip-rule="evenodd" d="M12.9999 1.35416C10.158 1.35416 7.85411 3.65802 7.85411 6.49999C7.85411 9.34195 10.158 11.6458 12.9999 11.6458C15.8419 11.6458 18.1458 9.34195 18.1458 6.49999C18.1458 3.65802 15.8419 1.35416 12.9999 1.35416ZM9.47911 6.49999C9.47911 4.55549 11.0554 2.97916 12.9999 2.97916C14.9444 2.97916 16.5208 4.55549 16.5208 6.49999C16.5208 8.44449 14.9444 10.0208 12.9999 10.0208C11.0554 10.0208 9.47911 8.44449 9.47911 6.49999Z" fill="black" fill-opacity="0.3"/>
<path fill-rule="evenodd" clip-rule="evenodd" d="M12.9999 13.2708C10.4936 13.2708 8.18444 13.8405 6.47335 14.803C4.78772 15.7512 3.52078 17.1882 3.52078 18.9583L3.5207 19.0688C3.51948 20.3274 3.51794 21.9071 4.90355 23.0355C5.58548 23.5908 6.53946 23.9857 7.82834 24.2466C9.12081 24.5082 10.8054 24.6458 12.9999 24.6458C15.1945 24.6458 16.8791 24.5082 18.1715 24.2466C19.4604 23.9857 20.4144 23.5908 21.0963 23.0355C22.4819 21.9071 22.4804 20.3274 22.4792 19.0688L22.4791 18.9583C22.4791 17.1882 21.2122 15.7512 19.5265 14.803C17.8154 13.8405 15.5063 13.2708 12.9999 13.2708ZM5.14578 18.9583C5.14578 18.036 5.81893 17.0356 7.27002 16.2193C8.69564 15.4174 10.7198 14.8958 12.9999 14.8958C15.2801 14.8958 17.3042 15.4174 18.7299 16.2193C20.1809 17.0356 20.8541 18.036 20.8541 18.9583C20.8541 20.3751 20.8104 21.1727 20.0702 21.7754C19.6688 22.1023 18.9978 22.4214 17.8492 22.6539C16.7041 22.8856 15.1387 23.0208 12.9999 23.0208C10.8612 23.0208 9.29574 22.8856 8.15072 22.6539C7.00209 22.4214 6.33107 22.1023 5.92966 21.7754C5.18945 21.1727 5.14578 20.3751 5.14578 18.9583Z" fill="black" fill-opacity="0.3"/>
</svg>
