<svg width="32" height="32" viewBox="0 0 32 32" fill="none" xmlns="http://www.w3.org/2000/svg">
<path d="M0 15.998C0 7.16254 7.16254 0 15.998 0C24.8334 0 31.996 7.16254 31.996 15.998C31.996 24.8334 24.8334 31.996 15.998 31.996C7.16254 31.996 0 24.8334 0 15.998Z" fill="#00D40E" fill-opacity="0.1"/>
<g clip-path="url(#clip0_76_2805)">
<path d="M17.1606 14.6649C17.1606 14.941 17.3845 15.1649 17.6606 15.1649H18.1202L16.7785 16.5066C16.7134 16.5717 16.6078 16.5717 16.5428 16.5066L15.4856 15.4494C15.03 14.9938 14.2913 14.9938 13.8356 15.4494L12.3071 16.978C12.1118 17.1733 12.1118 17.4898 12.3071 17.6851C12.5023 17.8804 12.8189 17.8804 13.0142 17.6851L14.5428 16.1565C14.6078 16.0914 14.7134 16.0914 14.7785 16.1565L15.8356 17.2137C16.2913 17.6693 17.0299 17.6693 17.4856 17.2137L18.8273 15.872V16.3315C18.8273 16.6077 19.0511 16.8315 19.3273 16.8315C19.6034 16.8315 19.8273 16.6077 19.8273 16.3315V14.6649C19.8273 14.3887 19.6034 14.1649 19.3273 14.1649H17.6606C17.3845 14.1649 17.1606 14.3887 17.1606 14.6649Z" fill="#00D40E"/>
<path fill-rule="evenodd" clip-rule="evenodd" d="M15.9557 8.83154C14.4168 8.83153 13.2107 8.83153 12.2697 8.95804C11.3066 9.08753 10.5466 9.35776 9.95003 9.9543C9.35349 10.5508 9.08326 11.3109 8.95377 12.274C8.82726 13.215 8.82726 14.421 8.82727 15.96V16.0365C8.82726 17.5754 8.82726 18.7814 8.95377 19.7224C9.08326 20.6856 9.35349 21.4456 9.95003 22.0421C10.5466 22.6387 11.3066 22.9089 12.2697 23.0384C13.2107 23.1649 14.4168 23.1649 15.9557 23.1649H16.0322C17.5711 23.1649 18.7771 23.1649 19.7181 23.0384C20.6813 22.9089 21.4413 22.6387 22.0378 22.0421C22.6344 21.4456 22.9046 20.6856 23.0341 19.7224C23.1606 18.7814 23.1606 17.5754 23.1606 16.0365V15.96C23.1606 14.421 23.1606 13.215 23.0341 12.274C22.9046 11.3109 22.6344 10.5508 22.0378 9.9543C21.4413 9.35776 20.6813 9.08753 19.7181 8.95804C18.7771 8.83153 17.5711 8.83153 16.0322 8.83154H15.9557ZM10.6571 10.6614C11.0369 10.2816 11.5507 10.0637 12.403 9.94912C13.2696 9.83261 14.4085 9.83154 15.9939 9.83154C17.5794 9.83154 18.7182 9.83261 19.5849 9.94912C20.4372 10.0637 20.951 10.2816 21.3307 10.6614C21.7105 11.0412 21.9284 11.555 22.043 12.4073C22.1595 13.2739 22.1606 14.4127 22.1606 15.9982C22.1606 17.5837 22.1595 18.7225 22.043 19.5892C21.9284 20.4414 21.7105 20.9552 21.3307 21.335C20.951 21.7148 20.4372 21.9327 19.5849 22.0473C18.7182 22.1638 17.5794 22.1649 15.9939 22.1649C14.4085 22.1649 13.2696 22.1638 12.403 22.0473C11.5507 21.9327 11.0369 21.7148 10.6571 21.335C10.2774 20.9552 10.0594 20.4414 9.94485 19.5892C9.82833 18.7225 9.82727 17.5837 9.82727 15.9982C9.82727 14.4127 9.82833 13.2739 9.94485 12.4073C10.0594 11.555 10.2774 11.0412 10.6571 10.6614Z" fill="#00D40E"/>
</g>
<defs>
<clipPath id="clip0_76_2805">
<rect width="16" height="16" fill="white" transform="translate(7.9939 7.99805)"/>
</clipPath>
</defs>
</svg>
