<svg width="80" height="80" viewBox="0 0 80 80" fill="none" xmlns="http://www.w3.org/2000/svg">
<rect width="80" height="80" rx="22" fill="#8B5CF6"/>
<path fill-rule="evenodd" clip-rule="evenodd" d="M30.599 25.0641C32.425 23.2485 35.4315 23.5717 36.9605 25.6141L38.852 28.1407C40.0961 29.8025 39.9863 32.1251 38.5095 33.5935L38.1514 33.9496C38.1357 33.995 38.0978 34.1379 38.1399 34.4093C38.2347 35.0205 38.7451 36.3171 40.8879 38.4478C43.0299 40.5776 44.3358 41.0875 44.9556 41.1826C45.2366 41.2257 45.3835 41.1855 45.429 41.1697L46.041 40.5611C47.3538 39.2558 49.3711 39.0118 50.9966 39.8954L53.8623 41.4532C56.3162 42.7872 56.9362 46.1228 54.9258 48.1219L52.7949 50.2406C52.1236 50.9081 51.2207 51.4648 50.1189 51.5675C47.4053 51.8205 41.078 51.4977 34.4298 44.8873C28.223 38.7156 27.0319 33.3336 26.8812 30.6819L28.0043 30.6181L26.8812 30.6819C26.805 29.341 27.4386 28.2066 28.2446 27.4052L30.599 25.0641ZM35.1593 26.9625C34.3994 25.9474 32.9829 25.8667 32.1854 26.6597L29.831 29.0007C29.3361 29.4928 29.098 30.0351 29.1275 30.5542C29.2473 32.6611 30.2092 37.5177 36.0163 43.2917C42.1085 49.3493 47.7352 49.53 49.91 49.3272C50.3544 49.2858 50.7962 49.055 51.2085 48.6451L53.3393 46.5263C54.2055 45.6651 54.0144 44.0969 52.7877 43.43L49.9219 41.8722C49.1306 41.442 48.2035 41.5839 47.6275 42.1567L46.9443 42.8359L46.1511 42.0382C46.9443 42.8359 46.9432 42.837 46.9422 42.8381L46.94 42.8403L46.9354 42.8447L46.9257 42.8541L46.9037 42.8746C46.8879 42.8889 46.8699 42.9047 46.8495 42.9216C46.8088 42.9553 46.7587 42.9935 46.6988 43.0336C46.5787 43.1141 46.4201 43.2016 46.2208 43.2758C45.8145 43.4272 45.2788 43.5085 44.6145 43.4066C43.3143 43.2072 41.592 42.3208 39.3015 40.0433C37.0117 37.7665 36.1179 36.0521 35.9165 34.7542C35.8135 34.0905 35.8957 33.5546 36.0488 33.148C36.1239 32.9487 36.2124 32.7903 36.2936 32.6705C36.3341 32.6107 36.3726 32.5607 36.4066 32.5202C36.4236 32.4999 36.4395 32.4819 36.454 32.4662L36.4746 32.4443L36.484 32.4346L36.4885 32.4301L36.4907 32.4279C36.4918 32.4268 36.4928 32.4258 37.2861 33.2235L36.4928 32.4258L36.9231 31.998C37.566 31.3587 37.656 30.2975 37.0508 29.4891L35.1593 26.9625Z" fill="white"/>
</svg>
