<svg width="64" height="64" viewBox="0 0 64 64" fill="none" xmlns="http://www.w3.org/2000/svg">
<rect width="64" height="64" rx="32" fill="white"/>
<path fill-rule="evenodd" clip-rule="evenodd" d="M26.4978 22.6083C26.8313 20.971 28.2884 19.8125 29.9577 19.8125H34.0418C35.7112 19.8125 37.1682 20.971 37.5017 22.6083C37.5787 22.9863 37.9212 23.2636 38.2773 23.2636H38.2977L38.3182 23.2645C40.0725 23.3412 41.42 23.5565 42.5449 24.2945C43.2537 24.7595 43.8634 25.3577 44.3385 26.0558C44.9296 26.9243 45.1903 27.9212 45.3152 29.1268C45.4373 30.3047 45.4373 31.7812 45.4373 33.6513V33.7578C45.4373 35.6278 45.4373 37.1044 45.3152 38.2823C45.1903 39.4879 44.9296 40.4848 44.3385 41.3533C43.8634 42.0514 43.2537 42.6496 42.545 43.1146C41.6656 43.6915 40.6575 43.9458 39.4348 44.068C38.2377 44.1875 36.736 44.1875 34.8291 44.1875H29.1705C27.2635 44.1875 25.7618 44.1875 24.5647 44.068C23.342 43.9458 22.3339 43.6915 21.4546 43.1146C20.7458 42.6496 20.1361 42.0514 19.661 41.3533C19.0699 40.4848 18.8092 39.4879 18.6843 38.2823C18.5622 37.1044 18.5622 35.6278 18.5623 33.7578V33.6513C18.5622 31.7813 18.5622 30.3047 18.6843 29.1268C18.8092 27.9212 19.0699 26.9243 19.661 26.0558C20.1361 25.3577 20.7458 24.7595 21.4546 24.2945C22.5795 23.5565 23.927 23.3412 25.6813 23.2645L25.7018 23.2636H25.7223C26.0784 23.2636 26.4208 22.9863 26.4978 22.6083ZM29.9577 21.6875C29.1563 21.6875 28.4861 22.2412 28.3351 22.9826C28.0905 24.1832 27.026 25.1273 25.7452 25.1385C24.0594 25.2134 23.1565 25.4204 22.4831 25.8622C21.9786 26.1931 21.5466 26.6176 21.2111 27.1107C20.8659 27.6179 20.6585 28.2666 20.5493 29.32C20.4384 30.3901 20.4373 31.7695 20.4373 33.7045C20.4373 35.6396 20.4384 37.019 20.5493 38.089C20.6585 39.1425 20.8659 39.7912 21.2111 40.2984C21.5466 40.7915 21.9786 41.2159 22.4831 41.5469C23.005 41.8893 23.6728 42.0945 24.7511 42.2022C25.8441 42.3114 27.2522 42.3125 29.222 42.3125H34.7775C36.7473 42.3125 38.1554 42.3114 39.2485 42.2022C40.3267 42.0945 40.9945 41.8893 41.5165 41.5469C42.0209 41.2159 42.4529 40.7915 42.7884 40.2984C43.1336 39.7912 43.3411 39.1425 43.4502 38.089C43.5611 37.019 43.5623 35.6396 43.5623 33.7045C43.5623 31.7695 43.5611 30.3901 43.4502 29.32C43.3411 28.2666 43.1336 27.6179 42.7884 27.1107C42.4529 26.6176 42.0209 26.1931 41.5165 25.8622C40.8431 25.4204 39.9401 25.2134 38.2543 25.1385C36.9735 25.1273 35.909 24.1832 35.6645 22.9826C35.5134 22.2412 34.8432 21.6875 34.0418 21.6875H29.9577ZM31.9998 30.4375C30.4465 30.4375 29.1873 31.6967 29.1873 33.25C29.1873 34.8033 30.4465 36.0625 31.9998 36.0625C33.5531 36.0625 34.8123 34.8033 34.8123 33.25C34.8123 31.6967 33.5531 30.4375 31.9998 30.4375ZM27.3123 33.25C27.3123 30.6612 29.4109 28.5625 31.9998 28.5625C34.5886 28.5625 36.6873 30.6612 36.6873 33.25C36.6873 35.8388 34.5886 37.9375 31.9998 37.9375C29.4109 37.9375 27.3123 35.8388 27.3123 33.25ZM38.5623 29.5C38.5623 28.9822 38.982 28.5625 39.4998 28.5625H40.7498C41.2675 28.5625 41.6873 28.9822 41.6873 29.5C41.6873 30.0178 41.2675 30.4375 40.7498 30.4375H39.4998C38.982 30.4375 38.5623 30.0178 38.5623 29.5Z" fill="#8B5CF6"/>
</svg>
