<svg width="48" height="48" viewBox="0 0 48 48" fill="none" xmlns="http://www.w3.org/2000/svg">
<path d="M0 23.999C0 10.7447 10.7447 0 23.999 0C37.2533 0 47.9981 10.7447 47.9981 23.999C47.9981 37.2533 37.2533 47.9981 23.999 47.9981C10.7447 47.9981 0 37.2533 0 23.999Z" fill="#2B7FFF" fill-opacity="0.1"/>
<path fill-rule="evenodd" clip-rule="evenodd" d="M23.999 13.2486C21.3756 13.2486 19.2488 15.3753 19.2488 17.9988C19.2488 20.6223 21.3756 22.749 23.999 22.749C26.6225 22.749 28.7492 20.6223 28.7492 17.9988C28.7492 15.3753 26.6225 13.2486 23.999 13.2486ZM20.7489 17.9988C20.7489 16.2038 22.204 14.7487 23.999 14.7487C25.794 14.7487 27.2491 16.2038 27.2491 17.9988C27.2491 19.7938 25.794 21.2489 23.999 21.2489C22.204 21.2489 20.7489 19.7938 20.7489 17.9988Z" fill="#2B7FFF"/>
<path fill-rule="evenodd" clip-rule="evenodd" d="M23.999 24.249C21.6854 24.249 19.5538 24.7749 17.9742 25.6634C16.4182 26.5387 15.2487 27.8653 15.2487 29.4993L15.2486 29.6012C15.2475 30.7631 15.2461 32.2213 16.5251 33.2629C17.1546 33.7756 18.0353 34.1401 19.225 34.3809C20.4181 34.6224 21.9732 34.7495 23.999 34.7495C26.0249 34.7495 27.5799 34.6224 28.773 34.3809C29.9628 34.1401 30.8434 33.7756 31.4729 33.2629C32.752 32.2213 32.7506 30.7631 32.7494 29.6012L32.7494 29.4993C32.7494 27.8653 31.5798 26.5387 30.0238 25.6634C28.4443 24.7749 26.3127 24.249 23.999 24.249ZM16.7487 29.4993C16.7487 28.6479 17.3701 27.7243 18.7096 26.9709C20.0257 26.2306 21.8942 25.7491 23.999 25.7491C26.1038 25.7491 27.9724 26.2306 29.2884 26.9709C30.6279 27.7243 31.2493 28.6479 31.2493 29.4993C31.2493 30.8071 31.209 31.5433 30.5257 32.0998C30.1551 32.4015 29.5357 32.696 28.4754 32.9107C27.4184 33.1246 25.9733 33.2494 23.999 33.2494C22.0247 33.2494 20.5796 33.1246 19.5226 32.9107C18.4623 32.696 17.8429 32.4015 17.4723 32.0998C16.789 31.5433 16.7487 30.8071 16.7487 29.4993Z" fill="#2B7FFF"/>
</svg>
