<svg width="40" height="40" viewBox="0 0 40 40" fill="none" xmlns="http://www.w3.org/2000/svg">
<path d="M0 19.9964C0 8.95271 8.95271 0 19.9964 0C31.0402 0 39.9929 8.95271 39.9929 19.9964C39.9929 31.0402 31.0402 39.9929 19.9964 39.9929C8.95271 39.9929 0 31.0402 0 19.9964Z" fill="white"/>
<g clip-path="url(#clip0_13_1198)">
<path d="M26.6579 18.33C26.6579 22.4901 22.0429 26.8227 20.4931 28.1608C20.3488 28.2693 20.173 28.328 19.9924 28.328C19.8118 28.328 19.636 28.2693 19.4916 28.1608C17.9419 26.8227 13.3269 22.4901 13.3269 18.33C13.3269 16.5622 14.0292 14.8668 15.2792 13.6168C16.5292 12.3668 18.2246 11.6646 19.9924 11.6646C21.7602 11.6646 23.4556 12.3668 24.7056 13.6168C25.9556 14.8668 26.6579 16.5622 26.6579 18.33Z" stroke="#8B5CF6" stroke-width="1.66637" stroke-linecap="round" stroke-linejoin="round"/>
<path d="M19.9924 20.8297C21.3728 20.8297 22.4919 19.7106 22.4919 18.3301C22.4919 16.9497 21.3728 15.8306 19.9924 15.8306C18.6119 15.8306 17.4928 16.9497 17.4928 18.3301C17.4928 19.7106 18.6119 20.8297 19.9924 20.8297Z" stroke="#8B5CF6" stroke-width="1.66637" stroke-linecap="round" stroke-linejoin="round"/>
</g>
<defs>
<clipPath id="clip0_13_1198">
<rect width="19.9964" height="19.9964" fill="white" transform="translate(9.99414 9.99805)"/>
</clipPath>
</defs>
</svg>
