<svg width="16" height="16" viewBox="0 0 16 16" fill="none" xmlns="http://www.w3.org/2000/svg">
<path fill-rule="evenodd" clip-rule="evenodd" d="M13.6851 6.91559C13.438 6.48761 12.9851 6.34692 12.5528 6.28647C12.117 6.22554 11.5338 6.22556 10.8283 6.22558L10.7882 6.22558C10.3681 6.22558 10.0934 6.22144 9.89334 6.19362C9.71238 6.16846 9.65484 6.13122 9.6303 6.1095C9.6123 6.09076 9.58028 6.04694 9.55846 5.88896C9.53274 5.70269 9.53162 5.44726 9.53162 5.03788V4.78822C9.53163 3.72988 9.53165 2.88205 9.45019 2.27759C9.37374 1.71022 9.192 1.07299 8.56254 0.880088C7.94414 0.69058 7.42547 1.09695 7.0223 1.51589C6.59281 1.96219 6.08262 2.65249 5.44384 3.51678L3.35251 6.34632C2.94562 6.89679 2.60642 7.35568 2.40432 7.73514C2.20173 8.11553 2.05429 8.56715 2.27901 9.01771L2.27979 9.01937L2.28216 9.02419L2.28485 9.02952L2.2875 9.03463L2.2904 9.04008L2.29335 9.04551L2.29614 9.05053L2.29909 9.0557L2.30179 9.06032L2.30279 9.06196C2.54779 9.48627 2.9987 9.63481 3.43493 9.70142C3.88448 9.77005 4.48434 9.77445 5.21183 9.77445C5.63624 9.77445 5.90685 9.77541 6.1056 9.80074C6.28117 9.82313 6.33367 9.85764 6.35618 9.87755C6.37612 9.89836 6.41108 9.947 6.43573 10.1107C6.46395 10.2981 6.46837 10.5574 6.46837 10.9622L6.46836 11.2117C6.46833 12.2701 6.46831 13.1179 6.54975 13.7224C6.6262 14.2898 6.80793 14.927 7.43739 15.1199C8.05579 15.3094 8.57447 14.9031 8.97764 14.4841C9.40714 14.0378 9.91734 13.3475 10.5561 12.4832L12.6224 9.68765C13.0429 9.1187 13.3888 8.64336 13.5927 8.24774C13.7923 7.86057 13.9316 7.40631 13.7089 6.95988L13.7082 6.95827L13.7058 6.95342L13.7031 6.94807L13.7004 6.94294L13.6975 6.93747L13.6946 6.93202L13.6918 6.92698L13.6888 6.92179L13.6861 6.91715L13.6851 6.91559ZM7.74285 2.2093C7.36421 2.60276 6.89236 3.23937 6.2232 4.14474L4.18177 6.90677C3.74331 7.5 3.44995 7.89916 3.28694 8.20523C3.2076 8.3542 3.17782 8.44819 3.16934 8.50507C3.1641 8.54021 3.1673 8.55607 3.17148 8.56623C3.1876 8.59 3.25762 8.66275 3.58586 8.71287C3.94446 8.76762 4.46008 8.77445 5.21183 8.77445L5.24248 8.77445C5.62724 8.77442 5.96248 8.7744 6.23207 8.80877C6.52085 8.84559 6.80771 8.92932 7.04523 9.15271L7.04911 9.15636L7.05292 9.1601C7.28626 9.38914 7.38111 9.67313 7.42458 9.9618C7.46613 10.2377 7.46837 10.5771 7.46837 10.9622L7.46836 11.1686C7.46835 12.2798 7.46947 13.0595 7.5408 13.5889C7.57631 13.8525 7.62409 14.0071 7.66984 14.0934C7.70412 14.1581 7.72386 14.1624 7.7294 14.1636L7.73039 14.1638L7.7314 14.1641C7.73838 14.1666 7.76296 14.175 7.83874 14.1369C7.93341 14.0893 8.06864 13.9865 8.2571 13.7907C8.63575 13.3972 9.1076 12.7606 9.77677 11.8553L11.8182 9.09327C12.2542 8.50341 12.5446 8.09841 12.7039 7.7895C12.8404 7.52474 12.8255 7.43508 12.8165 7.41128C12.8015 7.3894 12.7342 7.32157 12.4143 7.27684C12.0562 7.22677 11.5439 7.22558 10.7882 7.22558C10.3862 7.22558 10.0377 7.2233 9.75563 7.18409C9.46441 7.1436 9.17687 7.05594 8.94142 6.8345L8.93754 6.83085L8.93373 6.82711C8.69826 6.59598 8.60744 6.31235 8.56786 6.02577C8.53156 5.76288 8.53159 5.43734 8.53162 5.07011L8.53162 4.83141C8.53162 3.72015 8.53049 2.94052 8.45915 2.41114C8.42363 2.14754 8.37585 1.99292 8.3301 1.90658C8.29582 1.84187 8.27608 1.83763 8.27054 1.83644L8.26954 1.8362L8.26854 1.83586C8.26156 1.83345 8.23698 1.82497 8.1612 1.86311C8.06653 1.91074 7.9313 2.01347 7.74285 2.2093Z" fill="white"/>
</svg>
