<svg width="42" height="42" viewBox="0 0 42 42" fill="none" xmlns="http://www.w3.org/2000/svg">
<rect width="42" height="42" rx="21" fill="#8B5CF6" fill-opacity="0.1"/>
<path fill-rule="evenodd" clip-rule="evenodd" d="M21 10.25C21.2189 10.25 21.427 10.3457 21.5694 10.5119L24.5694 14.0119C24.839 14.3264 24.8026 14.7999 24.4881 15.0694C24.1736 15.339 23.7001 15.3026 23.4306 14.9881L21.75 13.0274L21.75 24C21.75 24.4142 21.4142 24.75 21 24.75C20.5858 24.75 20.25 24.4142 20.25 24L20.25 13.0274L18.5694 14.9881C18.2999 15.3026 17.8264 15.339 17.5119 15.0694C17.1974 14.7999 17.161 14.3264 17.4306 14.0119L20.4306 10.5119C20.573 10.3457 20.7811 10.25 21 10.25ZM15.9958 17.252C16.41 17.2497 16.7477 17.5836 16.75 17.9978C16.7523 18.412 16.4184 18.7496 16.0042 18.7519C14.9107 18.758 14.1356 18.7864 13.5473 18.8945C12.9805 18.9986 12.6525 19.1658 12.409 19.4092C12.1322 19.686 11.9518 20.0746 11.8531 20.8083C11.7516 21.5637 11.75 22.5648 11.75 24.0002V25.0002C11.75 26.4356 11.7516 27.4367 11.8531 28.1921C11.9518 28.9259 12.1322 29.3144 12.409 29.5912C12.6858 29.868 13.0743 30.0484 13.8081 30.1471C14.5635 30.2486 15.5646 30.2502 17 30.2502H25C26.4354 30.2502 27.4365 30.2486 28.1919 30.1471C28.9257 30.0484 29.3142 29.868 29.591 29.5912C29.8678 29.3144 30.0482 28.9259 30.1469 28.1921C30.2484 27.4367 30.25 26.4356 30.25 25.0002V24.0002C30.25 22.5648 30.2484 21.5637 30.1469 20.8083C30.0482 20.0746 29.8678 19.686 29.591 19.4092C29.3475 19.1658 29.0195 18.9986 28.4527 18.8945C27.8644 18.7864 27.0893 18.758 25.9958 18.7519C25.5816 18.7496 25.2477 18.412 25.25 17.9978C25.2523 17.5836 25.59 17.2497 26.0042 17.252C27.0857 17.258 27.9871 17.2839 28.7236 17.4192C29.4816 17.5584 30.1267 17.8236 30.6517 18.3486C31.2536 18.9505 31.5125 19.7084 31.6335 20.6085C31.75 21.4754 31.75 22.5778 31.75 23.9453V25.0551C31.75 26.4227 31.75 27.525 31.6335 28.392C31.5125 29.2921 31.2536 30.0499 30.6517 30.6519C30.0497 31.2538 29.2919 31.5127 28.3918 31.6337C27.5248 31.7503 26.4225 31.7502 25.0549 31.7502H16.9451C15.5775 31.7502 14.4752 31.7503 13.6083 31.6337C12.7081 31.5127 11.9503 31.2538 11.3484 30.6519C10.7464 30.0499 10.4875 29.2921 10.3665 28.392C10.25 27.525 10.25 26.4227 10.25 25.0551V23.9453C10.25 22.5777 10.25 21.4754 10.3665 20.6085C10.4875 19.7084 10.7464 18.9505 11.3484 18.3486C11.8733 17.8236 12.5184 17.5584 13.2764 17.4192C14.0129 17.2839 14.9143 17.258 15.9958 17.252Z" fill="#8B5CF6"/>
</svg>
