<svg width="28" height="28" viewBox="0 0 28 28" fill="none" xmlns="http://www.w3.org/2000/svg">
<rect width="28" height="28" rx="14" fill="#00D40E" fill-opacity="0.1"/>
<g clip-path="url(#clip0_2_66460)">
<path fill-rule="evenodd" clip-rule="evenodd" d="M12.629 8.16666H15.3709C16.5961 8.16665 17.5665 8.16664 18.326 8.26875C19.1076 8.37383 19.7402 8.59524 20.2391 9.09415C20.7381 9.59306 20.9595 10.2257 21.0646 11.0073C21.1249 11.4559 21.1495 11.9781 21.1597 12.5828C21.1642 12.6101 21.1666 12.6381 21.1666 12.6667C21.1666 12.6902 21.165 12.7133 21.1619 12.7359C21.1667 13.1131 21.1666 13.5212 21.1666 13.9624V14.0376C21.1667 15.2628 21.1667 16.2332 21.0646 16.9927C20.9595 17.7743 20.7381 18.4069 20.2391 18.9058C19.7402 19.4047 19.1076 19.6261 18.326 19.7312C17.5665 19.8333 16.5961 19.8333 15.3709 19.8333H12.629C11.4039 19.8333 10.4334 19.8333 9.67396 19.7312C8.89235 19.6261 8.25972 19.4047 7.76081 18.9058C7.2619 18.4069 7.04049 17.7743 6.9354 16.9927C6.83329 16.2332 6.8333 15.2628 6.83331 14.0376V13.9624C6.83331 13.5212 6.83331 13.1131 6.83807 12.7359C6.83493 12.7133 6.83331 12.6902 6.83331 12.6667C6.83331 12.6381 6.83571 12.6101 6.84031 12.5829C6.85041 11.9781 6.87509 11.4559 6.9354 11.0073C7.04049 10.2257 7.2619 9.59306 7.76081 9.09415C8.25972 8.59524 8.89235 8.37383 9.67396 8.26875C10.4334 8.16664 11.4039 8.16665 12.629 8.16666ZM7.83464 13.1667C7.83337 13.4256 7.83331 13.7027 7.83331 14C7.83331 15.2712 7.83438 16.1743 7.92649 16.8594C8.01666 17.5302 8.18578 17.9166 8.46792 18.1987C8.75005 18.4809 9.13649 18.65 9.80721 18.7402C10.4923 18.8323 11.3954 18.8333 12.6666 18.8333H15.3333C16.6045 18.8333 17.5076 18.8323 18.1927 18.7402C18.8635 18.65 19.2499 18.4809 19.532 18.1987C19.8142 17.9166 19.9833 17.5302 20.0735 16.8594C20.1656 16.1743 20.1666 15.2712 20.1666 14C20.1666 13.7027 20.1666 13.4256 20.1653 13.1667H7.83464ZM20.1493 12.1667H7.8507C7.86374 11.7755 7.88656 11.4375 7.92649 11.1406C8.01666 10.4698 8.18578 10.0834 8.46792 9.80126C8.75005 9.51912 9.13649 9.35001 9.80721 9.25983C10.4923 9.16772 11.3954 9.16666 12.6666 9.16666H15.3333C16.6045 9.16666 17.5076 9.16772 18.1927 9.25983C18.8635 9.35001 19.2499 9.51912 19.532 9.80126C19.8142 10.0834 19.9833 10.4698 20.0735 11.1406C20.1134 11.4375 20.1362 11.7755 20.1493 12.1667ZM9.49998 16.6667C9.49998 16.3905 9.72384 16.1667 9.99998 16.1667H12.6666C12.9428 16.1667 13.1666 16.3905 13.1666 16.6667C13.1666 16.9428 12.9428 17.1667 12.6666 17.1667H9.99998C9.72384 17.1667 9.49998 16.9428 9.49998 16.6667ZM13.8333 16.6667C13.8333 16.3905 14.0572 16.1667 14.3333 16.1667H15.3333C15.6095 16.1667 15.8333 16.3905 15.8333 16.6667C15.8333 16.9428 15.6095 17.1667 15.3333 17.1667H14.3333C14.0572 17.1667 13.8333 16.9428 13.8333 16.6667Z" fill="#00D40E"/>
</g>
<defs>
<clipPath id="clip0_2_66460">
<rect width="16" height="16" fill="white" transform="translate(6 6)"/>
</clipPath>
</defs>
</svg>
