<svg width="26" height="26" viewBox="0 0 26 26" fill="none" xmlns="http://www.w3.org/2000/svg">
<path fill-rule="evenodd" clip-rule="evenodd" d="M12.9999 1.35449C10.158 1.35449 7.85411 3.65836 7.85411 6.50033C7.85411 9.34229 10.158 11.6462 12.9999 11.6462C15.8419 11.6462 18.1458 9.34229 18.1458 6.50033C18.1458 3.65836 15.8419 1.35449 12.9999 1.35449ZM9.47911 6.50033C9.47911 4.55582 11.0554 2.97949 12.9999 2.97949C14.9444 2.97949 16.5208 4.55582 16.5208 6.50033C16.5208 8.44483 14.9444 10.0212 12.9999 10.0212C11.0554 10.0212 9.47911 8.44483 9.47911 6.50033Z" fill="#8B5CF6"/>
<path fill-rule="evenodd" clip-rule="evenodd" d="M12.9999 13.2712C10.4936 13.2712 8.18444 13.8409 6.47335 14.8034C4.78772 15.7515 3.52078 17.1886 3.52078 18.9587L3.5207 19.0691C3.51948 20.3278 3.51794 21.9075 4.90355 23.0358C5.58548 23.5911 6.53946 23.986 7.82834 24.2469C9.12081 24.5085 10.8054 24.6462 12.9999 24.6462C15.1945 24.6462 16.8791 24.5085 18.1715 24.2469C19.4604 23.986 20.4144 23.5911 21.0963 23.0358C22.4819 21.9075 22.4804 20.3278 22.4792 19.0691L22.4791 18.9587C22.4791 17.1886 21.2122 15.7515 19.5265 14.8034C17.8154 13.8409 15.5063 13.2712 12.9999 13.2712ZM5.14578 18.9587C5.14578 18.0364 5.81893 17.0359 7.27002 16.2197C8.69564 15.4178 10.7198 14.8962 12.9999 14.8962C15.2801 14.8962 17.3042 15.4178 18.7299 16.2197C20.1809 17.0359 20.8541 18.0364 20.8541 18.9587C20.8541 20.3754 20.8104 21.173 20.0702 21.7758C19.6688 22.1027 18.9978 22.4217 17.8492 22.6542C16.7041 22.886 15.1387 23.0212 12.9999 23.0212C10.8612 23.0212 9.29574 22.886 8.15072 22.6542C7.00209 22.4217 6.33107 22.1027 5.92966 21.7758C5.18945 21.173 5.14578 20.3754 5.14578 18.9587Z" fill="#8B5CF6"/>
</svg>
