<svg width="44" height="44" viewBox="0 0 44 44" fill="none" xmlns="http://www.w3.org/2000/svg">
<path d="M0 21.9977C0 9.84872 9.84872 0 21.9977 0C34.1468 0 43.9955 9.84872 43.9955 21.9977C43.9955 34.1468 34.1468 43.9955 21.9977 43.9955C9.84872 43.9955 0 34.1468 0 21.9977Z" fill="white"/>
<path fill-rule="evenodd" clip-rule="evenodd" d="M15.7304 12.0408C16.9477 10.8304 18.9521 11.0458 19.9714 12.4074L21.2324 14.0918C22.0618 15.1997 21.9886 16.7481 21.0041 17.727L20.7653 17.9645C20.7549 17.9947 20.7296 18.09 20.7577 18.2709C20.8209 18.6784 21.1612 19.5428 22.5897 20.9632C24.0177 22.3831 24.8882 22.7231 25.3015 22.7865C25.4888 22.8152 25.5867 22.7884 25.6171 22.7778L26.0251 22.3721C26.9003 21.5019 28.2451 21.3392 29.3288 21.9283L31.2393 22.9669C32.8752 23.8562 33.2885 26.0799 31.9482 27.4126L30.5277 28.8251C30.0801 29.2701 29.4782 29.6412 28.7436 29.7097C26.9346 29.8784 22.7164 29.6632 18.2843 25.2562C14.1464 21.1418 13.3523 17.5538 13.2518 15.786L14.0006 15.7434L13.2518 15.786C13.201 14.8921 13.6234 14.1358 14.1608 13.6015L15.7304 12.0408ZM18.7706 13.3064C18.264 12.6296 17.3197 12.5758 16.788 13.1045L15.2184 14.6652C14.8885 14.9932 14.7297 15.3548 14.7494 15.7009C14.8292 17.1055 15.4705 20.3431 19.3419 24.1925C23.4034 28.2309 27.1545 28.3514 28.6044 28.2162C28.9006 28.1886 29.1952 28.0347 29.47 27.7614L30.8906 26.3489C31.468 25.7748 31.3407 24.7293 30.5229 24.2847L28.6124 23.2462C28.0848 22.9594 27.4667 23.054 27.0827 23.4358L26.6273 23.8887L26.0984 23.3568C26.6273 23.8887 26.6266 23.8894 26.6258 23.8901L26.6244 23.8916L26.6213 23.8945L26.6148 23.9008L26.6002 23.9144C26.5897 23.924 26.5776 23.9345 26.564 23.9458C26.5369 23.9683 26.5035 23.9937 26.4636 24.0205C26.3835 24.0741 26.2778 24.1325 26.1449 24.1819C25.8741 24.2828 25.5169 24.337 25.0741 24.2691C24.2073 24.1362 23.059 23.5452 21.532 22.0269C20.0056 20.5091 19.4096 19.3661 19.2754 18.5009C19.2067 18.0584 19.2615 17.7011 19.3636 17.4301C19.4137 17.2972 19.4727 17.1916 19.5268 17.1117C19.5538 17.0719 19.5795 17.0385 19.6021 17.0115C19.6135 16.998 19.6241 16.986 19.6337 16.9755L19.6474 16.9609L19.6537 16.9545L19.6567 16.9514L19.6582 16.95C19.6589 16.9493 19.6596 16.9485 20.1884 17.4804L19.6596 16.9485L19.9464 16.6634C20.375 16.2372 20.4351 15.5297 20.0316 14.9908L18.7706 13.3064Z" fill="black"/>
</svg>
