<svg width="40" height="40" viewBox="0 0 40 40" fill="none" xmlns="http://www.w3.org/2000/svg">
<path d="M0 19.9964C0 8.95271 8.95271 0 19.9964 0C31.0402 0 39.9929 8.95271 39.9929 19.9964C39.9929 31.0402 31.0402 39.9929 19.9964 39.9929C8.95271 39.9929 0 31.0402 0 19.9964Z" fill="#2B7FFF" fill-opacity="0.1"/>
<path fill-rule="evenodd" clip-rule="evenodd" d="M19.9923 11.5173C15.3094 11.5173 11.5131 15.3135 11.5131 19.9965C11.5131 24.6794 15.3094 28.4756 19.9923 28.4756C24.6752 28.4756 28.4715 24.6794 28.4715 19.9965C28.4715 15.3135 24.6752 11.5173 19.9923 11.5173ZM10.1381 19.9965C10.1381 14.5541 14.55 10.1423 19.9923 10.1423C25.4346 10.1423 29.8465 14.5541 29.8465 19.9965C29.8465 25.4388 25.4346 29.8506 19.9923 29.8506C14.55 29.8506 10.1381 25.4388 10.1381 19.9965ZM19.9923 15.6423C20.372 15.6423 20.6798 15.9501 20.6798 16.3298V19.7117L22.7701 21.802C23.0386 22.0705 23.0386 22.5058 22.7701 22.7743C22.5016 23.0427 22.0663 23.0427 21.7978 22.7743L19.5062 20.4826C19.3772 20.3537 19.3048 20.1788 19.3048 19.9965V16.3298C19.3048 15.9501 19.6126 15.6423 19.9923 15.6423Z" fill="#2B7FFF"/>
</svg>
