<svg width="44" height="44" viewBox="0 0 44 44" fill="none" xmlns="http://www.w3.org/2000/svg">
<path d="M0 16C0 7.16344 7.16344 0 16 0H28C36.8366 0 44 7.16344 44 16V28C44 36.8366 36.8366 44 28 44H16C7.16344 44 0 36.8366 0 28V16Z" fill="#8B5CF6" fill-opacity="0.1"/>
<path fill-rule="evenodd" clip-rule="evenodd" d="M23.8643 15.7834C23.5506 15.7509 23.1447 15.75 22.5279 15.75H22C21.5858 15.75 21.25 15.4142 21.25 15C21.25 14.5858 21.5858 14.25 22 14.25L22.5648 14.25C23.1347 14.25 23.6187 14.25 24.0186 14.2913C24.4444 14.3353 24.8379 14.4309 25.2097 14.6607C25.5815 14.8905 25.843 15.1997 26.0728 15.5609C26.2754 15.8793 26.4785 16.2803 26.7135 16.75L27.8682 16.75C28.1521 16.75 28.4127 16.75 28.6298 16.7695C28.8645 16.7905 29.1203 16.839 29.3679 16.9804C29.6395 17.1355 29.8645 17.3605 30.0196 17.6321C30.161 17.8797 30.2095 18.1355 30.2306 18.3702C30.2501 18.5873 30.25 18.848 30.25 19.1318V19.1607L30.2501 19.2253C30.2507 19.485 30.2514 19.7632 30.167 20.0271C30.1106 20.2039 30.0263 20.3706 29.9175 20.521C29.755 20.7454 29.5307 20.9098 29.3212 21.0634L29.2691 21.1016L28.9916 21.3061L29.4787 22.2803C31.3237 22.5153 32.75 24.0911 32.75 26C32.75 28.0711 31.0711 29.75 29 29.75C27.1858 29.75 25.6725 28.4617 25.325 26.75H20.175C19.8275 28.4617 18.3142 29.75 16.5 29.75C14.6826 29.75 13.1672 28.4572 12.8232 26.7411C11.9837 26.6561 11.3219 25.9823 11.2554 25.1373C11.2499 25.0675 11.25 24.992 11.25 24.9193L11.25 24.9L11.25 24.8619C11.25 24.5269 11.25 24.3138 11.2647 24.1273C11.448 21.798 13.298 19.948 15.6273 19.7646C15.8138 19.75 16.0269 19.75 16.3619 19.75L16.4 19.75L17.052 19.75C17.9505 19.75 18.6997 19.7499 19.2945 19.8299C19.9223 19.9143 20.4891 20.1 20.9446 20.5555C21.4 21.0109 21.5857 21.5777 21.6701 22.2055C21.7501 22.8003 21.75 23.5495 21.75 24.448L21.75 25.25H25.325C25.5973 23.9089 26.5851 22.8277 27.8727 22.4224L25.4348 17.5466C25.1589 16.9949 24.9766 16.6322 24.8073 16.3661C24.6473 16.1147 24.5326 16.0056 24.4211 15.9367C24.3096 15.8678 24.1608 15.814 23.8643 15.7834ZM20.25 25.25V24.5C20.25 23.536 20.2484 22.8884 20.1835 22.4054C20.1214 21.9439 20.0142 21.7464 19.8839 21.6161C19.7536 21.4858 19.5561 21.3786 19.0946 21.3165C18.6116 21.2516 17.964 21.25 17 21.25H16.4C16.0143 21.25 15.8649 21.2506 15.745 21.26C14.1513 21.3854 12.8855 22.6513 12.76 24.245C12.7506 24.3649 12.75 24.5143 12.75 24.9C12.75 24.9485 12.75 24.9773 12.7503 24.9991C12.7603 25.121 12.879 25.2397 13.0009 25.2497L20.25 25.25ZM14.378 26.75C14.6869 27.6239 15.5204 28.25 16.5 28.25C17.4797 28.25 18.3131 27.6239 18.622 26.75H14.378ZM26.75 26C26.75 24.7574 27.7574 23.75 29 23.75C30.2427 23.75 31.25 24.7574 31.25 26C31.25 27.2426 30.2427 28.25 29 28.25C27.7574 28.25 26.75 27.2426 26.75 26ZM28.3108 19.9445L28.3795 19.894C28.5178 19.7921 28.5955 19.7344 28.6517 19.6877C28.6864 19.6588 28.6993 19.645 28.7026 19.6411C28.7181 19.6197 28.7301 19.5959 28.7382 19.5707C28.7362 19.5769 28.7416 19.5664 28.7454 19.5023C28.7497 19.4293 28.75 19.3325 28.75 19.1607C28.75 18.8383 28.7493 18.6462 28.7366 18.5044C28.7289 18.4187 28.7188 18.3829 28.7154 18.3731C28.6939 18.3366 28.6634 18.3061 28.6269 18.2846C28.6171 18.2812 28.5813 18.2712 28.4956 18.2634C28.3538 18.2507 28.1617 18.25 27.8393 18.25H27.4635L28.3108 19.9445Z" fill="#8B5CF6"/>
</svg>
