<svg width="24" height="24" viewBox="0 0 24 24" fill="none" xmlns="http://www.w3.org/2000/svg">
<path fill-rule="evenodd" clip-rule="evenodd" d="M20.5276 10.3736C20.1569 9.73163 19.4776 9.5206 18.8292 9.42992C18.1755 9.33852 17.3006 9.33855 16.2424 9.33858L16.1822 9.33858C15.552 9.33858 15.1401 9.33237 14.84 9.29064C14.5685 9.2529 14.4822 9.19704 14.4454 9.16446C14.4184 9.13635 14.3704 9.07063 14.3376 8.83366C14.2991 8.55425 14.2974 8.1711 14.2974 7.55704V7.18255C14.2974 5.59503 14.2974 4.32329 14.1752 3.4166C14.0606 2.56554 13.788 1.60969 12.8438 1.32035C11.9162 1.03608 11.1382 1.64564 10.5334 2.27405C9.88918 2.9435 9.12389 3.97895 8.16571 5.27538L5.02872 9.51969C4.41838 10.3454 3.90959 11.0337 3.60644 11.6029C3.30256 12.1735 3.0814 12.8509 3.41847 13.5268L3.41965 13.5293L3.4232 13.5365L3.42724 13.5445L3.43121 13.5522L3.43556 13.5603L3.43998 13.5685L3.44417 13.576L3.44859 13.5838L3.45265 13.5907L3.45414 13.5931C3.82164 14.2296 4.498 14.4524 5.15236 14.5523C5.82668 14.6553 6.72646 14.6619 7.81771 14.6619C8.45431 14.6619 8.86024 14.6633 9.15835 14.7013C9.42171 14.7349 9.50047 14.7867 9.53423 14.8165C9.56414 14.8478 9.61658 14.9207 9.65356 15.1663C9.69588 15.4473 9.70252 15.8364 9.70251 16.4435L9.7025 16.8178C9.70245 18.4053 9.70242 19.6771 9.82458 20.5838C9.93926 21.4349 10.2118 22.3907 11.156 22.6801C12.0836 22.9644 12.8617 22.3548 13.4664 21.7264C14.1107 21.0569 14.876 20.0215 15.8342 18.725L18.9335 14.5317C19.5643 13.6783 20.0831 12.9652 20.3891 12.3718C20.6885 11.7911 20.8973 11.1097 20.5633 10.44L20.5622 10.4376L20.5586 10.4303L20.5546 10.4223L20.5506 10.4146L20.5462 10.4064L20.5418 10.3982L20.5376 10.3907L20.5331 10.3829L20.5291 10.3759L20.5276 10.3736ZM11.6142 3.31416C11.0463 3.90435 10.3385 4.85927 9.33476 6.21733L6.27262 10.3604C5.61493 11.2502 5.17489 11.849 4.93038 12.3081C4.81136 12.5315 4.76668 12.6725 4.75396 12.7578C4.74611 12.8105 4.7509 12.8343 4.75718 12.8496C4.78137 12.8852 4.88638 12.9943 5.37875 13.0695C5.91665 13.1516 6.69008 13.1619 7.81771 13.1619L7.86368 13.1619C8.44081 13.1618 8.94368 13.1618 9.34806 13.2134C9.78124 13.2686 10.2115 13.3942 10.5678 13.7293L10.5736 13.7348L10.5793 13.7404C10.9294 14.0839 11.0716 14.5099 11.1368 14.9429C11.1992 15.3568 11.2025 15.8658 11.2025 16.4435L11.2025 16.753C11.2025 18.42 11.2042 19.5894 11.3112 20.3835C11.3644 20.7789 11.4361 21.0108 11.5047 21.1404C11.5561 21.2374 11.5857 21.2438 11.5941 21.2456L11.5955 21.2459L11.5971 21.2464C11.6075 21.25 11.6444 21.2628 11.7581 21.2056C11.9001 21.1341 12.1029 20.98 12.3856 20.6863C12.9536 20.0961 13.6614 19.1412 14.6651 17.7831L17.7273 13.6401C18.3812 12.7553 18.8169 12.1478 19.0558 11.6845C19.2606 11.2873 19.2383 11.1528 19.2246 11.1171C19.2022 11.0843 19.1013 10.9826 18.6214 10.9155C18.0843 10.8404 17.3158 10.8386 16.1822 10.8386C15.5793 10.8386 15.0565 10.8352 14.6334 10.7763C14.1966 10.7156 13.7653 10.5841 13.4121 10.252L13.4063 10.2465L13.4006 10.2409C13.0473 9.89419 12.9111 9.46874 12.8518 9.03887C12.7973 8.64454 12.7973 8.15622 12.7974 7.60538L12.7974 7.24733C12.7974 5.58044 12.7957 4.41099 12.6887 3.61692C12.6354 3.22153 12.5637 2.98959 12.4951 2.86008C12.4437 2.76301 12.4141 2.75666 12.4058 2.75487L12.4043 2.75451L12.4028 2.75401C12.3923 2.7504 12.3554 2.73767 12.2418 2.79487C12.0998 2.86633 11.8969 3.02042 11.6142 3.31416Z" fill="#2B7FFF"/>
</svg>
