<svg width="14" height="14" viewBox="0 0 14 14" fill="none" xmlns="http://www.w3.org/2000/svg">
<g clip-path="url(#clip0_76_2505)">
<path fill-rule="evenodd" clip-rule="evenodd" d="M6.99999 1.60417C4.01995 1.60417 1.60416 4.01997 1.60416 7.00001C1.60416 9.98004 4.01995 12.3958 6.99999 12.3958C9.98003 12.3958 12.3958 9.98004 12.3958 7.00001C12.3958 4.01997 9.98003 1.60417 6.99999 1.60417ZM0.729156 7.00001C0.729156 3.53672 3.5367 0.729172 6.99999 0.729172C10.4633 0.729172 13.2708 3.53672 13.2708 7.00001C13.2708 10.4633 10.4633 13.2708 6.99999 13.2708C3.5367 13.2708 0.729156 10.4633 0.729156 7.00001ZM6.99999 4.22917C7.24161 4.22917 7.43749 4.42505 7.43749 4.66667V6.81879L8.76768 8.14898C8.93854 8.31983 8.93854 8.59684 8.76768 8.7677C8.59683 8.93855 8.31982 8.93855 8.14896 8.7677L6.69063 7.30936C6.60858 7.22732 6.56249 7.11604 6.56249 7.00001V4.66667C6.56249 4.42505 6.75837 4.22917 6.99999 4.22917Z" fill="black" fill-opacity="0.6"/>
</g>
<defs>
<clipPath id="clip0_76_2505">
<rect width="14" height="14" fill="white"/>
</clipPath>
</defs>
</svg>
