<svg width="48" height="48" viewBox="0 0 48 48" fill="none" xmlns="http://www.w3.org/2000/svg">
<path d="M0 23.999C0 10.7447 10.7447 0 23.999 0C37.2533 0 47.9981 10.7447 47.9981 23.999C47.9981 37.2533 37.2533 47.9981 23.999 47.9981C10.7447 47.9981 0 37.2533 0 23.999Z" fill="#00D40E" fill-opacity="0.1"/>
<path d="M28.0295 22.0293C28.3224 21.7364 28.3224 21.2615 28.0295 20.9686C27.7366 20.6757 27.2617 20.6757 26.9688 20.9686L22.4989 25.4384L21.0292 23.9687C20.7363 23.6758 20.2614 23.6758 19.9685 23.9687C19.6756 24.2616 19.6756 24.7365 19.9685 25.0294L21.9686 27.0295C22.2615 27.3224 22.7364 27.3224 23.0293 27.0295L28.0295 22.0293Z" fill="#00D40E"/>
<path fill-rule="evenodd" clip-rule="evenodd" d="M23.999 13.2486C18.0617 13.2486 13.2485 18.0617 13.2485 23.999C13.2485 29.9363 18.0617 34.7495 23.999 34.7495C29.9363 34.7495 34.7494 29.9363 34.7494 23.999C34.7494 18.0617 29.9363 13.2486 23.999 13.2486ZM14.7486 23.999C14.7486 18.8902 18.8901 14.7487 23.999 14.7487C29.1078 14.7487 33.2493 18.8902 33.2493 23.999C33.2493 29.1079 29.1078 33.2494 23.999 33.2494C18.8901 33.2494 14.7486 29.1079 14.7486 23.999Z" fill="#00D40E"/>
</svg>
