<svg width="40" height="40" viewBox="0 0 40 40" fill="none" xmlns="http://www.w3.org/2000/svg">
<rect width="40" height="40" rx="12" fill="#CCCCCC"/>
<path fill-rule="evenodd" clip-rule="evenodd" d="M11.2496 18.1432C11.2496 13.244 15.1548 9.24957 20 9.24957C24.8452 9.24957 28.7503 13.244 28.7503 18.1432C28.7503 20.5084 28.0763 23.048 26.8847 25.2421C25.6946 27.4334 23.9558 29.3376 21.7806 30.3543C20.6506 30.8825 19.3494 30.8825 18.2194 30.3543C16.0442 29.3376 14.3054 27.4334 13.1153 25.2421C11.9237 23.048 11.2496 20.5084 11.2496 18.1432ZM20 10.7496C16.0083 10.7496 12.7497 14.0472 12.7497 18.1432C12.7497 20.2404 13.3524 22.5355 14.4335 24.5262C15.516 26.5195 17.0459 28.15 18.8546 28.9954C19.582 29.3354 20.418 29.3354 21.1454 28.9954C22.9541 28.15 24.4839 26.5195 25.5665 24.5262C26.6476 22.5355 27.2503 20.2404 27.2503 18.1432C27.2503 14.0472 23.9917 10.7496 20 10.7496ZM20 15.7498C18.7573 15.7498 17.7499 16.7572 17.7499 17.9999C17.7499 19.2426 18.7573 20.25 20 20.25C21.2427 20.25 22.2501 19.2426 22.2501 17.9999C22.2501 16.7572 21.2427 15.7498 20 15.7498ZM16.2498 17.9999C16.2498 15.9288 17.9288 14.2498 20 14.2498C22.0711 14.2498 23.7501 15.9288 23.7501 17.9999C23.7501 20.0711 22.0711 21.7501 20 21.7501C17.9288 21.7501 16.2498 20.0711 16.2498 17.9999Z" fill="white"/>
</svg>
