<svg width="48" height="48" viewBox="0 0 48 48" fill="none" xmlns="http://www.w3.org/2000/svg">
<path d="M0 16C0 7.16345 7.16344 0 16 0H31.9981C40.8346 0 47.9981 7.16344 47.9981 16V31.9981C47.9981 40.8346 40.8346 47.9981 31.9981 47.9981H16C7.16345 47.9981 0 40.8346 0 31.9981V16Z" fill="url(#paint0_linear_25_667)"/>
<path fill-rule="evenodd" clip-rule="evenodd" d="M15.2487 22.1422C15.2487 17.243 19.1538 13.2485 23.999 13.2485C28.8442 13.2485 32.7494 17.243 32.7494 22.1422C32.7494 24.5074 32.0753 27.047 30.8837 29.241C29.6936 31.4324 27.9548 33.3366 25.7796 34.3533C24.6496 34.8815 23.3484 34.8815 22.2184 34.3533C20.0432 33.3366 18.3044 31.4324 17.1143 29.241C15.9227 27.047 15.2487 24.5074 15.2487 22.1422ZM23.999 14.7486C20.0073 14.7486 16.7487 18.0462 16.7487 22.1422C16.7487 24.2393 17.3514 26.5345 18.4325 28.5251C19.5151 30.5185 21.0449 32.1489 22.8536 32.9943C23.581 33.3344 24.417 33.3344 25.1444 32.9943C26.9531 32.1489 28.483 30.5185 29.5655 28.5251C30.6467 26.5345 31.2493 24.2393 31.2493 22.1422C31.2493 18.0462 27.9907 14.7486 23.999 14.7486ZM23.999 19.7488C22.7563 19.7488 21.7489 20.7562 21.7489 21.9989C21.7489 23.2416 22.7563 24.249 23.999 24.249C25.2417 24.249 26.2491 23.2416 26.2491 21.9989C26.2491 20.7562 25.2417 19.7488 23.999 19.7488ZM20.2489 21.9989C20.2489 19.9277 21.9279 18.2487 23.999 18.2487C26.0702 18.2487 27.7492 19.9277 27.7492 21.9989C27.7492 24.07 26.0702 25.749 23.999 25.749C21.9279 25.749 20.2489 24.07 20.2489 21.9989Z" fill="white"/>
<defs>
<linearGradient id="paint0_linear_25_667" x1="23.999" y1="0" x2="23.999" y2="47.9981" gradientUnits="userSpaceOnUse">
<stop stop-color="#8B5CF6"/>
<stop offset="1" stop-color="#6D3ED6"/>
</linearGradient>
</defs>
</svg>
