<svg width="15" height="15" viewBox="0 0 15 15" fill="none" xmlns="http://www.w3.org/2000/svg">
<g clip-path="url(#clip0_2_66483)">
<path fill-rule="evenodd" clip-rule="evenodd" d="M7.41056 1.69826C4.25573 1.69826 1.69823 4.25575 1.69823 7.41058C1.69823 10.5654 4.25573 13.1229 7.41056 13.1229C10.5654 13.1229 13.1229 10.5654 13.1229 7.41058C13.1229 4.25575 10.5654 1.69826 7.41056 1.69826ZM0.771912 7.41058C0.771912 3.74416 3.74414 0.771935 7.41056 0.771935C11.077 0.771935 14.0492 3.74416 14.0492 7.41058C14.0492 11.077 11.077 14.0492 7.41056 14.0492C3.74414 14.0492 0.771912 11.077 0.771912 7.41058ZM7.41056 4.47723C7.66636 4.47723 7.87372 4.68459 7.87372 4.94039V7.21874L9.28194 8.62695C9.46281 8.80782 9.46281 9.10108 9.28194 9.28196C9.10106 9.46283 8.8078 9.46283 8.62693 9.28196L7.08306 7.73809C6.9962 7.65123 6.9474 7.53342 6.9474 7.41058V4.94039C6.9474 4.68459 7.15476 4.47723 7.41056 4.47723Z" fill="black" fill-opacity="0.4"/>
</g>
<defs>
<clipPath id="clip0_2_66483">
<rect width="14.8212" height="14.8212" fill="white"/>
</clipPath>
</defs>
</svg>
