<svg width="52" height="52" viewBox="0 0 52 52" fill="none" xmlns="http://www.w3.org/2000/svg">
<rect width="52" height="52" rx="14" fill="white"/>
<path d="M26 42C34.8366 42 42 34.8366 42 26C42 17.1634 34.8366 10 26 10C17.1634 10 10 17.1634 10 26C10 34.8366 17.1634 42 26 42Z" fill="url(#paint0_linear_412_642)"/>
<path d="M33.9848 19.3815C34.1272 18.4609 33.252 17.7343 32.4334 18.0937L16.1313 25.2512C15.5443 25.5089 15.5873 26.3981 16.196 26.5919L19.5579 27.6625C20.1996 27.8669 20.8944 27.7611 21.4547 27.3741L29.0344 22.1375C29.2629 21.9795 29.5121 22.3046 29.3168 22.5058L23.8608 28.131C23.3315 28.6767 23.4365 29.6014 24.0732 30.0006L30.1818 33.8312C30.8669 34.2608 31.7483 33.8293 31.8764 33.0013L33.9848 19.3815Z" fill="white"/>
<defs>
<linearGradient id="paint0_linear_412_642" x1="26" y1="10" x2="26" y2="42" gradientUnits="userSpaceOnUse">
<stop stop-color="#37BBFE"/>
<stop offset="1" stop-color="#007DBB"/>
</linearGradient>
</defs>
</svg>
