<svg width="48" height="48" viewBox="0 0 48 48" fill="none" xmlns="http://www.w3.org/2000/svg">
<path d="M0 23.999C0 10.7447 10.7447 0 23.999 0C37.2533 0 47.9981 10.7447 47.9981 23.999C47.9981 37.2533 37.2533 47.9981 23.999 47.9981C10.7447 47.9981 0 37.2533 0 23.999Z" fill="#8B5CF6" fill-opacity="0.1"/>
<path fill-rule="evenodd" clip-rule="evenodd" d="M15.2487 22.1423C15.2487 17.243 19.1539 13.2486 23.999 13.2486C28.8442 13.2486 32.7494 17.243 32.7494 22.1423C32.7494 24.5075 32.0753 27.0471 30.8838 29.2411C29.6936 31.4325 27.9548 33.3366 25.7796 34.3533C24.6496 34.8815 23.3484 34.8815 22.2185 34.3533C20.0433 33.3366 18.3044 31.4325 17.1143 29.2411C15.9227 27.0471 15.2487 24.5075 15.2487 22.1423ZM23.999 14.7487C20.0073 14.7487 16.7487 18.0463 16.7487 22.1423C16.7487 24.2394 17.3514 26.5346 18.4325 28.5252C19.5151 30.5186 21.0449 32.149 22.8536 32.9944C23.5811 33.3344 24.417 33.3344 25.1444 32.9944C26.9531 32.149 28.483 30.5186 29.5656 28.5252C30.6467 26.5346 31.2493 24.2394 31.2493 22.1423C31.2493 18.0463 27.9908 14.7487 23.999 14.7487ZM23.999 19.7489C22.7563 19.7489 21.7489 20.7563 21.7489 21.999C21.7489 23.2417 22.7563 24.2491 23.999 24.2491C25.2417 24.2491 26.2491 23.2417 26.2491 21.999C26.2491 20.7563 25.2417 19.7489 23.999 19.7489ZM20.2489 21.999C20.2489 19.9278 21.9279 18.2488 23.999 18.2488C26.0702 18.2488 27.7492 19.9278 27.7492 21.999C27.7492 24.0701 26.0702 25.7491 23.999 25.7491C21.9279 25.7491 20.2489 24.0701 20.2489 21.999Z" fill="#8B5CF6"/>
</svg>
