<svg width="44" height="44" viewBox="0 0 44 44" fill="none" xmlns="http://www.w3.org/2000/svg">
<path d="M0 21.9977C0 9.84872 9.84872 0 21.9977 0C34.1468 0 43.9955 9.84872 43.9955 21.9977C43.9955 34.1468 34.1468 43.9955 21.9977 43.9955C9.84872 43.9955 0 34.1468 0 21.9977Z" fill="white"/>
<path d="M25.7058 26.7709L17.2205 18.2856C16.9306 17.9957 16.9306 17.5148 17.2205 17.2249C17.5104 16.935 17.9913 16.935 18.2812 17.2249L26.7665 25.7102C27.0564 26.0001 27.0564 26.4809 26.7665 26.7709C26.4766 27.0608 25.9957 27.0608 25.7058 26.7709Z" fill="#1C274C"/>
<path d="M17.2207 26.7709C16.9308 26.4809 16.9308 26.0001 17.2207 25.7102L25.706 17.2249C25.9959 16.935 26.4767 16.935 26.7667 17.2249C27.0566 17.5148 27.0566 17.9957 26.7667 18.2856L18.2814 26.7709C17.9915 27.0608 17.5106 27.0608 17.2207 26.7709Z" fill="#1C274C"/>
</svg>
