<svg width="40" height="40" viewBox="0 0 40 40" fill="none" xmlns="http://www.w3.org/2000/svg">
<path d="M0 19.9964C0 8.95271 8.95271 0 19.9964 0C31.0402 0 39.9929 8.95271 39.9929 19.9964C39.9929 31.0402 31.0402 39.9929 19.9964 39.9929C8.95271 39.9929 0 31.0402 0 19.9964Z" fill="#F5F3FF"/>
<g clip-path="url(#clip0_14_1895)">
<path d="M21.5188 23.8024C21.6908 23.8814 21.8847 23.8995 22.0684 23.8536C22.2521 23.8077 22.4147 23.7006 22.5294 23.5499L22.8252 23.1625C22.9804 22.9555 23.1817 22.7876 23.4131 22.6719C23.6445 22.5562 23.8996 22.496 24.1583 22.496H26.6579C27.0998 22.496 27.5237 22.6715 27.8362 22.984C28.1487 23.2965 28.3242 23.7204 28.3242 24.1623V26.6619C28.3242 27.1038 28.1487 27.5277 27.8362 27.8402C27.5237 28.1527 27.0998 28.3283 26.6579 28.3283C22.6803 28.3283 18.8657 26.7482 16.0531 23.9356C13.2406 21.1231 11.6605 17.3085 11.6605 13.3309C11.6605 12.889 11.8361 12.4651 12.1486 12.1526C12.4611 11.8401 12.8849 11.6646 13.3269 11.6646H15.8264C16.2684 11.6646 16.6922 11.8401 17.0047 12.1526C17.3173 12.4651 17.4928 12.889 17.4928 13.3309V15.8305C17.4928 16.0892 17.4326 16.3443 17.3169 16.5757C17.2012 16.8071 17.0332 17.0084 16.8263 17.1636L16.4363 17.456C16.2834 17.5728 16.1756 17.739 16.1312 17.9262C16.0869 18.1135 16.1087 18.3103 16.193 18.4833C17.3317 20.7961 19.2045 22.6666 21.5188 23.8024Z" stroke="#8B5CF6" stroke-width="1.66637" stroke-linecap="round" stroke-linejoin="round"/>
</g>
<defs>
<clipPath id="clip0_14_1895">
<rect width="19.9964" height="19.9964" fill="white" transform="translate(9.99414 9.99817)"/>
</clipPath>
</defs>
</svg>
