<svg width="16" height="16" viewBox="0 0 16 16" fill="none" xmlns="http://www.w3.org/2000/svg">
<path fill-rule="evenodd" clip-rule="evenodd" d="M7.99992 0.833334C7.59677 0.833334 7.22555 0.933525 6.8191 1.10161C6.42664 1.26392 5.9708 1.50314 5.40319 1.80102L4.02484 2.52434C3.3282 2.88991 2.77069 3.18247 2.34023 3.46994C1.89428 3.76776 1.5508 4.08134 1.30067 4.50612C1.05137 4.92947 0.939224 5.38789 0.885444 5.93382C0.833242 6.46372 0.833247 7.11543 0.833252 7.93504V8.06495C0.833247 8.88456 0.833242 9.53628 0.885444 10.0662C0.939224 10.6121 1.05137 11.0705 1.30067 11.4939C1.5508 11.9187 1.89428 12.2322 2.34023 12.5301C2.77069 12.8175 3.32819 13.1101 4.02483 13.4757L5.40313 14.199C5.97077 14.4968 6.42662 14.7361 6.8191 14.8984C7.22555 15.0665 7.59677 15.1667 7.99992 15.1667C8.40307 15.1667 8.77429 15.0665 9.18073 14.8984C9.5732 14.7361 10.029 14.4969 10.5966 14.199L11.975 13.4757C12.6716 13.1101 13.2291 12.8175 13.6596 12.5301C14.1056 12.2322 14.449 11.9187 14.6992 11.4939C14.9485 11.0705 15.0606 10.6121 15.1144 10.0662C15.1666 9.53628 15.1666 8.88457 15.1666 8.06497V7.93503C15.1666 7.11543 15.1666 6.46372 15.1144 5.93382C15.0606 5.38789 14.9485 4.92947 14.6992 4.50612C14.449 4.08134 14.1056 3.76776 13.6596 3.46994C13.2291 3.18247 12.6716 2.88991 11.975 2.52434L10.5967 1.80103C10.029 1.50314 9.5732 1.26392 9.18073 1.10162C8.77429 0.933525 8.40307 0.833334 7.99992 0.833334ZM5.84712 2.69738C6.44026 2.38612 6.85592 2.16853 7.20127 2.02571C7.53741 1.88669 7.77356 1.83333 7.99992 1.83333C8.22628 1.83333 8.46243 1.88669 8.79857 2.02571C9.14392 2.16853 9.55957 2.38612 10.1527 2.69739L11.4861 3.39709C12.2125 3.77832 12.7229 4.04688 13.1042 4.30155C13.2924 4.42719 13.4402 4.54385 13.5596 4.66116L11.3391 5.77139L5.67255 2.78899L5.84712 2.69738ZM4.62969 3.33626L4.51379 3.39709C3.78732 3.77832 3.27694 4.04688 2.8956 4.30155C2.70746 4.42719 2.55962 4.54386 2.44028 4.66116L7.99992 7.44098L10.238 6.32193L4.76704 3.44246C4.71389 3.41448 4.66786 3.37829 4.62969 3.33626ZM1.95837 5.53824C1.9247 5.68083 1.89926 5.84275 1.88063 6.03185C1.83381 6.50706 1.83325 7.10961 1.83325 7.96101V8.03899C1.83325 8.89039 1.83381 9.49294 1.88063 9.96815C1.92641 10.4329 2.0134 10.7335 2.16237 10.9865C2.3105 11.238 2.52476 11.4508 2.8956 11.6985C3.27694 11.9531 3.78732 12.2217 4.51379 12.6029L5.84712 13.3026C6.44026 13.6139 6.85592 13.8315 7.20127 13.9743C7.31032 14.0194 7.40884 14.0555 7.49992 14.0836V8.30902L1.95837 5.53824ZM8.49992 14.0836C8.591 14.0555 8.68952 14.0194 8.79857 13.9743C9.14392 13.8315 9.55957 13.6139 10.1527 13.3026L11.4861 12.6029C12.2125 12.2217 12.7229 11.9531 13.1042 11.6985C13.4751 11.4508 13.6893 11.238 13.8375 10.9865C13.9864 10.7335 14.0734 10.4329 14.1192 9.96815C14.166 9.49294 14.1666 8.89039 14.1666 8.03899V7.96101C14.1666 7.10961 14.166 6.50706 14.1192 6.03185C14.1006 5.84275 14.0751 5.68083 14.0415 5.53824L11.8332 6.64235V8.66667C11.8332 8.94281 11.6094 9.16667 11.3332 9.16667C11.0571 9.16667 10.8332 8.94281 10.8332 8.66667V7.14235L8.49992 8.30902V14.0836Z" fill="black" fill-opacity="0.4"/>
</svg>
