<svg width="26" height="26" viewBox="0 0 26 26" fill="none" xmlns="http://www.w3.org/2000/svg">
<path fill-rule="evenodd" clip-rule="evenodd" d="M13 2.97919C7.46561 2.97919 2.97913 7.46567 2.97913 13C2.97913 18.5344 7.46561 23.0209 13 23.0209C18.5343 23.0209 23.0208 18.5344 23.0208 13C23.0208 7.46567 18.5343 2.97919 13 2.97919ZM1.35413 13C1.35413 6.5682 6.56814 1.35419 13 1.35419C19.4318 1.35419 24.6458 6.5682 24.6458 13C24.6458 19.4318 19.4318 24.6459 13 24.6459C6.56814 24.6459 1.35413 19.4318 1.35413 13ZM12.0916 6.77082C12.1055 6.77084 12.1195 6.77085 12.1333 6.77085H14.625C16.5695 6.77085 18.1458 8.34719 18.1458 10.2917C18.1458 12.2362 16.5695 13.8125 14.625 13.8125H11.6458V14.3542H13C13.4487 14.3542 13.8125 14.718 13.8125 15.1667C13.8125 15.6154 13.4487 15.9792 13 15.9792H11.6458V18.4167C11.6458 18.8654 11.282 19.2292 10.8333 19.2292C10.3846 19.2292 10.0208 18.8654 10.0208 18.4167V15.9792H9.74996C9.30123 15.9792 8.93746 15.6154 8.93746 15.1667C8.93746 14.718 9.30123 14.3542 9.74996 14.3542H10.0208V13.8125H9.74996C9.30123 13.8125 8.93746 13.4488 8.93746 13C8.93746 12.5513 9.30123 12.1875 9.74996 12.1875H10.0208V8.88335C10.0208 8.86951 10.0208 8.85561 10.0208 8.84166C10.0206 8.684 10.0204 8.52013 10.0441 8.37011C10.1726 7.5589 10.8088 6.92268 11.6201 6.7942C11.7701 6.77044 11.9339 6.77063 12.0916 6.77082ZM11.6458 12.1875H14.625C15.672 12.1875 16.5208 11.3387 16.5208 10.2917C16.5208 9.24465 15.672 8.39585 14.625 8.39585H12.1333C12.0282 8.39585 11.9657 8.39593 11.9186 8.39722C11.8886 8.39804 11.8756 8.39916 11.8725 8.39947C11.758 8.41836 11.6683 8.50811 11.6494 8.62259C11.6491 8.6257 11.648 8.6387 11.6472 8.66864C11.6459 8.71578 11.6458 8.77831 11.6458 8.88335V12.1875Z" fill="black" fill-opacity="0.3"/>
</svg>
