<svg width="32" height="32" viewBox="0 0 32 32" fill="none" xmlns="http://www.w3.org/2000/svg">
<path d="M0 15.998C0 7.16254 7.16254 0 15.998 0C24.8334 0 31.996 7.16254 31.996 15.998C31.996 24.8334 24.8334 31.996 15.998 31.996C7.16254 31.996 0 24.8334 0 15.998Z" fill="#2B7FFF" fill-opacity="0.1"/>
<g clip-path="url(#clip0_76_2796)">
<path d="M18.6807 14.6851C18.876 14.4898 18.876 14.1733 18.6807 13.978C18.4854 13.7827 18.1689 13.7827 17.9736 13.978L14.9938 16.9578L14.014 15.978C13.8188 15.7827 13.5022 15.7827 13.3069 15.978C13.1117 16.1733 13.1117 16.4898 13.3069 16.6851L14.6403 18.0184C14.8355 18.2137 15.1521 18.2137 15.3474 18.0184L18.6807 14.6851Z" fill="#2B7FFF"/>
<path fill-rule="evenodd" clip-rule="evenodd" d="M15.9938 8.83154C12.0358 8.83154 8.82715 12.0402 8.82715 15.9982C8.82715 19.9562 12.0358 23.1649 15.9938 23.1649C19.9519 23.1649 23.1605 19.9562 23.1605 15.9982C23.1605 12.0402 19.9519 8.83154 15.9938 8.83154ZM9.82715 15.9982C9.82715 12.5925 12.5881 9.83154 15.9938 9.83154C19.3996 9.83154 22.1605 12.5925 22.1605 15.9982C22.1605 19.404 19.3996 22.1649 15.9938 22.1649C12.5881 22.1649 9.82715 19.404 9.82715 15.9982Z" fill="#2B7FFF"/>
</g>
<defs>
<clipPath id="clip0_76_2796">
<rect width="16" height="16" fill="white" transform="translate(7.9939 7.99805)"/>
</clipPath>
</defs>
</svg>
