<svg width="44" height="44" viewBox="0 0 44 44" fill="none" xmlns="http://www.w3.org/2000/svg">
<rect width="44" height="44" rx="22" fill="#F2F2F2"/>
<rect x="0.5" y="0.5" width="43" height="43" rx="21.5" stroke="black" stroke-opacity="0.1"/>
<path fill-rule="evenodd" clip-rule="evenodd" d="M25.3333 17.6251C24.758 17.6251 24.2916 18.0915 24.2916 18.6667C24.2916 19.242 24.758 19.7084 25.3333 19.7084C25.9086 19.7084 26.375 19.242 26.375 18.6667C26.375 18.0915 25.9086 17.6251 25.3333 17.6251ZM23.0416 18.6667C23.0416 17.4011 24.0676 16.3751 25.3333 16.3751C26.5989 16.3751 27.625 17.4011 27.625 18.6667C27.625 19.9324 26.5989 20.9584 25.3333 20.9584C24.0676 20.9584 23.0416 19.9324 23.0416 18.6667Z" fill="black" fill-opacity="0.5"/>
<path fill-rule="evenodd" clip-rule="evenodd" d="M21.9521 13.0417H22.0478C23.9714 13.0417 25.479 13.0417 26.6552 13.1999C27.8592 13.3617 28.8092 13.6995 29.5548 14.4452C30.3005 15.1909 30.6383 16.1409 30.8002 17.3448C30.9583 18.5211 30.9583 20.0286 30.9583 21.9523V22.0479C30.9583 23.9716 30.9583 25.4791 30.8002 26.6553C30.6383 27.8593 30.3005 28.8093 29.5548 29.555C28.8092 30.3006 27.8592 30.6384 26.6552 30.8003C25.479 30.9584 23.9714 30.9584 22.0478 30.9584H21.9521C20.0285 30.9584 18.521 30.9584 17.3447 30.8003C16.1408 30.6384 15.1907 30.3006 14.4451 29.555C13.6994 28.8093 13.3616 27.8593 13.1997 26.6553C13.0416 25.4791 13.0416 23.9716 13.0416 22.0479V21.9523C13.0416 20.0286 13.0416 18.5211 13.1997 17.3448C13.3616 16.1409 13.6994 15.1909 14.4451 14.4452C15.1907 13.6995 16.1408 13.3617 17.3447 13.1999C18.521 13.0417 20.0285 13.0417 21.9521 13.0417ZM15.329 28.6711C14.8542 28.1964 14.5818 27.5541 14.4386 26.4888C14.3107 25.5375 14.2941 24.3239 14.2919 22.7002L15.5378 21.61C16.0496 21.1622 16.8209 21.1879 17.3018 21.6688L20.8765 25.2435C21.664 26.031 22.9035 26.1384 23.8147 25.498L24.0632 25.3234C24.7783 24.8208 25.7459 24.879 26.3956 25.4638L29.0819 27.8814C29.1111 27.9077 29.1421 27.9308 29.1745 27.9506C29.0398 28.2347 28.8739 28.4682 28.671 28.6711C28.1962 29.1458 27.554 29.4182 26.4886 29.5614C25.4053 29.7071 23.9818 29.7084 22 29.7084C20.0181 29.7084 18.5946 29.7071 17.5113 29.5614C16.4459 29.4182 15.8037 29.1458 15.329 28.6711ZM17.5113 14.4387C16.4459 14.582 15.8037 14.8544 15.329 15.3291C14.8542 15.8038 14.5818 16.4461 14.4386 17.5114C14.3177 18.411 14.2962 19.5451 14.2924 21.0388L14.7147 20.6693C15.7217 19.7882 17.2395 19.8387 18.1856 20.7849L21.7604 24.3597C22.1183 24.7176 22.6818 24.7664 23.0959 24.4753L23.3444 24.3007C24.5363 23.463 26.1489 23.5601 27.2318 24.5347L29.5434 26.6151C29.5496 26.5737 29.5556 26.5316 29.5613 26.4888C29.707 25.4055 29.7083 23.9819 29.7083 22.0001C29.7083 20.0182 29.707 18.5947 29.5613 17.5114C29.4181 16.4461 29.1457 15.8038 28.671 15.3291C28.1962 14.8544 27.554 14.582 26.4886 14.4387C25.4053 14.2931 23.9818 14.2917 22 14.2917C20.0181 14.2917 18.5946 14.2931 17.5113 14.4387Z" fill="black" fill-opacity="0.5"/>
</svg>
