<svg width="32" height="32" viewBox="0 0 32 32" fill="none" xmlns="http://www.w3.org/2000/svg">
<path d="M0 16C0 7.16344 7.16344 0 16 0C24.8366 0 32 7.16344 32 16C32 24.8366 24.8366 32 16 32C7.16344 32 0 24.8366 0 16Z" fill="#8B5CF6"/>
<path d="M15.9885 23.2778C14.9436 23.2778 13.9646 23.0801 13.0515 22.6846C12.1384 22.2939 11.3352 21.752 10.6418 21.0586C9.94849 20.3701 9.40405 19.5693 9.00854 18.6562C8.61792 17.7383 8.42261 16.7568 8.42261 15.7119C8.42261 14.667 8.61792 13.688 9.00854 12.7749C9.40405 11.8569 9.94849 11.0513 10.6418 10.3579C11.3352 9.66455 12.1384 9.12256 13.0515 8.73193C13.9646 8.34131 14.9436 8.146 15.9885 8.146C17.0334 8.146 18.0125 8.34131 18.9255 8.73193C19.8435 9.12256 20.6492 9.66455 21.3425 10.3579C22.0359 11.0513 22.5779 11.8569 22.9685 12.7749C23.364 13.688 23.5618 14.667 23.5618 15.7119C23.5618 16.7568 23.364 17.7383 22.9685 18.6562C22.5779 19.5693 22.0359 20.3701 21.3425 21.0586C20.6492 21.752 19.8435 22.2939 18.9255 22.6846C18.0125 23.0801 17.0334 23.2778 15.9885 23.2778ZM15.9885 21.7837C16.8284 21.7837 17.6145 21.625 18.3469 21.3076C19.0793 20.9951 19.7239 20.5605 20.2805 20.0039C20.842 19.4473 21.2791 18.8027 21.5916 18.0703C21.9041 17.3379 22.0603 16.5518 22.0603 15.7119C22.0603 14.8721 21.9041 14.0859 21.5916 13.3535C21.2791 12.6162 20.842 11.9717 20.2805 11.4199C19.7239 10.8633 19.0793 10.4287 18.3469 10.1162C17.6145 9.79883 16.8284 9.64014 15.9885 9.64014C15.1536 9.64014 14.3674 9.79883 13.6301 10.1162C12.8977 10.4287 12.2532 10.8633 11.6965 11.4199C11.1399 11.9717 10.7029 12.6162 10.3855 13.3535C10.073 14.0859 9.91675 14.8721 9.91675 15.7119C9.91675 16.5518 10.073 17.3379 10.3855 18.0703C10.7029 18.8027 11.1399 19.4473 11.6965 20.0039C12.2532 20.5605 12.8977 20.9951 13.6301 21.3076C14.3674 21.625 15.1536 21.7837 15.9885 21.7837ZM15.1975 19.1909C15.0608 19.1909 14.9387 19.1616 14.8313 19.103C14.7239 19.0396 14.6189 18.9468 14.5164 18.8247L12.7878 16.7153C12.6609 16.5542 12.5974 16.3906 12.5974 16.2246C12.5974 16.0439 12.6584 15.8901 12.7805 15.7632C12.9075 15.6313 13.0588 15.5654 13.2346 15.5654C13.3469 15.5654 13.447 15.5898 13.5349 15.6387C13.6277 15.6826 13.718 15.7632 13.8059 15.8804L15.1682 17.6089L18.0613 12.9727C18.2126 12.7236 18.4031 12.5991 18.6326 12.5991C18.8035 12.5991 18.9573 12.6553 19.094 12.7676C19.2307 12.8799 19.2991 13.0264 19.2991 13.207C19.2991 13.29 19.2795 13.3755 19.2405 13.4634C19.2063 13.5464 19.1648 13.6245 19.116 13.6978L15.842 18.8174C15.6858 19.0664 15.4709 19.1909 15.1975 19.1909Z" fill="white"/>
</svg>
