<svg width="16" height="16" viewBox="0 0 16 16" fill="none" xmlns="http://www.w3.org/2000/svg">
<path fill-rule="evenodd" clip-rule="evenodd" d="M13.6908 6.91842C13.4436 6.49027 12.9905 6.34952 12.558 6.28905C12.122 6.22808 11.5386 6.2281 10.8328 6.22812L10.7926 6.22813C10.3724 6.22813 10.0976 6.22398 9.89746 6.19615C9.71643 6.17098 9.65886 6.13373 9.63431 6.112C9.61631 6.09325 9.58427 6.04942 9.56244 5.89137C9.53671 5.70502 9.53559 5.44948 9.53559 5.03994V4.79017C9.5356 3.73139 9.53561 2.88321 9.45413 2.2785C9.37764 1.71089 9.19583 1.07339 8.56611 0.880414C7.94745 0.690826 7.42856 1.09736 7.02523 1.51648C6.59556 1.96296 6.08516 2.65355 5.44611 3.5182L3.35391 6.34892C2.94685 6.89962 2.60752 7.3587 2.40533 7.73832C2.20265 8.11886 2.05515 8.57067 2.27996 9.02142L2.28075 9.02308L2.28312 9.0279L2.28581 9.03324L2.28846 9.03835L2.29136 9.0438L2.29431 9.04923L2.2971 9.05425L2.30005 9.05942L2.30276 9.06404L2.30375 9.06568C2.54885 9.49017 2.99995 9.63878 3.43637 9.70541C3.88611 9.77407 4.48621 9.77847 5.21401 9.77847C5.63859 9.77847 5.90932 9.77943 6.10814 9.80478C6.28379 9.82717 6.33631 9.8617 6.35883 9.88161C6.37878 9.90243 6.41375 9.95109 6.43842 10.1149C6.46664 10.3023 6.47107 10.5618 6.47106 10.9667L6.47106 11.2163C6.47103 12.2751 6.471 13.1233 6.55248 13.7281C6.62896 14.2957 6.81077 14.9332 7.44048 15.1262C8.05914 15.3158 8.57804 14.9092 8.98138 14.4901C9.41105 14.0436 9.92147 13.353 10.5605 12.4884L12.6276 9.69164C13.0483 9.12245 13.3943 8.64691 13.5984 8.25113C13.7981 7.8638 13.9374 7.40935 13.7146 6.96273L13.7139 6.96112L13.7115 6.95627L13.7088 6.95091L13.7061 6.94578L13.7032 6.94031L13.7003 6.93486L13.6974 6.92982L13.6945 6.92462L13.6918 6.91998L13.6908 6.91842ZM7.74607 2.21018C7.36727 2.6038 6.89524 3.24068 6.22579 4.14642L4.18352 6.9096C3.74488 7.50307 3.4514 7.90241 3.28832 8.2086C3.20894 8.35763 3.17914 8.45166 3.17066 8.50857C3.16542 8.54372 3.16862 8.55959 3.17281 8.56975C3.18894 8.59353 3.25898 8.66632 3.58736 8.71645C3.94611 8.77122 4.46194 8.77806 5.21401 8.77806L5.24467 8.77806C5.62958 8.77803 5.96497 8.77801 6.23467 8.8124C6.52357 8.84923 6.81055 8.93299 7.04816 9.15647L7.05205 9.16013L7.05586 9.16386C7.2893 9.393 7.38419 9.67711 7.42768 9.9659C7.46924 10.2419 7.47148 10.5814 7.47148 10.9667L7.47147 11.1732C7.47146 12.2849 7.47258 13.0649 7.54394 13.5945C7.57947 13.8582 7.62727 14.0129 7.67303 14.0992C7.70733 14.164 7.72708 14.1682 7.73262 14.1694L7.73362 14.1697L7.73462 14.17C7.74161 14.1724 7.76619 14.1809 7.84201 14.1427C7.93672 14.0951 8.072 13.9923 8.26054 13.7964C8.63934 13.4028 9.11139 12.7659 9.78085 11.8601L11.8231 9.09701C12.2593 8.5069 12.5499 8.10174 12.7092 7.7927C12.8457 7.52783 12.8309 7.43813 12.8218 7.41432C12.8068 7.39244 12.7395 7.32458 12.4195 7.27982C12.0613 7.22973 11.5487 7.22854 10.7926 7.22854C10.3906 7.22854 10.0419 7.22627 9.75969 7.18704C9.46835 7.14653 9.18069 7.05884 8.94515 6.8373L8.94126 6.83364L8.93745 6.82991C8.70188 6.59868 8.61103 6.31493 8.57143 6.02823C8.53511 5.76524 8.53514 5.43956 8.53517 5.07218L8.53517 4.83338C8.53517 3.72166 8.53404 2.9417 8.46267 2.4121C8.42714 2.14839 8.37934 1.99371 8.33357 1.90733C8.29927 1.84259 8.27953 1.83835 8.27399 1.83716L8.27299 1.83692L8.27198 1.83659C8.265 1.83418 8.24041 1.82569 8.1646 1.86384C8.06989 1.9115 7.93461 2.01426 7.74607 2.21018Z" fill="#8B5CF6"/>
</svg>
