<svg width="124" height="124" viewBox="0 0 124 124" fill="none" xmlns="http://www.w3.org/2000/svg">
<g clip-path="url(#clip0_39_7723)">
<rect width="124" height="124" rx="39" fill="#3E3E3E"/>
<path d="M192.176 117.885C192.176 164.934 154.035 203.074 106.986 203.074C59.9375 203.074 18.2852 185.156 18.2852 138.107C18.2852 91.0585 22.2207 9.80848 122.486 20.4042C169.535 20.4042 192.176 70.8358 192.176 117.885Z" fill="#7546DE"/>
<path d="M192.176 117.885C192.176 164.934 154.035 203.074 106.986 203.074C59.9375 203.074 18.2852 185.156 18.2852 138.107C18.2852 91.0585 22.2207 9.80848 122.486 20.4042C169.535 20.4042 192.176 70.8358 192.176 117.885Z" fill="url(#paint0_linear_39_7723)"/>
<path d="M56.2042 23.6676C67.6881 22.6636 77.4622 25.1773 84.6544 31.3292C91.8393 37.4749 96.053 46.9139 97.1072 58.9707C98.1635 71.052 95.6575 81.2722 89.6888 88.7671C83.7037 96.2825 74.5335 100.685 63.0257 101.691L42.8264 103.457C39.3521 103.761 36.1582 102.97 33.7351 100.855C31.3272 98.7536 30.0494 95.6659 29.7377 92.101L25.0855 38.8889C24.7738 35.324 25.4964 32.0614 27.503 29.5736C29.5224 27.0702 32.5305 25.7374 36.0048 25.4336L56.2042 23.6676ZM52.9962 82.0233L58.8314 81.5131C64.2599 81.0384 67.8656 79.0854 70.0674 76.0077C72.3279 72.848 73.4544 68.0249 72.8526 61.1422C72.2945 54.7582 70.3102 50.3882 67.496 47.7287C64.7294 45.1141 60.7995 43.8108 55.5751 44.2675L49.7399 44.7776L52.9962 82.0233Z" fill="white" stroke="#3E3E3E" stroke-width="5.53701"/>
</g>
<defs>
<linearGradient id="paint0_linear_39_7723" x1="54.7804" y1="19.4617" x2="155.681" y2="203.074" gradientUnits="userSpaceOnUse">
<stop stop-color="#7546DE"/>
<stop offset="1" stop-color="#7B00E0"/>
</linearGradient>
<clipPath id="clip0_39_7723">
<rect width="124" height="124" rx="39" fill="white"/>
</clipPath>
</defs>
</svg>
