<svg width="116" height="116" viewBox="0 0 116 116" fill="none" xmlns="http://www.w3.org/2000/svg">
<g clip-path="url(#clip0_288_2914)">
<rect width="116" height="116" rx="39" fill="#3E3E3E"/>
<path d="M179.777 110.279C179.777 154.293 144.097 189.973 100.084 189.973C56.0705 189.973 17.1055 173.211 17.1055 129.197C17.1055 85.184 20.7871 9.1759 114.584 19.088C158.597 19.088 179.777 66.266 179.777 110.279Z" fill="#7546DE"/>
<path d="M179.777 110.279C179.777 154.293 144.097 189.973 100.084 189.973C56.0705 189.973 17.1055 173.211 17.1055 129.197C17.1055 85.184 20.7871 9.1759 114.584 19.088C158.597 19.088 179.777 66.266 179.777 110.279Z" fill="url(#paint0_linear_288_2914)"/>
<path d="M87.099 14.5391C88.6413 14.3873 90.1913 14.5967 91.4691 15.5732C92.505 16.365 93.2165 17.5507 93.6488 19.0928C96.1751 18.9024 98.2627 18.8814 99.849 19.0625C100.75 19.1654 101.561 19.3401 102.219 19.6299C102.872 19.9172 103.522 20.3857 103.83 21.1523C104.147 21.937 103.985 22.73 103.666 23.3936C103.352 24.0493 102.829 24.7081 102.175 25.3682C101.003 26.5513 99.222 27.9231 96.847 29.4961C97.3398 30.6354 97.3659 30.7046 98.0023 32.623L98.4476 33.9648L97.0619 34.2441C96.4127 34.3749 96.1509 34.54 96.0511 34.6279C95.9814 34.6894 95.931 34.7623 95.891 34.958C95.6805 36.3392 95.2958 37.4556 94.598 38.3027C93.8674 39.1896 92.9186 39.6329 91.9027 39.8926C90.9282 40.1416 89.761 40.251 88.5326 40.3789C87.6022 40.4758 86.5776 40.588 85.4379 40.7734C86.7525 47.2048 85.1677 53.7765 81.7679 59.7393C78.1365 66.1082 72.3987 71.8571 65.7123 76.1611C52.414 84.7211 34.8473 87.8366 22.3402 77.9141L21.7416 77.4385L21.891 76.6885L23.1205 70.5459L23.3314 69.4932L24.4047 69.541C31.2235 69.85 36.4528 70.0577 40.7133 68.8926C44.8335 67.7658 48.1025 65.3299 50.8763 60.0732C56.4417 48.9485 66.0602 40.9123 72.308 36.791C72.4547 36.388 72.5006 36.083 72.4974 35.8496C72.4935 35.5681 72.4205 35.3244 72.2836 35.0742C72.1372 34.8069 71.9182 34.5312 71.6078 34.1963C71.4531 34.0294 71.2911 33.8639 71.1097 33.6768C70.9331 33.4945 70.7413 33.2959 70.5521 33.0859L69.5404 31.9629L69.7875 31.8115L69.7465 31.7275C69.5531 31.3339 69.3338 30.7207 69.3138 30.0439L69.2162 28.6504C69.1384 27.3311 69.1227 26.2294 69.2103 25.2988C69.33 24.0291 69.6497 22.9816 70.3363 22.084C71.0015 21.2144 71.9239 20.6034 72.9965 20.0322C74.0545 19.4688 75.4479 18.8516 77.0853 18.0703L77.101 18.0635L77.1156 18.0566C78.8225 17.2982 80.5814 16.4924 82.2455 15.8496C83.9046 15.2088 85.5662 14.6899 87.099 14.5391Z" fill="white" stroke="#3E3E3E" stroke-width="2.50304"/>
<path d="M17.0938 68.7769C18.7226 68.9302 20.3504 69.1226 21.9609 69.314C23.5765 69.5059 25.175 69.6964 26.7695 69.8491L28.3359 69.9995L27.8379 71.4917C27.0801 73.7596 26.4756 75.883 25.8672 78.1714L25.6094 79.1401L24.6074 79.1001C19.2483 78.8888 16.0062 81.4228 13.3379 83.2729C12.6807 83.7287 12.0105 84.1748 11.3525 84.4927C10.6921 84.8118 9.93718 85.0553 9.12207 84.9917C7.39119 84.8567 6.17097 83.4461 5.11133 81.3296L4.6709 80.4507L5.4209 79.8149C6.43073 78.9588 7.44046 78.1435 8.43652 77.3394C9.43628 76.5322 10.423 75.7355 11.4062 74.9019L11.4199 74.8901L11.4346 74.8784C12.2002 74.2665 12.8074 73.8385 13.5967 73.7017C13.6766 73.6878 13.7564 73.6782 13.835 73.6704C13.778 73.5287 13.7202 73.389 13.665 73.2515L13.3857 72.5571L13.8662 71.9829C14.2264 71.5517 14.5525 71.1167 14.9004 70.6528C15.243 70.1961 15.6078 69.7096 16.0166 69.2202L16.4385 68.7153L17.0938 68.7769Z" fill="white" stroke="#3E3E3E" stroke-width="2.50304"/>
<path d="M66.2793 58.8269C73.7759 60.8574 79.9059 64.2158 83.0059 70.0847C86.109 75.9597 85.9839 83.9818 81.8613 94.8728L81.5547 95.6804H72.2529L72.3809 94.3123C73.2069 85.533 71.264 80.6233 67.9541 77.8699C64.5626 75.0487 59.4005 74.1866 53.0859 74.3396L49.959 74.4158L52.1709 72.2039C56.4733 67.9015 60.7652 63.6145 65.0508 59.1667L65.5645 58.6335L66.2793 58.8269Z" fill="white" stroke="#3E3E3E" stroke-width="2.50304"/>
<path d="M80.9813 91.0271C81.4662 92.793 82.1566 93.7575 82.8466 94.3464C83.5541 94.9504 84.3684 95.2556 85.3085 95.532C86.1551 95.7809 87.3507 96.0526 88.2762 96.6589C89.3505 97.3628 90.0401 98.4563 90.2313 100.12L90.3915 101.514H72.076L71.9354 100.422C71.8234 99.5468 72.0068 98.6928 72.2284 97.9656C72.4408 97.2688 72.7639 96.4722 72.9716 95.8904C73.4663 94.5038 73.488 93.8443 73.1083 93.3611L72.2421 92.2585L73.4354 91.5222C74.7419 90.7164 75.9651 90.6841 76.9052 90.6648C77.8605 90.6451 78.4845 90.6319 79.1805 90.2566L80.5643 89.5095L80.9813 91.0271Z" fill="white" stroke="#3E3E3E" stroke-width="2.50304"/>
<path d="M70.5609 38.0593C73.7035 38.0595 76.1127 40.6113 76.1127 43.4548V58.0417C76.1125 61.065 73.6801 63.4361 70.5609 63.4363H55.8226C52.8907 63.4363 50.2701 61.0943 50.2699 58.0417V43.4548C50.2699 40.5901 52.853 38.0593 55.8226 38.0593H70.5609Z" fill="#3E3E3E" stroke="#3E3E3E" stroke-width="2.50304"/>
<path d="M51.7524 37.4727C56.4691 34.5249 64.2291 34.0521 76.1587 37.8096L75.8755 40.251L63.439 41.1719L63.3931 41.1758H63.3462C62.4137 41.1758 61.7464 41.099 61.0093 41.1689C60.3453 41.2319 60.0552 41.3954 59.9087 41.5791C59.0947 42.7525 58.8071 44.6465 59.0063 46.79C59.1909 48.7749 59.7721 50.7411 60.4634 52.1045L60.603 52.3691L60.6147 52.3906L60.6255 52.4121C61.3468 53.8547 61.4609 55.3699 60.5718 56.4531C60.0279 57.1156 59.2732 57.413 58.4995 57.4443C57.9654 59.6898 57.1361 61.3104 55.9351 62.1592C55.1863 62.6883 54.3397 62.8807 53.4858 62.7578C52.6651 62.6397 51.9128 62.2427 51.2583 61.7266C49.9593 60.7022 48.807 59.0225 47.9312 57.0938C47.0457 55.1437 46.3962 52.8361 46.1714 50.4619C45.7245 45.7406 46.9558 40.4704 51.7524 37.4727Z" fill="white" stroke="#3E3E3E" stroke-width="2.50304"/>
<path d="M104.944 23.3416C106.836 22.8669 108.259 24.0686 109.115 25.4939C109.981 26.9358 110.534 28.9591 110.78 31.1667C111.028 33.397 110.972 35.9168 110.544 38.4119C109.699 43.345 107.332 48.4946 102.59 50.864C97.794 53.2608 91.0905 52.5628 82.1812 46.9744L82.1646 46.9646L82.1489 46.9539C81.5008 46.5192 81.0517 45.736 80.7358 45.1042C80.3892 44.411 80.0565 43.5813 79.7456 42.8093C79.4244 42.0119 79.1223 41.2649 78.811 40.6423C78.4811 39.9825 78.2258 39.6437 78.0708 39.5193L79.1802 37.3337L91.1558 40.5623L91.1909 40.572L91.2251 40.5837C92.0631 40.8631 92.6756 41.1418 93.3813 41.2966C94.0456 41.4424 94.3564 41.3605 94.5317 41.2292L94.5649 41.2048L94.5991 41.1824C95.7305 40.4461 96.6253 38.8003 97.1587 36.6853C97.6754 34.6366 97.7787 32.4381 97.5786 30.9216L97.5356 30.6218C97.3561 29.1324 97.7142 27.7581 98.8101 27.0271C99.5443 26.5374 100.367 26.4951 101.118 26.7341C102.289 24.896 103.553 23.6905 104.944 23.3416Z" fill="white" stroke="#3E3E3E" stroke-width="2.50304"/>
<path d="M47.8624 45.2742L47.5216 46.7986C47.2531 47.9999 47.2531 49.3521 47.5216 50.5535L47.8624 52.0779H47.5538L47.8087 52.9265C48.2776 54.4932 48.7072 55.9129 49.2657 57.0251L50.1769 58.8376H31.8712C29.8944 58.8376 28.469 57.1477 28.4689 55.4363C28.4689 53.8868 29.6373 52.3541 31.3253 52.0779H20.047C19.0995 52.0779 18.2549 51.7131 17.6583 51.0486C17.1475 50.4796 16.8756 49.7563 16.8156 49.0017L16.8019 48.6765C16.7969 47.0959 17.9557 45.2742 20.047 45.2742H47.8624ZM52.5499 38.0593L50.4142 40.196C49.3432 41.2671 48.6586 42.4844 48.0792 43.9226L47.7628 44.7068H25.2687C23.4107 44.7068 21.8664 43.2864 21.8663 41.4617C21.8663 39.5409 23.348 38.0593 25.2687 38.0593H52.5499Z" fill="white" stroke="#3E3E3E" stroke-width="2.50304"/>
<path d="M52.0446 59.7087L50.9059 61.6052C49.9643 63.1727 48.8243 64.8109 47.6461 65.989L47.2799 66.3562H36.9362C35.2321 66.3562 33.5338 64.9327 33.5338 62.9539C33.5338 61.9891 34.0142 61.1724 34.6198 60.6257C35.2242 60.0801 36.053 59.7087 36.9362 59.7087H52.0446Z" fill="white" stroke="#3E3E3E" stroke-width="2.50304"/>
</g>
<defs>
<linearGradient id="paint0_linear_288_2914" x1="51.2462" y1="18.2063" x2="145.637" y2="189.973" gradientUnits="userSpaceOnUse">
<stop stop-color="#7546DE"/>
<stop offset="1" stop-color="#7B00E0"/>
</linearGradient>
<clipPath id="clip0_288_2914">
<rect width="116" height="116" rx="39" fill="white"/>
</clipPath>
</defs>
</svg>
