<svg width="20" height="20" viewBox="0 0 20 20" fill="none" xmlns="http://www.w3.org/2000/svg">
<path fill-rule="evenodd" clip-rule="evenodd" d="M2.70833 8.45274C2.70833 4.37023 5.9625 1.04167 9.99999 1.04167C14.0375 1.04167 17.2917 4.37023 17.2917 8.45274C17.2917 10.4237 16.73 12.5399 15.737 14.3682C14.7453 16.1943 13.2964 17.781 11.4838 18.6282C10.5421 19.0684 9.45786 19.0684 8.51624 18.6282C6.70364 17.781 5.25468 16.1943 4.26296 14.3682C3.27002 12.5399 2.70833 10.4237 2.70833 8.45274ZM9.99999 2.29167C6.67369 2.29167 3.95833 5.03957 3.95833 8.45274C3.95833 10.2003 4.46052 12.1128 5.36141 13.7717C6.26353 15.4327 7.53835 16.7914 9.04553 17.4958C9.6517 17.7792 10.3483 17.7792 10.9545 17.4958C12.4616 16.7914 13.7365 15.4327 14.6386 13.7717C15.5395 12.1128 16.0417 10.2003 16.0417 8.45274C16.0417 5.03957 13.3263 2.29167 9.99999 2.29167ZM9.99999 6.45833C8.96446 6.45833 8.12499 7.2978 8.12499 8.33333C8.12499 9.36887 8.96446 10.2083 9.99999 10.2083C11.0355 10.2083 11.875 9.36887 11.875 8.33333C11.875 7.2978 11.0355 6.45833 9.99999 6.45833ZM6.87499 8.33333C6.87499 6.60744 8.2741 5.20833 9.99999 5.20833C11.7259 5.20833 13.125 6.60744 13.125 8.33333C13.125 10.0592 11.7259 11.4583 9.99999 11.4583C8.2741 11.4583 6.87499 10.0592 6.87499 8.33333Z" fill="black" fill-opacity="0.5"/>
</svg>
