<svg width="44" height="44" viewBox="0 0 44 44" fill="none" xmlns="http://www.w3.org/2000/svg">
<path d="M0 16C0 7.16344 7.16344 0 16 0H28C36.8366 0 44 7.16344 44 16V28C44 36.8366 36.8366 44 28 44H16C7.16344 44 0 36.8366 0 28V16Z" fill="#8B5CF6" fill-opacity="0.1"/>
<path fill-rule="evenodd" clip-rule="evenodd" d="M22 18.25C19.9289 18.25 18.25 19.9289 18.25 22C18.25 24.0711 19.9289 25.75 22 25.75C24.0711 25.75 25.75 24.0711 25.75 22C25.75 19.9289 24.0711 18.25 22 18.25ZM19.75 22C19.75 20.7574 20.7574 19.75 22 19.75C23.2426 19.75 24.25 20.7574 24.25 22C24.25 23.2426 23.2426 24.25 22 24.25C20.7574 24.25 19.75 23.2426 19.75 22Z" fill="#8B5CF6"/>
<path fill-rule="evenodd" clip-rule="evenodd" d="M21.9747 11.25C21.5303 11.25 21.1592 11.25 20.8546 11.2708C20.5375 11.2924 20.238 11.339 19.9476 11.4593C19.2738 11.7384 18.7384 12.2738 18.4593 12.9476C18.314 13.2984 18.2747 13.6681 18.2596 14.07C18.2476 14.393 18.0845 14.6625 17.844 14.8014C17.6034 14.9403 17.2884 14.9467 17.0027 14.7957C16.6471 14.6078 16.3073 14.457 15.9308 14.4074C15.2077 14.3122 14.4764 14.5082 13.8978 14.9522C13.6484 15.1435 13.4583 15.3796 13.281 15.6434C13.1107 15.8968 12.9252 16.2181 12.7029 16.6031L12.6777 16.6468C12.4555 17.0317 12.2699 17.353 12.1356 17.6272C11.9958 17.9127 11.8864 18.1954 11.8454 18.507C11.7502 19.2301 11.9462 19.9614 12.3902 20.5401C12.6213 20.8412 12.9217 21.0602 13.2622 21.2741C13.5359 21.4461 13.6879 21.7221 13.6879 22C13.6878 22.2778 13.5359 22.5538 13.2622 22.7258C12.9217 22.9397 12.6212 23.1587 12.3901 23.4599C11.9461 24.0385 11.7501 24.7698 11.8453 25.4929C11.8863 25.8045 11.9957 26.0873 12.1355 26.3727C12.2698 26.6469 12.4553 26.9682 12.6776 27.3531L12.7028 27.3969C12.9251 27.7818 13.1106 28.1031 13.2809 28.3565C13.4582 28.6203 13.6483 28.8564 13.8977 29.0477C14.4763 29.4917 15.2076 29.6877 15.9307 29.5925C16.3072 29.5429 16.647 29.3922 17.0025 29.2043C17.2883 29.0532 17.6033 29.0596 17.8439 29.1986C18.0845 29.3375 18.2476 29.607 18.2596 29.9301C18.2747 30.3319 18.314 30.7016 18.4593 31.0524C18.7384 31.7262 19.2738 32.2616 19.9476 32.5407C20.238 32.661 20.5375 32.7076 20.8546 32.7292C21.1592 32.75 21.5303 32.75 21.9747 32.75H22.0252C22.4697 32.75 22.8407 32.75 23.1454 32.7292C23.4625 32.7076 23.762 32.661 24.0524 32.5407C24.7262 32.2616 25.2616 31.7262 25.5407 31.0524C25.686 30.7016 25.7253 30.3319 25.7403 29.93C25.7524 29.607 25.9154 29.3375 26.156 29.1985C26.3966 29.0596 26.7116 29.0532 26.9974 29.2042C27.3529 29.3921 27.6927 29.5429 28.0692 29.5924C28.7923 29.6876 29.5236 29.4917 30.1022 29.0477C30.3516 28.8563 30.5417 28.6203 30.719 28.3565C30.8893 28.1031 31.0748 27.7818 31.297 27.3969L31.3223 27.3531C31.5445 26.9682 31.7301 26.6468 31.8644 26.3726C32.0042 26.0872 32.1135 25.8045 32.1546 25.4929C32.2498 24.7697 32.0538 24.0384 31.6098 23.4598C31.3787 23.1586 31.0782 22.9397 30.7378 22.7258C30.464 22.5538 30.3121 22.2778 30.3121 21.9999C30.3121 21.7221 30.464 21.4462 30.7377 21.2742C31.0783 21.0603 31.3788 20.8414 31.6099 20.5401C32.0539 19.9615 32.2499 19.2302 32.1547 18.5071C32.1136 18.1955 32.0043 17.9127 31.8645 17.6273C31.7302 17.3531 31.5447 17.0318 31.3224 16.647L31.2972 16.6032C31.0749 16.2183 30.8894 15.8969 30.7191 15.6435C30.5418 15.3797 30.3517 15.1436 30.1023 14.9523C29.5237 14.5083 28.7924 14.3123 28.0692 14.4075C27.6928 14.4571 27.353 14.6078 26.9975 14.7957C26.7117 14.9468 26.3967 14.9404 26.1561 14.8014C25.9155 14.6625 25.7524 14.393 25.7403 14.0699C25.7253 13.6681 25.686 13.2984 25.5407 12.9476C25.2616 12.2738 24.7262 11.7384 24.0524 11.4593C23.762 11.339 23.4625 11.2924 23.1454 11.2708C22.8407 11.25 22.4697 11.25 22.0252 11.25H21.9747ZM20.5216 12.8452C20.5988 12.8132 20.716 12.7837 20.9567 12.7673C21.2042 12.7504 21.5238 12.75 22 12.75C22.4762 12.75 22.7958 12.7504 23.0432 12.7673C23.284 12.7837 23.4012 12.8132 23.4783 12.8452C23.7846 12.972 24.028 13.2154 24.1548 13.5216C24.1949 13.6183 24.228 13.7689 24.2414 14.126C24.271 14.9183 24.68 15.6813 25.4061 16.1005C26.1321 16.5197 26.9974 16.4924 27.6984 16.1219C28.0143 15.9549 28.1614 15.9083 28.265 15.8947C28.5937 15.8514 28.9261 15.9405 29.1891 16.1423C29.2554 16.1931 29.3395 16.2799 29.4741 16.4802C29.6125 16.686 29.7726 16.9626 30.0107 17.375C30.2488 17.7874 30.4083 18.0644 30.5174 18.2871C30.6235 18.5038 30.6566 18.6201 30.6675 18.7029C30.7108 19.0316 30.6217 19.364 30.4199 19.627C30.3562 19.71 30.2424 19.814 29.9397 20.0041C29.2684 20.426 28.8122 21.1616 28.8121 21.9999C28.8121 22.8383 29.2683 23.574 29.9397 23.9959C30.2423 24.186 30.3561 24.29 30.4198 24.373C30.6216 24.636 30.7107 24.9684 30.6674 25.2971C30.6565 25.3799 30.6234 25.4961 30.5173 25.7128C30.4082 25.9355 30.2487 26.2125 30.0106 26.6249C29.7725 27.0373 29.6124 27.3139 29.474 27.5198C29.3394 27.72 29.2553 27.8068 29.189 27.8576C28.926 28.0595 28.5936 28.1485 28.2649 28.1053C28.1613 28.0916 28.0142 28.045 27.6983 27.8781C26.9973 27.5075 26.132 27.4803 25.4059 27.8995C24.68 28.3187 24.271 29.0816 24.2414 29.874C24.228 30.2311 24.1949 30.3817 24.1548 30.4784C24.028 30.7846 23.7846 31.028 23.4783 31.1549C23.4012 31.1868 23.284 31.2163 23.0432 31.2327C22.7958 31.2496 22.4762 31.25 22 31.25C21.5238 31.25 21.2042 31.2496 20.9567 31.2327C20.716 31.2163 20.5988 31.1868 20.5216 31.1549C20.2154 31.028 19.972 30.7846 19.8451 30.4784C19.8051 30.3817 19.7719 30.2311 19.7586 29.874C19.729 29.0817 19.32 28.3187 18.5939 27.8995C17.8678 27.4803 17.0026 27.5076 16.3016 27.8781C15.9856 28.0451 15.8386 28.0917 15.7349 28.1053C15.4063 28.1486 15.0738 28.0595 14.8108 27.8577C14.7446 27.8069 14.6604 27.7201 14.5259 27.5198C14.3875 27.314 14.2274 27.0374 13.9893 26.625C13.7512 26.2126 13.5917 25.9356 13.4826 25.7129C13.3765 25.4962 13.3434 25.3799 13.3325 25.2971C13.2892 24.9684 13.3783 24.636 13.5801 24.373C13.6438 24.2901 13.7576 24.186 14.0602 23.9959C14.7316 23.5741 15.1878 22.8384 15.1879 22.0001C15.1879 21.1616 14.7317 20.4259 14.0602 20.004C13.7577 19.8139 13.6438 19.7099 13.5802 19.6269C13.3784 19.3639 13.2893 19.0315 13.3326 18.7028C13.3435 18.62 13.3766 18.5038 13.4827 18.2871C13.5918 18.0643 13.7513 17.7873 13.9894 17.3749C14.2275 16.9625 14.3876 16.686 14.526 16.4801C14.6605 16.2798 14.7447 16.1931 14.8109 16.1422C15.0739 15.9404 15.4064 15.8513 15.735 15.8946C15.8387 15.9083 15.9858 15.9548 16.3017 16.1218C17.0027 16.4924 17.8679 16.5196 18.5939 16.1005C19.32 15.6813 19.729 14.9184 19.7586 14.126C19.7719 13.7689 19.8051 13.6183 19.8451 13.5216C19.972 13.2154 20.2154 12.972 20.5216 12.8452Z" fill="#8B5CF6"/>
</svg>
