<svg width="26" height="26" viewBox="0 0 26 26" fill="none" xmlns="http://www.w3.org/2000/svg">
<path fill-rule="evenodd" clip-rule="evenodd" d="M9.42429 1.35401C9.4391 1.35402 9.45414 1.35402 9.46939 1.35402H16.5303C16.5456 1.35402 16.5606 1.35402 16.5754 1.35401C16.8136 1.35395 16.9962 1.3539 17.1558 1.37103C18.6228 1.52846 19.7457 2.73314 19.8138 4.19243C21.1601 4.59437 22.1026 5.87681 22.0368 7.32023C22.4684 7.51496 22.8507 7.78361 23.1777 8.15712C23.8455 8.91984 24.0494 9.85318 24.0572 10.9422C24.0648 11.9948 23.8872 13.3265 23.6659 14.9864L23.2168 18.3539C23.0438 19.6516 22.9038 20.7019 22.6861 21.5243C22.4595 22.3804 22.125 23.0901 21.4972 23.6398C20.8695 24.1894 20.1217 24.4272 19.2432 24.5386C18.3992 24.6457 17.3396 24.6457 16.0305 24.6457H9.96935C8.66019 24.6457 7.60058 24.6457 6.75659 24.5386C5.87809 24.4272 5.13035 24.1894 4.50261 23.6398C3.87486 23.0901 3.54032 22.3804 3.31371 21.5243C3.09601 20.7019 2.95599 19.6516 2.78299 18.3539L2.33398 14.9864C2.11264 13.3265 1.93506 11.9948 1.94262 10.9422C1.95043 9.85318 2.15434 8.91984 2.82211 8.15712C3.14913 7.78361 3.5314 7.51495 3.96304 7.32022C3.89725 5.87685 4.83965 4.59444 6.18588 4.19246C6.254 2.73316 7.37686 1.52846 8.84388 1.37103C9.00351 1.3539 9.18611 1.35395 9.42429 1.35401ZM7.83476 4.06235H18.165C18.0496 3.49502 17.5785 3.05072 16.9824 2.98675C16.9215 2.98021 16.8346 2.97902 16.5303 2.97902H9.46939C9.16513 2.97902 9.07824 2.98021 9.01727 2.98675C8.42122 3.05072 7.95016 3.49502 7.83476 4.06235ZM5.61257 6.8979C6.63343 6.77065 7.92957 6.77066 9.52694 6.77069H16.4729C18.0703 6.77066 19.3664 6.77065 20.3873 6.8979C20.255 6.21898 19.6573 5.68735 18.917 5.68735H7.08284C6.34253 5.68735 5.74482 6.21897 5.61257 6.8979ZM5.69284 8.52641C4.79975 8.65202 4.34804 8.88112 4.04474 9.22755C3.74144 9.57397 3.57405 10.052 3.56757 10.9539C3.56093 11.8788 3.72145 13.097 3.95316 14.8349L4.38649 18.0849C4.56848 19.4498 4.69637 20.3974 4.88461 21.1085C5.06697 21.7974 5.28161 22.162 5.57303 22.4171C5.86446 22.6723 6.25416 22.8368 6.96115 22.9266C7.69093 23.0192 8.64711 23.0207 10.0241 23.0207H15.9757C17.3527 23.0207 18.3089 23.0192 19.0387 22.9266C19.7457 22.8368 20.1354 22.6723 20.4268 22.4171C20.7182 22.162 20.9329 21.7974 21.1152 21.1085C21.3035 20.3974 21.4313 19.4498 21.6133 18.0849L22.0467 14.8349C22.2784 13.097 22.4389 11.8788 22.4323 10.9539C22.4258 10.052 22.2584 9.57397 21.9551 9.22755C21.6518 8.88112 21.2001 8.65202 20.307 8.52641C19.391 8.39759 18.1623 8.39569 16.4091 8.39569H9.59077C7.83753 8.39569 6.60879 8.39759 5.69284 8.52641ZM8.93741 19.4999C8.93741 19.0511 9.30118 18.6874 9.74991 18.6874H16.2499C16.6986 18.6874 17.0624 19.0511 17.0624 19.4999C17.0624 19.9486 16.6986 20.3124 16.2499 20.3124H9.74991C9.30118 20.3124 8.93741 19.9486 8.93741 19.4999Z" fill="#8B5CF6"/>
</svg>
