<svg width="32" height="32" viewBox="0 0 32 32" fill="none" xmlns="http://www.w3.org/2000/svg">
<path d="M0 15.998C0 7.16254 7.16254 0 15.998 0C24.8334 0 31.996 7.16254 31.996 15.998C31.996 24.8334 24.8334 31.996 15.998 31.996C7.16254 31.996 0 24.8334 0 15.998Z" fill="#FF8502" fill-opacity="0.1"/>
<g clip-path="url(#clip0_76_2814)">
<path fill-rule="evenodd" clip-rule="evenodd" d="M15.5219 10.2036C15.2594 10.5464 14.9631 11.0752 14.5327 11.8472L14.3143 12.2392C14.3011 12.2628 14.2881 12.2862 14.2752 12.3093C14.0747 12.6701 13.9055 12.9747 13.6329 13.1817C13.3573 13.3909 13.0213 13.4664 12.6308 13.5541C12.6057 13.5598 12.5804 13.5655 12.5548 13.5712L12.1306 13.6672C11.2937 13.8566 10.7244 13.9869 10.3344 14.1405C9.95391 14.2905 9.87359 14.4134 9.84297 14.5118C9.81066 14.6157 9.80969 14.7747 10.0372 15.1361C10.2681 15.5029 10.6576 15.9604 11.2273 16.6265L11.5165 16.9647C11.5333 16.9844 11.55 17.0038 11.5665 17.023C11.8351 17.3364 12.0592 17.5978 12.1619 17.9282C12.2641 18.2567 12.2302 18.6018 12.1892 19.0203C12.1867 19.046 12.1841 19.0719 12.1816 19.0981L12.1378 19.5494C12.0518 20.4375 11.9938 21.049 12.0134 21.4895C12.033 21.9292 12.1258 22.0507 12.1997 22.1068C12.2653 22.1566 12.3867 22.2118 12.7822 22.0985C13.1841 21.9833 13.7183 21.739 14.5019 21.3782L14.8991 21.1953C14.9236 21.184 14.9478 21.1728 14.9718 21.1617C15.335 20.9938 15.6501 20.8481 15.9939 20.8481C16.3377 20.8481 16.6528 20.9938 17.016 21.1617C17.04 21.1728 17.0642 21.184 17.0887 21.1953L17.4859 21.3782C18.2695 21.739 18.8037 21.9833 19.2056 22.0985C19.6011 22.2118 19.7225 22.1566 19.7882 22.1068C19.862 22.0507 19.9549 21.9292 19.9744 21.4895C19.9941 21.049 19.936 20.4375 19.85 19.5494L19.8062 19.0981C19.8037 19.0719 19.8012 19.046 19.7986 19.0203C19.7576 18.6018 19.7237 18.2567 19.8259 17.9282C19.9286 17.5978 20.1527 17.3364 20.4213 17.023C20.4378 17.0038 20.4545 16.9844 20.4713 16.9647L20.7605 16.6265C21.3302 15.9604 21.7197 15.5029 21.9506 15.1361C22.1781 14.7747 22.1772 14.6157 22.1448 14.5118C22.1142 14.4134 22.0339 14.2905 21.6534 14.1405C21.2634 13.9869 20.6941 13.8566 19.8572 13.6672L19.433 13.5712C19.4074 13.5655 19.3821 13.5598 19.357 13.5541C18.9665 13.4664 18.6306 13.3909 18.355 13.1817C18.0823 12.9747 17.9131 12.6701 17.7126 12.3093C17.6997 12.2862 17.6867 12.2628 17.6735 12.2391L17.4551 11.8472C17.0247 11.0752 16.7284 10.5464 16.4659 10.2036C16.2037 9.86116 16.0697 9.83154 15.9939 9.83154C15.9181 9.83154 15.7841 9.86116 15.5219 10.2036ZM14.7279 9.59561C15.0457 9.18063 15.4385 8.83154 15.9939 8.83154C16.5493 8.83154 16.9421 9.18063 17.2599 9.59561C17.5721 10.0034 17.9032 10.5974 18.3079 11.3234L18.547 11.7522C18.8087 12.2217 18.8756 12.3214 18.9596 12.3852C19.0404 12.4465 19.1447 12.4807 19.6537 12.5959L20.1203 12.7015C20.9041 12.8788 21.5498 13.0249 22.02 13.2102C22.5081 13.4025 22.9353 13.6861 23.0997 14.2149C23.2625 14.7383 23.0796 15.2198 22.7969 15.6688C22.5222 16.1051 22.0835 16.6181 21.5476 17.2447L21.2313 17.6147C20.8866 18.0177 20.8146 18.1163 20.7808 18.2252C20.7463 18.3361 20.7495 18.4644 20.8016 19.0017L20.8493 19.4938C20.9304 20.3311 20.9966 21.014 20.9734 21.534C20.9499 22.0633 20.8296 22.5716 20.3928 22.9033C19.9478 23.2411 19.43 23.203 18.9302 23.0598C18.4455 22.9209 17.8413 22.6427 17.1076 22.3049L16.6705 22.1036C16.1922 21.8834 16.0899 21.8481 15.9939 21.8481C15.898 21.8481 15.7956 21.8834 15.3173 22.1036L14.8802 22.3049C14.1465 22.6427 13.5423 22.9209 13.0577 23.0598C12.5578 23.203 12.04 23.2411 11.595 22.9033C11.1582 22.5716 11.0379 22.0633 11.0144 21.534C10.9912 21.014 11.0574 20.3311 11.1385 19.4938L11.1862 19.0017C11.2383 18.4644 11.2415 18.3361 11.207 18.2252C11.1732 18.1163 11.1012 18.0177 10.7565 17.6147L10.4402 17.2448C9.9043 16.6181 9.46558 16.1051 9.19091 15.6688C8.90823 15.2198 8.72532 14.7383 8.88807 14.2149C9.05252 13.6861 9.47967 13.4025 9.9678 13.2102C10.438 13.0249 11.0837 12.8788 11.8675 12.7015L11.9099 12.6919L12.3342 12.5959C12.8431 12.4807 12.9474 12.4465 13.0282 12.3852C13.1122 12.3214 13.1791 12.2217 13.4408 11.7522L13.6799 11.3234C14.0846 10.5974 14.4157 10.0034 14.7279 9.59561Z" fill="#FF8502"/>
</g>
<defs>
<clipPath id="clip0_76_2814">
<rect x="7.9939" y="7.99805" width="16" height="16" rx="5" fill="white"/>
</clipPath>
</defs>
</svg>
