<svg width="14" height="14" viewBox="0 0 14 14" fill="none" xmlns="http://www.w3.org/2000/svg">
<g clip-path="url(#clip0_13_1396)">
<path fill-rule="evenodd" clip-rule="evenodd" d="M6.99996 1.604C4.01992 1.604 1.60413 4.0198 1.60413 6.99984C1.60413 9.97987 4.01992 12.3957 6.99996 12.3957C9.98 12.3957 12.3958 9.97987 12.3958 6.99984C12.3958 4.0198 9.98 1.604 6.99996 1.604ZM0.729126 6.99984C0.729126 3.53655 3.53667 0.729004 6.99996 0.729004C10.4632 0.729004 13.2708 3.53655 13.2708 6.99984C13.2708 10.4631 10.4632 13.2707 6.99996 13.2707C3.53667 13.2707 0.729126 10.4631 0.729126 6.99984ZM6.99996 4.229C7.24158 4.229 7.43746 4.42488 7.43746 4.6665V6.81862L8.76765 8.14881C8.93851 8.31967 8.93851 8.59668 8.76765 8.76753C8.5968 8.93838 8.31979 8.93838 8.14893 8.76753L6.6906 7.3092C6.60855 7.22715 6.56246 7.11587 6.56246 6.99984V4.6665C6.56246 4.42488 6.75833 4.229 6.99996 4.229Z" fill="#8B5CF6"/>
</g>
<defs>
<clipPath id="clip0_13_1396">
<rect width="14" height="14" fill="white"/>
</clipPath>
</defs>
</svg>
