<svg width="14" height="14" viewBox="0 0 14 14" fill="none" xmlns="http://www.w3.org/2000/svg">
<g clip-path="url(#clip0_76_2502)">
<path fill-rule="evenodd" clip-rule="evenodd" d="M6.99999 1.60417C4.01995 1.60417 1.60416 4.01997 1.60416 7C1.60416 9.98004 4.01995 12.3958 6.99999 12.3958C9.98003 12.3958 12.3958 9.98004 12.3958 7C12.3958 4.01997 9.98003 1.60417 6.99999 1.60417ZM0.729156 7C0.729156 3.53672 3.5367 0.729172 6.99999 0.729172C10.4633 0.729172 13.2708 3.53672 13.2708 7C13.2708 10.4633 10.4633 13.2708 6.99999 13.2708C3.5367 13.2708 0.729156 10.4633 0.729156 7ZM8.07854 5.35574C7.72564 5.44929 7.25009 5.63866 6.56502 5.91268C6.24919 6.03902 6.19041 6.06879 6.14717 6.10671C6.13281 6.1193 6.11929 6.13282 6.10669 6.14719C6.06878 6.19042 6.039 6.2492 5.91267 6.56503C5.63864 7.25011 5.44928 7.72565 5.35572 8.07855C5.2583 8.44601 5.30605 8.53994 5.32138 8.56251C5.35238 8.60813 5.39173 8.64747 5.43734 8.67847C5.45991 8.69381 5.55384 8.74155 5.9213 8.64413C6.2742 8.55057 6.74975 8.36121 7.43482 8.08718C7.75065 7.96085 7.80943 7.93108 7.85267 7.89316L8.14112 8.2221L7.85267 7.89316C7.86703 7.88057 7.88055 7.86704 7.89315 7.85268L8.22208 8.14114L7.89315 7.85268C7.93106 7.80945 7.96084 7.75067 8.08717 7.43483C8.3612 6.74976 8.55056 6.27422 8.64412 5.92131C8.74153 5.55386 8.69379 5.45993 8.67846 5.43736C8.64746 5.39174 8.60811 5.3524 8.56249 5.3214C8.53993 5.30606 8.446 5.25832 8.07854 5.35574ZM7.85432 4.50995C8.25674 4.40327 8.69205 4.35153 9.05429 4.59768C9.19114 4.69068 9.30918 4.80871 9.40217 4.94557C9.64832 5.3078 9.59659 5.74311 9.4899 6.14554C9.38099 6.55634 9.17085 7.08167 8.91133 7.73044L8.89959 7.7598C8.89301 7.77624 8.88651 7.79255 8.88006 7.80873C8.78489 8.04758 8.70068 8.25893 8.55102 8.42959C8.51324 8.47268 8.47267 8.51325 8.42958 8.55104C8.25892 8.70069 8.04757 8.78491 7.80873 8.88007C7.79254 8.88652 7.77622 8.89303 7.75979 8.8996L7.5973 8.49339L7.75979 8.8996L7.73043 8.91134C7.08166 9.17086 6.55633 9.38101 6.14552 9.48991C5.7431 9.5966 5.30778 9.64834 4.94555 9.40219L5.19145 9.04033L4.94555 9.40219C4.8087 9.30919 4.69066 9.19115 4.59766 9.0543C4.35151 8.69207 4.40325 8.25676 4.50994 7.85433C4.61885 7.44353 4.82899 6.91819 5.08851 6.26942L5.10025 6.24007C5.10683 6.22363 5.11333 6.20732 5.11978 6.19114C5.21495 5.95229 5.29916 5.74094 5.44882 5.57028C5.4866 5.52719 5.52717 5.48662 5.57026 5.44883C5.74092 5.29917 5.95227 5.21496 6.19112 5.11979C6.20731 5.11334 6.22362 5.10684 6.24005 5.10027L6.26941 5.08852C6.91818 4.829 7.44351 4.61886 7.85432 4.50995Z" fill="black" fill-opacity="0.6"/>
</g>
<defs>
<clipPath id="clip0_76_2502">
<rect width="14" height="14" fill="white"/>
</clipPath>
</defs>
</svg>
