<svg width="14" height="14" viewBox="0 0 14 14" fill="none" xmlns="http://www.w3.org/2000/svg">
<g clip-path="url(#clip0_13_1393)">
<path fill-rule="evenodd" clip-rule="evenodd" d="M7.00052 1.60455C4.02027 1.60455 1.60431 4.02052 1.60431 7.00076C1.60431 9.98101 4.02027 12.397 7.00052 12.397C9.98076 12.397 12.3967 9.98101 12.3967 7.00076C12.3967 4.02052 9.98076 1.60455 7.00052 1.60455ZM0.729248 7.00076C0.729248 3.53724 3.53699 0.729492 7.00052 0.729492C10.464 0.729492 13.2718 3.53724 13.2718 7.00076C13.2718 10.4643 10.464 13.272 7.00052 13.272C3.53699 13.272 0.729248 10.4643 0.729248 7.00076ZM8.07914 5.35638C7.72622 5.44994 7.25064 5.63932 6.56552 5.91337C6.24966 6.03971 6.19088 6.06948 6.14764 6.1074C6.13328 6.12 6.11975 6.13352 6.10716 6.14789C6.06924 6.19112 6.03946 6.24991 5.91312 6.56576C5.63907 7.25088 5.4497 7.72646 5.35613 8.07939C5.25871 8.44687 5.30646 8.54081 5.32179 8.56338C5.35279 8.609 5.39214 8.64835 5.43776 8.67935C5.46033 8.69468 5.55427 8.74243 5.92175 8.645C6.27468 8.55144 6.75026 8.36206 7.43538 8.08802C7.75123 7.96168 7.81002 7.9319 7.85325 7.89398L8.14173 8.22294L7.85326 7.89398C7.86762 7.88139 7.88114 7.86786 7.89374 7.8535L8.2227 8.14197L7.89374 7.8535C7.93166 7.81026 7.96143 7.75148 8.08777 7.43562C8.36182 6.7505 8.5512 6.27492 8.64476 5.922C8.74218 5.55451 8.69444 5.46058 8.6791 5.43801C8.6481 5.39239 8.60875 5.35304 8.56313 5.32204C8.54056 5.3067 8.44663 5.25896 8.07914 5.35638ZM7.8549 4.51054C8.25736 4.40384 8.6927 4.3521 9.05496 4.59827C9.19182 4.69127 9.30987 4.80932 9.40287 4.94618C9.64904 5.30844 9.5973 5.74378 9.4906 6.14624C9.38169 6.55707 9.17153 7.08244 8.91199 7.73125L8.90025 7.76061C8.89367 7.77705 8.88717 7.79336 8.88072 7.80955C8.78555 8.04841 8.70133 8.25978 8.55166 8.43045C8.51387 8.47354 8.4733 8.51411 8.4302 8.5519C8.25953 8.70157 8.04817 8.78579 7.80931 8.88096C7.79312 8.88741 7.77681 8.89391 7.76037 8.90049L7.59787 8.49425L7.76037 8.90049L7.73101 8.91223C7.0822 9.17177 6.55682 9.38193 6.14599 9.49085C5.74354 9.59754 5.3082 9.64928 4.94594 9.40311L5.19185 9.04123L4.94594 9.40311C4.80907 9.31011 4.69103 9.19206 4.59803 9.0552C4.35186 8.69294 4.4036 8.2576 4.51029 7.85515C4.61921 7.44431 4.82937 6.91894 5.08891 6.27012L5.10065 6.24077C5.10722 6.22434 5.11372 6.20802 5.12017 6.19184C5.21535 5.95297 5.29957 5.74161 5.44924 5.57093C5.48703 5.52784 5.5276 5.48727 5.57069 5.44948C5.74136 5.29981 5.95273 5.21559 6.19159 5.12042C6.20778 5.11397 6.22409 5.10747 6.24053 5.10089L6.26989 5.08915C6.9187 4.82961 7.44407 4.61945 7.8549 4.51054Z" fill="#8B5CF6"/>
</g>
<defs>
<clipPath id="clip0_13_1393">
<rect width="14.001" height="14.001" fill="white"/>
</clipPath>
</defs>
</svg>
