<svg width="42" height="42" viewBox="0 0 42 42" fill="none" xmlns="http://www.w3.org/2000/svg">
<rect width="42" height="42" rx="21" fill="#8B5CF6" fill-opacity="0.1"/>
<path fill-rule="evenodd" clip-rule="evenodd" d="M21 11.75C20.3423 11.75 19.6951 11.9616 18.0806 12.5143L17.5078 12.7104C15.9952 13.2281 14.8921 13.606 14.1176 13.9207C13.731 14.0777 13.4509 14.2093 13.2543 14.3235C13.1572 14.3799 13.0903 14.4264 13.0457 14.4627C13.0078 14.4935 12.9934 14.5109 12.9913 14.5135C12.9894 14.5166 12.9769 14.5374 12.9594 14.5865C12.9394 14.6426 12.9173 14.7231 12.8957 14.8351C12.852 15.0617 12.8189 15.373 12.7961 15.7929C12.7503 16.6341 12.75 17.8083 12.75 19.4167V20.9914C12.75 26.1665 16.6199 28.7135 19.1988 29.84C19.5703 30.0023 19.7848 30.0941 20.0236 30.1552C20.2517 30.2136 20.53 30.25 21 30.25C21.47 30.25 21.7483 30.2136 21.9764 30.1552C22.2152 30.0941 22.4297 30.0023 22.8012 29.84C25.3801 28.7135 29.25 26.1665 29.25 20.9914V19.4167C29.25 17.8083 29.2497 16.6341 29.2039 15.7929C29.1811 15.373 29.148 15.0617 29.1043 14.8351C29.0827 14.7231 29.0606 14.6426 29.0406 14.5865C29.0231 14.5374 29.0106 14.5166 29.0087 14.5135C29.0066 14.5109 28.9922 14.4935 28.9543 14.4627C28.9097 14.4264 28.8428 14.3799 28.7457 14.3235C28.5491 14.2093 28.269 14.0777 27.8824 13.9207C27.1079 13.606 26.0048 13.2281 24.4922 12.7104L23.9194 12.5143C22.3049 11.9616 21.6577 11.75 21 11.75ZM17.7234 11.0511C19.1673 10.5566 20.0625 10.25 21 10.25C21.9375 10.25 22.8327 10.5566 24.2766 11.0511C24.319 11.0656 24.3618 11.0803 24.4052 11.0951L25.004 11.3001C26.4854 11.8072 27.6286 12.1985 28.447 12.531C28.8592 12.6985 29.2136 12.8607 29.499 13.0264C29.7737 13.1859 30.0492 13.3848 30.2364 13.6515C30.4214 13.9152 30.5171 14.2392 30.5772 14.5512C30.6397 14.8756 30.6774 15.2646 30.7017 15.7114C30.75 16.5984 30.75 17.8136 30.75 19.3898V20.9914C30.75 27.0924 26.142 30.0175 23.4017 31.2146L23.3746 31.2264C23.0348 31.3749 22.7154 31.5144 22.3484 31.6084C21.9609 31.7076 21.5493 31.75 21 31.75C20.4507 31.75 20.0391 31.7076 19.6516 31.6084C19.2846 31.5144 18.9652 31.3749 18.6254 31.2264L18.5983 31.2146C15.858 30.0175 11.25 27.0924 11.25 20.9914V19.3899C11.25 17.8136 11.25 16.5984 11.2983 15.7114C11.3226 15.2646 11.3603 14.8756 11.4228 14.5512C11.4829 14.2392 11.5786 13.9152 11.7636 13.6515C11.9508 13.3848 12.2263 13.1859 12.501 13.0264C12.7864 12.8607 13.1408 12.6985 13.553 12.531C14.3714 12.1985 15.5146 11.8072 16.996 11.3001L17.5948 11.0951C17.6382 11.0803 17.681 11.0656 17.7234 11.0511ZM21 16.9005C20.8811 17.077 20.7345 17.3372 20.5164 17.7285L20.3853 17.9637C20.3755 17.9811 20.3655 17.9994 20.3551 18.0183C20.2465 18.2156 20.099 18.4836 19.8555 18.6685C19.6074 18.8568 19.3082 18.9227 19.0944 18.9697C19.0741 18.9742 19.0545 18.9785 19.0359 18.9827L18.7813 19.0403C18.3162 19.1456 18.0263 19.2129 17.8315 19.281C17.9519 19.462 18.1541 19.701 18.482 20.0845L18.6556 20.2874C18.6683 20.3024 18.6816 20.3178 18.6954 20.3337C18.8431 20.5047 19.0397 20.7322 19.1305 21.0244C19.2204 21.3135 19.19 21.6126 19.1667 21.8412C19.1645 21.8626 19.1624 21.8833 19.1605 21.9034L19.1343 22.1741C19.0874 22.6577 19.0585 22.9706 19.0593 23.1919C19.2516 23.1238 19.5148 23.0042 19.9166 22.8192L20.1549 22.7095C20.1725 22.7014 20.1908 22.6928 20.21 22.6839C20.4078 22.5913 20.6885 22.4599 21 22.4599C21.3115 22.4599 21.5922 22.5913 21.79 22.6839C21.8092 22.6928 21.8275 22.7014 21.8451 22.7095L22.0834 22.8192C22.4852 23.0042 22.7484 23.1238 22.9407 23.1919C22.9415 22.9706 22.9126 22.6577 22.8657 22.1741L22.8395 21.9034C22.8376 21.8833 22.8354 21.8626 22.8333 21.8412C22.81 21.6126 22.7796 21.3135 22.8695 21.0244C22.9603 20.7322 23.1569 20.5047 23.3046 20.3337C23.3184 20.3178 23.3317 20.3024 23.3444 20.2874L23.518 20.0845C23.8459 19.701 24.0481 19.462 24.1685 19.281C23.9737 19.2129 23.6838 19.1456 23.2187 19.0403L22.9641 18.9827C22.9455 18.9785 22.9259 18.9742 22.9056 18.9697C22.6918 18.9227 22.3926 18.8568 22.1445 18.6685C21.901 18.4836 21.7535 18.2156 21.6449 18.0183C21.6345 17.9994 21.6245 17.9811 21.6147 17.9637L21.4836 17.7285C21.2655 17.3372 21.1189 17.077 21 16.9005ZM23.1529 23.2502C23.1541 23.2502 23.1546 23.2503 23.1547 23.2503L23.1529 23.2502ZM18.8453 23.2503C18.8453 23.2503 18.8459 23.2502 18.8471 23.2502L18.8453 23.2503ZM19.8831 15.8848C20.0988 15.6032 20.451 15.25 21 15.25C21.549 15.25 21.9012 15.6032 22.1169 15.8848C22.3245 16.156 22.5371 16.5375 22.7683 16.9524C22.7768 16.9676 22.7853 16.9829 22.7938 16.9982L22.9249 17.2333C22.9617 17.2993 22.9902 17.3504 23.0155 17.3941C23.0324 17.4235 23.0458 17.4457 23.0565 17.4629C23.0733 17.4675 23.0946 17.473 23.1219 17.4797C23.1689 17.4911 23.2235 17.5035 23.2952 17.5197L23.5497 17.5773C23.567 17.5812 23.5844 17.5851 23.6016 17.589C24.0485 17.6901 24.4657 17.7844 24.7807 17.9085C25.1219 18.043 25.5343 18.2854 25.6932 18.7964C25.8495 19.2992 25.6571 19.7332 25.4626 20.0421C25.2799 20.3323 24.9979 20.662 24.6916 21.0201C24.6804 21.0332 24.6692 21.0463 24.658 21.0594L24.4844 21.2623C24.4357 21.3193 24.3981 21.3633 24.3662 21.4018C24.3401 21.4334 24.322 21.4562 24.309 21.4734C24.3107 21.5291 24.3179 21.6075 24.3325 21.7587L24.3637 22.0803C24.4102 22.5596 24.4526 22.997 24.4373 23.3415C24.4213 23.6994 24.3369 24.1785 23.9114 24.5015C23.4737 24.8337 22.9847 24.7689 22.6378 24.6695C22.3132 24.5765 21.9231 24.3969 21.5049 24.2042C21.4886 24.1967 21.4724 24.1892 21.4561 24.1817L21.2177 24.072C21.1507 24.0411 21.0994 24.0175 21.0548 23.9979C21.0329 23.9882 21.0149 23.9805 21 23.9744C20.9851 23.9805 20.9671 23.9882 20.9452 23.9979C20.9006 24.0175 20.8493 24.0411 20.7823 24.072L20.5439 24.1817C20.5276 24.1892 20.5114 24.1967 20.4951 24.2042C20.0769 24.3969 19.6868 24.5765 19.3622 24.6695C19.0153 24.7689 18.5263 24.8337 18.0886 24.5015C17.6631 24.1785 17.5787 23.6994 17.5627 23.3415C17.5474 22.997 17.5898 22.5596 17.6363 22.0804C17.638 22.0634 17.6396 22.0465 17.6413 22.0294L17.6675 21.7587C17.6821 21.6075 17.6893 21.5291 17.691 21.4734C17.678 21.4562 17.6599 21.4334 17.6338 21.4018C17.6019 21.3633 17.5643 21.3193 17.5156 21.2623L17.342 21.0594C17.3308 21.0463 17.3196 21.0332 17.3084 21.0201C17.0021 20.662 16.7201 20.3323 16.5374 20.0421C16.3429 19.7332 16.1504 19.2992 16.3068 18.7964C16.4657 18.2854 16.8781 18.043 17.2193 17.9085C17.5343 17.7844 17.9515 17.6901 18.3984 17.589C18.4156 17.5851 18.4329 17.5812 18.4503 17.5773L18.7048 17.5197C18.7765 17.5035 18.8311 17.4911 18.8781 17.4797C18.9054 17.473 18.9267 17.4675 18.9435 17.4629C18.9542 17.4457 18.9676 17.4235 18.9845 17.3941C19.0098 17.3504 19.0383 17.2993 19.0751 17.2333L19.2062 16.9982C19.2147 16.9829 19.2232 16.9676 19.2317 16.9524C19.4629 16.5375 19.6755 16.156 19.8831 15.8848Z" fill="#8B5CF6"/>
</svg>
