<svg width="18" height="18" viewBox="0 0 18 18" fill="none" xmlns="http://www.w3.org/2000/svg">
<rect width="18" height="18" rx="9" fill="#FB2C36" fill-opacity="0.1"/>
<path fill-rule="evenodd" clip-rule="evenodd" d="M4.625 8.07165C4.625 5.62214 6.57751 3.62501 9 3.62501C11.4225 3.62501 13.375 5.62214 13.375 8.07165C13.375 9.2542 13.038 10.524 12.4422 11.6209C11.8472 12.7166 10.9778 13.6686 9.89026 14.177C9.32528 14.441 8.67472 14.441 8.10974 14.177C7.02219 13.6686 6.15281 12.7166 5.55778 11.6209C4.96201 10.524 4.625 9.2542 4.625 8.07165ZM9 4.37501C7.00422 4.37501 5.375 6.02375 5.375 8.07165C5.375 9.12019 5.67632 10.2677 6.21685 11.263C6.75812 12.2596 7.52301 13.0748 8.42732 13.4975C8.79103 13.6675 9.20897 13.6675 9.57268 13.4975C10.477 13.0748 11.2419 12.2596 11.7831 11.263C12.3237 10.2677 12.625 9.12019 12.625 8.07165C12.625 6.02375 10.9958 4.37501 9 4.37501ZM9 6.87501C8.37868 6.87501 7.875 7.37869 7.875 8.00001C7.875 8.62133 8.37868 9.12501 9 9.12501C9.62132 9.12501 10.125 8.62133 10.125 8.00001C10.125 7.37869 9.62132 6.87501 9 6.87501ZM7.125 8.00001C7.125 6.96447 7.96447 6.12501 9 6.12501C10.0355 6.12501 10.875 6.96447 10.875 8.00001C10.875 9.03554 10.0355 9.87501 9 9.87501C7.96447 9.87501 7.125 9.03554 7.125 8.00001Z" fill="#FB2C36"/>
</svg>
