<svg width="18" height="18" viewBox="0 0 18 18" fill="none" xmlns="http://www.w3.org/2000/svg">
<path fill-rule="evenodd" clip-rule="evenodd" d="M9.00051 2.06261C5.16883 2.06261 2.06264 5.1688 2.06264 9.00048C2.06264 12.8322 5.16883 15.9384 9.00051 15.9384C12.8322 15.9384 15.9384 12.8322 15.9384 9.00048C15.9384 5.1688 12.8322 2.06261 9.00051 2.06261ZM0.937576 9.00048C0.937576 4.54745 4.54748 0.937546 9.00051 0.937546C13.4536 0.937546 17.0634 4.54745 17.0634 9.00048C17.0634 13.4535 13.4536 17.0634 9.00051 17.0634C4.54748 17.0634 0.937576 13.4535 0.937576 9.00048ZM10.3873 6.88631C9.93354 7.0066 9.32209 7.25008 8.44124 7.60242C8.03514 7.76486 7.95957 7.80314 7.90397 7.85189C7.88551 7.86809 7.86812 7.88548 7.85192 7.90394C7.80317 7.95954 7.76489 8.03511 7.60245 8.4412C7.25011 9.32206 7.00663 9.93351 6.88634 10.3873C6.76108 10.8597 6.82247 10.9805 6.84219 11.0095C6.88204 11.0682 6.93263 11.1188 6.99129 11.1586C7.0203 11.1783 7.14108 11.2397 7.61355 11.1145C8.06731 10.9942 8.67876 10.7507 9.55961 10.3984C9.9657 10.2359 10.0413 10.1976 10.0969 10.1489L10.4678 10.5718L10.0969 10.1489C10.1153 10.1327 10.1327 10.1153 10.1489 10.0968L10.5719 10.4677L10.1489 10.0968C10.1977 10.0412 10.236 9.96567 10.3984 9.55958C10.7507 8.67873 10.9942 8.06728 11.1145 7.61352C11.2398 7.14105 11.1784 7.02027 11.1587 6.99126C11.1188 6.9326 11.0682 6.88201 11.0096 6.84215C10.9805 6.82244 10.8598 6.76105 10.3873 6.88631ZM10.099 5.79881C10.6164 5.66164 11.1761 5.59512 11.6419 5.91161C11.8179 6.03119 11.9696 6.18295 12.0892 6.35892C12.4057 6.82467 12.3392 7.38439 12.202 7.90182C12.062 8.43003 11.7918 9.10549 11.4581 9.93967L11.443 9.97742C11.4345 9.99855 11.4262 10.0195 11.4179 10.0403C11.2955 10.3474 11.1872 10.6192 10.9948 10.8386C10.9462 10.894 10.8941 10.9462 10.8387 10.9948C10.6192 11.1872 10.3475 11.2955 10.0404 11.4178C10.0196 11.4261 9.99858 11.4345 9.97745 11.443L9.76853 10.9207L9.97745 11.443L9.93971 11.458C9.10553 11.7917 8.43006 12.0619 7.90185 12.202C7.38442 12.3391 6.8247 12.4057 6.35895 12.0892L6.67512 11.6239L6.35895 12.0892C6.18298 11.9696 6.03122 11.8178 5.91164 11.6419C5.59515 11.1761 5.66167 10.6164 5.79885 10.099C5.93888 9.57076 6.20908 8.89529 6.54277 8.06111L6.55786 8.02337C6.56631 8.00224 6.57467 7.98126 6.58296 7.96045C6.70533 7.65334 6.81361 7.3816 7.00604 7.16216C7.05462 7.10676 7.10679 7.05459 7.16219 7.00601C7.38163 6.81358 7.65338 6.7053 7.96048 6.58293C7.9813 6.57464 8.00227 6.56628 8.0234 6.55783L8.06115 6.54273C8.89532 6.20904 9.57079 5.93885 10.099 5.79881Z" fill="white"/>
</svg>
