<svg width="44" height="44" viewBox="0 0 44 44" fill="none" xmlns="http://www.w3.org/2000/svg">
<path d="M0 21.9977C0 9.84872 9.85098 0 22 0C34.149 0 44 9.84872 44 21.9977C44 34.1468 34.149 43.9955 22 43.9955C9.85098 43.9955 0 34.1468 0 21.9977Z" fill="#8B5CF6"/>
<path fill-rule="evenodd" clip-rule="evenodd" d="M22 11.2478C22.4142 11.2478 22.75 11.5836 22.75 11.9978V13.2795C26.9842 13.6389 30.3589 17.0136 30.7183 21.2478H32C32.4142 21.2478 32.75 21.5836 32.75 21.9978C32.75 22.412 32.4142 22.7478 32 22.7478H30.7183C30.3589 26.982 26.9842 30.3567 22.75 30.7161V31.9978C22.75 32.412 22.4142 32.7478 22 32.7478C21.5858 32.7478 21.25 32.412 21.25 31.9978V30.7161C17.0158 30.3567 13.6411 26.982 13.2817 22.7478H12C11.5858 22.7478 11.25 22.412 11.25 21.9978C11.25 21.5836 11.5858 21.2478 12 21.2478H13.2817C13.6411 17.0136 17.0158 13.6389 21.25 13.2795V11.9978C21.25 11.5836 21.5858 11.2478 22 11.2478ZM22 14.7478C17.9959 14.7478 14.75 17.9937 14.75 21.9978C14.75 26.0019 17.9959 29.2478 22 29.2478C26.0041 29.2478 29.25 26.0019 29.25 21.9978C29.25 17.9937 26.0041 14.7478 22 14.7478ZM22 19.7478C20.7574 19.7478 19.75 20.7552 19.75 21.9978C19.75 23.2404 20.7574 24.2478 22 24.2478C23.2426 24.2478 24.25 23.2404 24.25 21.9978C24.25 20.7552 23.2426 19.7478 22 19.7478ZM18.25 21.9978C18.25 19.9267 19.9289 18.2478 22 18.2478C24.0711 18.2478 25.75 19.9267 25.75 21.9978C25.75 24.0689 24.0711 25.7478 22 25.7478C19.9289 25.7478 18.25 24.0689 18.25 21.9978Z" fill="white"/>
</svg>
