<svg width="48" height="48" viewBox="0 0 48 48" fill="none" xmlns="http://www.w3.org/2000/svg">
<path d="M0 16C0 7.16345 7.16344 0 16 0H31.9981C40.8346 0 47.9981 7.16344 47.9981 16V31.9981C47.9981 40.8346 40.8346 47.9981 31.9981 47.9981H16C7.16345 47.9981 0 40.8346 0 31.9981V16Z" fill="url(#paint0_linear_25_656)"/>
<path fill-rule="evenodd" clip-rule="evenodd" d="M23.999 14.749C18.8904 14.749 14.749 18.8904 14.749 23.999C14.749 29.1077 18.8904 33.249 23.999 33.249C29.1077 33.249 33.249 29.1077 33.249 23.999C33.249 18.8904 29.1077 14.749 23.999 14.749ZM13.249 23.999C13.249 18.062 18.062 13.249 23.999 13.249C29.9361 13.249 34.749 18.062 34.749 23.999C34.749 29.9361 29.9361 34.749 23.999 34.749C18.062 34.749 13.249 29.9361 13.249 23.999ZM23.999 19.249C24.4132 19.249 24.749 19.5848 24.749 19.999V23.6884L27.0294 25.9687C27.3222 26.2616 27.3222 26.7365 27.0294 27.0294C26.7365 27.3222 26.2616 27.3222 25.9687 27.0294L23.4687 24.5294C23.328 24.3887 23.249 24.1979 23.249 23.999V19.999C23.249 19.5848 23.5848 19.249 23.999 19.249Z" fill="white"/>
<defs>
<linearGradient id="paint0_linear_25_656" x1="23.999" y1="0" x2="23.999" y2="47.9981" gradientUnits="userSpaceOnUse">
<stop stop-color="#8B5CF6"/>
<stop offset="1" stop-color="#6D3ED6"/>
</linearGradient>
</defs>
</svg>
