<svg width="40" height="40" viewBox="0 0 40 40" fill="none" xmlns="http://www.w3.org/2000/svg">
<rect width="40" height="40" rx="12" fill="#CCCCCC"/>
<path fill-rule="evenodd" clip-rule="evenodd" d="M20 10.75C14.8914 10.75 10.75 14.8914 10.75 20C10.75 25.1086 14.8914 29.25 20 29.25C25.1086 29.25 29.25 25.1086 29.25 20C29.25 14.8914 25.1086 10.75 20 10.75ZM9.25 20C9.25 14.0629 14.0629 9.25 20 9.25C25.9371 9.25 30.75 14.0629 30.75 20C30.75 25.9371 25.9371 30.75 20 30.75C14.0629 30.75 9.25 25.9371 9.25 20ZM20 15.25C20.4142 15.25 20.75 15.5858 20.75 16V19.6893L23.0303 21.9697C23.3232 22.2626 23.3232 22.7374 23.0303 23.0303C22.7374 23.3232 22.2626 23.3232 21.9697 23.0303L19.4697 20.5303C19.329 20.3897 19.25 20.1989 19.25 20V16C19.25 15.5858 19.5858 15.25 20 15.25Z" fill="white"/>
</svg>
