<svg width="18" height="18" viewBox="0 0 18 18" fill="none" xmlns="http://www.w3.org/2000/svg">
<g clip-path="url(#clip0_3_67127)">
<path fill-rule="evenodd" clip-rule="evenodd" d="M9.00048 2.06261C5.1688 2.06261 2.06261 5.1688 2.06261 9.00048C2.06261 12.8322 5.1688 15.9384 9.00048 15.9384C12.8322 15.9384 15.9384 12.8322 15.9384 9.00048C15.9384 5.1688 12.8322 2.06261 9.00048 2.06261ZM0.937546 9.00048C0.937546 4.54745 4.54745 0.937546 9.00048 0.937546C13.4535 0.937546 17.0634 4.54745 17.0634 9.00048C17.0634 13.4535 13.4535 17.0634 9.00048 17.0634C4.54745 17.0634 0.937546 13.4535 0.937546 9.00048ZM9.00048 5.43779C9.31116 5.43779 9.56301 5.68964 9.56301 6.00032V8.76748L11.2734 10.4778C11.493 10.6975 11.493 11.0537 11.2734 11.2734C11.0537 11.493 10.6975 11.493 10.4778 11.2734L8.60271 9.39825C8.49722 9.29276 8.43795 9.14968 8.43795 9.00048V6.00032C8.43795 5.68964 8.68981 5.43779 9.00048 5.43779Z" fill="white"/>
</g>
<defs>
<clipPath id="clip0_3_67127">
<rect width="18.001" height="18.001" fill="white"/>
</clipPath>
</defs>
</svg>
