<svg width="32" height="32" viewBox="0 0 32 32" fill="none" xmlns="http://www.w3.org/2000/svg">
<path d="M0 16C0 7.16344 7.16344 0 16 0C24.8366 0 32 7.16344 32 16C32 24.8366 24.8366 32 16 32C7.16344 32 0 24.8366 0 16Z" fill="#8B5CF6"/>
<path d="M15.9886 23.2778C14.9436 23.2778 13.9646 23.0801 13.0515 22.6846C12.1385 22.2939 11.3352 21.752 10.6419 21.0586C9.94852 20.3652 9.40408 19.562 9.00858 18.6489C8.61795 17.7358 8.42264 16.7568 8.42264 15.7119C8.42264 14.667 8.61795 13.688 9.00858 12.7749C9.40408 11.8569 9.94852 11.0537 10.6419 10.3652C11.3352 9.67188 12.1385 9.12988 13.0515 8.73926C13.9646 8.34375 14.9436 8.146 15.9886 8.146C17.0335 8.146 18.0125 8.34375 18.9256 8.73926C19.8435 9.12988 20.6492 9.67188 21.3426 10.3652C22.0359 11.0537 22.5779 11.8569 22.9685 12.7749C23.364 13.688 23.5618 14.667 23.5618 15.7119C23.5618 16.7568 23.364 17.7358 22.9685 18.6489C22.5779 19.562 22.0359 20.3652 21.3426 21.0586C20.6492 21.752 19.8435 22.2939 18.9256 22.6846C18.0125 23.0801 17.0335 23.2778 15.9886 23.2778Z" fill="white"/>
</svg>
