<svg width="64" height="64" viewBox="0 0 64 64" fill="none" xmlns="http://www.w3.org/2000/svg">
<path d="M0 32C0 14.3269 14.3269 0 32 0C49.6731 0 64 14.3269 64 32C64 49.6731 49.6731 64 32 64C14.3269 64 0 49.6731 0 32Z" fill="#8B5CF6"/>
<path fill-rule="evenodd" clip-rule="evenodd" d="M31.996 19.458C28.9354 19.458 26.4543 21.9391 26.4543 24.9997C26.4543 28.0603 28.9354 30.5413 31.996 30.5413C35.0565 30.5413 37.5376 28.0603 37.5376 24.9997C37.5376 21.9391 35.0565 19.458 31.996 19.458ZM28.2043 24.9997C28.2043 22.9056 29.9019 21.208 31.996 21.208C34.09 21.208 35.7876 22.9056 35.7876 24.9997C35.7876 27.0938 34.09 28.7913 31.996 28.7913C29.9019 28.7913 28.2043 27.0938 28.2043 24.9997Z" fill="white"/>
<path fill-rule="evenodd" clip-rule="evenodd" d="M31.996 32.2913C29.2968 32.2913 26.81 32.9049 24.9673 33.9414C23.152 34.9625 21.7876 36.5101 21.7876 38.4163L21.7876 38.5353C21.7862 39.8908 21.7846 41.592 23.2768 42.8071C24.0112 43.4052 25.0385 43.8304 26.4265 44.1114C27.8184 44.3931 29.6326 44.5413 31.996 44.5413C34.3594 44.5413 36.1735 44.3931 37.5654 44.1114C38.9534 43.8304 39.9808 43.4052 40.7152 42.8071C42.2073 41.592 42.2057 39.8908 42.2044 38.5353L42.2043 38.4163C42.2043 36.5101 40.8399 34.9625 39.0246 33.9414C37.1819 32.9049 34.6951 32.2913 31.996 32.2913ZM23.5376 38.4163C23.5376 37.4231 24.2626 36.3457 25.8253 35.4667C27.3606 34.6031 29.5405 34.0413 31.996 34.0413C34.4515 34.0413 36.6314 34.6031 38.1667 35.4667C39.7294 36.3457 40.4543 37.4231 40.4543 38.4163C40.4543 39.9421 40.4073 40.801 39.6101 41.4502C39.1778 41.8022 38.4552 42.1458 37.2182 42.3962C35.9851 42.6458 34.2992 42.7913 31.996 42.7913C29.6927 42.7913 28.0068 42.6458 26.7737 42.3962C25.5367 42.1458 24.8141 41.8022 24.3818 41.4502C23.5847 40.801 23.5376 39.9421 23.5376 38.4163Z" fill="white"/>
</svg>
