<svg width="26" height="26" viewBox="0 0 26 26" fill="none" xmlns="http://www.w3.org/2000/svg">
<path fill-rule="evenodd" clip-rule="evenodd" d="M13 2.979C7.46561 2.979 2.97913 7.46548 2.97913 12.9998C2.97913 18.5342 7.46561 23.0207 13 23.0207C18.5343 23.0207 23.0208 18.5342 23.0208 12.9998C23.0208 7.46548 18.5343 2.979 13 2.979ZM1.35413 12.9998C1.35413 6.56802 6.56814 1.354 13 1.354C19.4318 1.354 24.6458 6.56802 24.6458 12.9998C24.6458 19.4317 19.4318 24.6457 13 24.6457C6.56814 24.6457 1.35413 19.4317 1.35413 12.9998ZM12.0916 6.77064C12.1055 6.77065 12.1195 6.77067 12.1333 6.77067H14.625C16.5695 6.77067 18.1458 8.347 18.1458 10.2915C18.1458 12.236 16.5695 13.8123 14.625 13.8123H11.6458V14.354H13C13.4487 14.354 13.8125 14.7178 13.8125 15.1665C13.8125 15.6152 13.4487 15.979 13 15.979H11.6458V18.4165C11.6458 18.8652 11.282 19.229 10.8333 19.229C10.3846 19.229 10.0208 18.8652 10.0208 18.4165V15.979H9.74996C9.30123 15.979 8.93746 15.6152 8.93746 15.1665C8.93746 14.7178 9.30123 14.354 9.74996 14.354H10.0208V13.8123H9.74996C9.30123 13.8123 8.93746 13.4486 8.93746 12.9998C8.93746 12.5511 9.30123 12.1873 9.74996 12.1873H10.0208V8.88317C10.0208 8.86933 10.0208 8.85543 10.0208 8.84148C10.0206 8.68382 10.0204 8.51994 10.0441 8.36993C10.1726 7.55872 10.8088 6.9225 11.6201 6.79401C11.7701 6.77025 11.9339 6.77045 12.0916 6.77064ZM11.6458 12.1873H14.625C15.672 12.1873 16.5208 11.3385 16.5208 10.2915C16.5208 9.24447 15.672 8.39567 14.625 8.39567H12.1333C12.0282 8.39567 11.9657 8.39574 11.9186 8.39703C11.8886 8.39785 11.8756 8.39898 11.8725 8.39929C11.758 8.41818 11.6683 8.50792 11.6494 8.62241C11.6491 8.62552 11.648 8.63851 11.6472 8.66846C11.6459 8.71559 11.6458 8.77813 11.6458 8.88317V12.1873Z" fill="#8B5CF6"/>
</svg>
