<svg width="44" height="44" viewBox="0 0 44 44" fill="none" xmlns="http://www.w3.org/2000/svg">
<rect width="44" height="44" rx="22" fill="#F2F2F2"/>
<rect x="0.5" y="0.5" width="43" height="43" rx="21.5" stroke="black" stroke-opacity="0.1"/>
<path fill-rule="evenodd" clip-rule="evenodd" d="M27.1198 15.0258C26.1448 15.1992 24.8303 15.6356 22.9856 16.2505L18.8096 17.6425C17.3262 18.137 16.2518 18.4957 15.4929 18.8184C14.6995 19.1559 14.4173 19.3911 14.3256 19.5487C14.0433 20.0344 14.0433 20.6342 14.3256 21.1199C14.4173 21.2775 14.6995 21.5128 15.4929 21.8502C16.2518 22.173 17.3262 22.5316 18.8096 23.0261C18.833 23.0339 18.8561 23.0416 18.8789 23.0492C19.1953 23.1544 19.4567 23.2414 19.685 23.3608L24.1212 18.9735C24.3726 18.7249 24.778 18.7271 25.0266 18.9785C25.2753 19.2299 25.273 19.6353 25.0216 19.884L20.605 24.2519C20.7427 24.4951 20.8359 24.7753 20.9509 25.1212C20.9585 25.144 20.9662 25.1671 20.974 25.1906C21.4685 26.6739 21.8272 27.7483 22.1499 28.5072C22.4874 29.3006 22.7226 29.5828 22.8803 29.6745C23.3659 29.9568 23.9657 29.9568 24.4514 29.6745C24.609 29.5828 24.8443 29.3006 25.1817 28.5072C25.5045 27.7483 25.8631 26.6739 26.3576 25.1906L27.7496 21.0145C28.3645 19.1698 28.8009 17.8553 28.9743 16.8803C29.1486 15.9007 29.0154 15.4846 28.7655 15.2346C28.5155 14.9847 28.0994 14.8515 27.1198 15.0258ZM26.8955 13.7651C27.9807 13.572 28.958 13.6163 29.6709 14.3292C30.3839 15.0421 30.4281 16.0194 30.2351 17.1046C30.0432 18.1832 29.5753 19.5869 28.9829 21.364L27.5621 25.6263C27.0801 27.0725 26.7055 28.1962 26.3601 29.0084C26.0269 29.7918 25.6569 30.4548 25.0949 30.7815C24.2114 31.2952 23.1202 31.2952 22.2367 30.7815C21.6747 30.4548 21.3048 29.7918 20.9716 29.0084C20.6261 28.1962 20.2516 27.0725 19.7695 25.6263L19.7592 25.5955C19.5904 25.0889 19.5389 24.9514 19.4659 24.8425C19.3843 24.7205 19.2796 24.6158 19.1577 24.5342C19.0487 24.4612 18.9113 24.4098 18.4046 24.2409L18.3738 24.2306C16.9276 23.7485 15.8039 23.374 14.9917 23.0286C14.2083 22.6954 13.5453 22.3254 13.2186 21.7634C12.705 20.8799 12.705 19.7887 13.2186 18.9052C13.5453 18.3432 14.2083 17.9733 14.9917 17.6401C15.8039 17.2946 16.9276 16.9201 18.3738 16.438L22.6362 15.0172C24.4133 14.4248 25.8169 13.9569 26.8955 13.7651Z" fill="black" fill-opacity="0.5"/>
</svg>
