<svg width="20" height="20" viewBox="0 0 20 20" fill="none" xmlns="http://www.w3.org/2000/svg">
<path fill-rule="evenodd" clip-rule="evenodd" d="M4.7772 1.70249C5.79164 0.693809 7.46195 0.873354 8.31138 2.00801L9.36221 3.41168C10.0534 4.33491 9.99238 5.62525 9.17195 6.44102L8.97298 6.63886C8.96429 6.66411 8.94321 6.74345 8.96661 6.89424C9.01929 7.23382 9.30286 7.95416 10.4933 9.13784C11.6833 10.3211 12.4088 10.6044 12.7531 10.6572C12.9092 10.6811 12.9909 10.6588 13.0161 10.65L13.3561 10.3119C14.0855 9.58674 15.2062 9.45118 16.1092 9.94207L17.7013 10.8075C19.0646 11.5486 19.409 13.4017 18.2921 14.5123L17.1083 15.6894C16.7353 16.0603 16.2337 16.3695 15.6216 16.4266C14.1141 16.5671 10.5989 16.3878 6.90546 12.7153C3.4572 9.28665 2.79548 6.29666 2.71175 4.82347L3.33575 4.78801L2.71175 4.82347C2.66942 4.07854 3.02143 3.44829 3.4692 3.00307L4.7772 1.70249ZM7.31072 2.75713C6.88853 2.19317 6.10163 2.14833 5.65856 2.58889L4.35056 3.88946C4.07563 4.16284 3.94335 4.46411 3.95974 4.75254C4.02626 5.92304 4.56068 8.62111 7.78682 11.8289C11.1714 15.1943 14.2973 15.2946 15.5056 15.182C15.7524 15.159 15.9979 15.0307 16.2269 14.803L17.4107 13.6259C17.8919 13.1475 17.7858 12.2762 17.1043 11.9058L15.5122 11.0403C15.0726 10.8013 14.5575 10.8801 14.2375 11.1983L13.858 11.5757L13.4173 11.1325C13.858 11.5757 13.8574 11.5763 13.8568 11.5769L13.8555 11.5781L13.853 11.5806L13.8476 11.5858L13.8354 11.5972C13.8266 11.6051 13.8166 11.6139 13.8053 11.6233C13.7826 11.642 13.7548 11.6633 13.7215 11.6855C13.6548 11.7302 13.5667 11.7789 13.456 11.8201C13.2303 11.9042 12.9326 11.9493 12.5636 11.8927C11.8413 11.782 10.8844 11.2895 9.61193 10.0242C8.33986 8.75938 7.84325 7.80694 7.73138 7.08587C7.67418 6.71716 7.71981 6.41941 7.80491 6.19353C7.84662 6.08283 7.89577 5.99481 7.94088 5.92823C7.96338 5.89503 7.98479 5.86727 8.00368 5.84473C8.01313 5.83345 8.02196 5.82347 8.02999 5.81474L8.04144 5.80259L8.04668 5.7972L8.04917 5.79468L8.05039 5.79347C8.05098 5.79287 8.05158 5.79228 8.49226 6.23548L8.05158 5.79228L8.29059 5.55462C8.64776 5.19948 8.69779 4.60994 8.36155 4.1608L7.31072 2.75713Z" fill="black" fill-opacity="0.5"/>
</svg>
