<svg width="40" height="40" viewBox="0 0 40 40" fill="none" xmlns="http://www.w3.org/2000/svg">
<rect width="40" height="40" rx="12" fill="#CCCCCC"/>
<path fill-rule="evenodd" clip-rule="evenodd" d="M20 10.75C14.8914 10.75 10.75 14.8914 10.75 20C10.75 25.1086 14.8914 29.25 20 29.25C25.1086 29.25 29.25 25.1086 29.25 20C29.25 14.8914 25.1086 10.75 20 10.75ZM9.25 20C9.25 14.0629 14.0629 9.25 20 9.25C25.9371 9.25 30.75 14.0629 30.75 20C30.75 25.9371 25.9371 30.75 20 30.75C14.0629 30.75 9.25 25.9371 9.25 20ZM19.1615 14.25C19.1744 14.25 19.1872 14.25 19.2 14.25H21.5C23.2949 14.25 24.75 15.7051 24.75 17.5C24.75 19.2949 23.2949 20.75 21.5 20.75H18.75V21.25H20C20.4142 21.25 20.75 21.5858 20.75 22C20.75 22.4142 20.4142 22.75 20 22.75H18.75V25C18.75 25.4142 18.4142 25.75 18 25.75C17.5858 25.75 17.25 25.4142 17.25 25V22.75H17C16.5858 22.75 16.25 22.4142 16.25 22C16.25 21.5858 16.5858 21.25 17 21.25H17.25V20.75H17C16.5858 20.75 16.25 20.4142 16.25 20C16.25 19.5858 16.5858 19.25 17 19.25H17.25V16.2C17.25 16.1872 17.25 16.1744 17.25 16.1615C17.2498 16.016 17.2496 15.8647 17.2715 15.7262C17.3901 14.9774 17.9774 14.3901 18.7262 14.2715C18.8647 14.2496 19.016 14.2498 19.1615 14.25ZM18.75 19.25H21.5C22.4665 19.25 23.25 18.4665 23.25 17.5C23.25 16.5335 22.4665 15.75 21.5 15.75H19.2C19.103 15.75 19.0453 15.7501 19.0018 15.7513C18.9742 15.752 18.9622 15.7531 18.9593 15.7533C18.8536 15.7708 18.7708 15.8536 18.7533 15.9593C18.7531 15.9622 18.752 15.9742 18.7513 16.0018C18.7501 16.0453 18.75 16.103 18.75 16.2V19.25Z" fill="white"/>
</svg>
