<svg width="48" height="48" viewBox="0 0 48 48" fill="none" xmlns="http://www.w3.org/2000/svg">
<path d="M0 16C0 7.16345 7.16344 0 16 0H31.9981C40.8346 0 47.9981 7.16344 47.9981 16V31.9981C47.9981 40.8346 40.8346 47.9981 31.9981 47.9981H16C7.16345 47.9981 0 40.8346 0 31.9981V16Z" fill="url(#paint0_linear_25_678)"/>
<path fill-rule="evenodd" clip-rule="evenodd" d="M23.999 14.749C18.8904 14.749 14.749 18.8904 14.749 23.999C14.749 29.1077 18.8904 33.249 23.999 33.249C29.1077 33.249 33.249 29.1077 33.249 23.999C33.249 18.8904 29.1077 14.749 23.999 14.749ZM13.249 23.999C13.249 18.062 18.062 13.249 23.999 13.249C29.9361 13.249 34.749 18.062 34.749 23.999C34.749 29.9361 29.9361 34.749 23.999 34.749C18.062 34.749 13.249 29.9361 13.249 23.999ZM23.1605 18.249C23.1734 18.249 23.1862 18.249 23.199 18.249H25.499C27.2939 18.249 28.749 19.7041 28.749 21.499C28.749 23.2939 27.2939 24.749 25.499 24.749H22.749V25.249H23.999C24.4132 25.249 24.749 25.5848 24.749 25.999C24.749 26.4132 24.4132 26.749 23.999 26.749H22.749V28.999C22.749 29.4132 22.4132 29.749 21.999 29.749C21.5848 29.749 21.249 29.4132 21.249 28.999V26.749H20.999C20.5848 26.749 20.249 26.4132 20.249 25.999C20.249 25.5848 20.5848 25.249 20.999 25.249H21.249V24.749H20.999C20.5848 24.749 20.249 24.4132 20.249 23.999C20.249 23.5848 20.5848 23.249 20.999 23.249H21.249V20.199C21.249 20.1862 21.249 20.1734 21.249 20.1605C21.2488 20.015 21.2486 19.8637 21.2706 19.7253C21.3892 18.9765 21.9764 18.3892 22.7253 18.2706C22.8637 18.2486 23.015 18.2488 23.1605 18.249ZM22.749 23.249H25.499C26.4655 23.249 27.249 22.4655 27.249 21.499C27.249 20.5325 26.4655 19.749 25.499 19.749H23.199C23.1021 19.749 23.0443 19.7491 23.0008 19.7503C22.9732 19.751 22.9612 19.7521 22.9583 19.7524C22.8526 19.7698 22.7698 19.8526 22.7524 19.9583C22.7521 19.9612 22.751 19.9732 22.7503 20.0008C22.7491 20.0443 22.749 20.1021 22.749 20.199V23.249Z" fill="white"/>
<defs>
<linearGradient id="paint0_linear_25_678" x1="23.999" y1="0" x2="23.999" y2="47.9981" gradientUnits="userSpaceOnUse">
<stop stop-color="#8B5CF6"/>
<stop offset="1" stop-color="#6D3ED6"/>
</linearGradient>
</defs>
</svg>
