<svg width="48" height="48" viewBox="0 0 48 48" fill="none" xmlns="http://www.w3.org/2000/svg">
<path d="M23.999 1.5C36.4249 1.5 46.498 11.5732 46.498 23.999C46.498 36.4249 36.4249 46.498 23.999 46.498C11.5732 46.498 1.5 36.4249 1.5 23.999C1.50001 11.5732 11.5732 1.50001 23.999 1.5Z" fill="url(#paint0_linear_76_702)"/>
<path d="M23.999 1.5C36.4249 1.5 46.498 11.5732 46.498 23.999C46.498 36.4249 36.4249 46.498 23.999 46.498C11.5732 46.498 1.5 36.4249 1.5 23.999C1.50001 11.5732 11.5732 1.50001 23.999 1.5Z" fill="#FB2C36"/>
<path d="M23.999 1.5C36.4249 1.5 46.498 11.5732 46.498 23.999C46.498 36.4249 36.4249 46.498 23.999 46.498C11.5732 46.498 1.5 36.4249 1.5 23.999C1.50001 11.5732 11.5732 1.50001 23.999 1.5Z" stroke="white" stroke-width="3"/>
<path fill-rule="evenodd" clip-rule="evenodd" d="M17.069 15.6691C18.907 13.8311 21.3998 12.7986 23.999 12.7986C26.5983 12.7986 29.0911 13.8311 30.929 15.6691C32.767 17.507 33.7995 19.9998 33.7995 22.5991C33.7995 25.1983 32.767 27.6911 30.929 29.5291L23.999 36.4591L17.069 29.5291C16.1589 28.6191 15.4369 27.5387 14.9444 26.3496C14.4518 25.1606 14.1983 23.8861 14.1983 22.5991C14.1983 21.312 14.4518 20.0376 14.9444 18.8486C15.4369 17.6595 16.1589 16.5791 17.069 15.6691ZM23.999 25.3991C24.7416 25.3991 25.4538 25.1041 25.9789 24.579C26.504 24.0539 26.799 23.3417 26.799 22.5991C26.799 21.8565 26.504 21.1443 25.9789 20.6192C25.4538 20.0941 24.7416 19.7991 23.999 19.7991C23.2564 19.7991 22.5442 20.0941 22.0191 20.6192C21.494 21.1443 21.199 21.8565 21.199 22.5991C21.199 23.3417 21.494 24.0539 22.0191 24.579C22.5442 25.1041 23.2564 25.3991 23.999 25.3991Z" fill="white"/>
<defs>
<linearGradient id="paint0_linear_76_702" x1="23.999" y1="0" x2="23.999" y2="47.9981" gradientUnits="userSpaceOnUse">
<stop stop-color="#8B5CF6"/>
<stop offset="1" stop-color="#6D3ED6"/>
</linearGradient>
</defs>
</svg>
