<svg width="26" height="26" viewBox="0 0 26 26" fill="none" xmlns="http://www.w3.org/2000/svg">
<path fill-rule="evenodd" clip-rule="evenodd" d="M9.42429 1.35416C9.4391 1.35417 9.45414 1.35417 9.46939 1.35417H16.5303C16.5456 1.35417 16.5606 1.35417 16.5754 1.35416C16.8136 1.3541 16.9962 1.35405 17.1558 1.37118C18.6228 1.52862 19.7457 2.73329 19.8138 4.19258C21.1601 4.59452 22.1026 5.87697 22.0368 7.32038C22.4684 7.51511 22.8507 7.78376 23.1777 8.15727C23.8455 8.91999 24.0494 9.85333 24.0572 10.9423C24.0648 11.9949 23.8872 13.3267 23.6659 14.9865L23.2168 18.3541C23.0438 19.6518 22.9038 20.7021 22.6861 21.5245C22.4595 22.3805 22.125 23.0903 21.4972 23.6399C20.8695 24.1895 20.1217 24.4273 19.2432 24.5388C18.3992 24.6459 17.3396 24.6459 16.0305 24.6458H9.96935C8.66019 24.6459 7.60058 24.6459 6.75659 24.5388C5.87809 24.4273 5.13035 24.1895 4.50261 23.6399C3.87486 23.0903 3.54032 22.3805 3.31371 21.5245C3.09601 20.7021 2.95599 19.6518 2.78299 18.3541L2.33398 14.9865C2.11264 13.3267 1.93506 11.9949 1.94262 10.9423C1.95043 9.85333 2.15434 8.91999 2.82211 8.15727C3.14913 7.78376 3.5314 7.51511 3.96304 7.32037C3.89725 5.87701 4.83965 4.59459 6.18588 4.19261C6.254 2.73331 7.37686 1.52862 8.84388 1.37118C9.00351 1.35405 9.18611 1.3541 9.42429 1.35416ZM7.83476 4.06251H18.165C18.0496 3.49518 17.5785 3.05087 16.9824 2.9869C16.9215 2.98036 16.8346 2.97917 16.5303 2.97917H9.46939C9.16513 2.97917 9.07824 2.98036 9.01727 2.9869C8.42122 3.05087 7.95016 3.49518 7.83476 4.06251ZM5.61257 6.89805C6.63343 6.7708 7.92957 6.77082 9.52694 6.77084H16.4729C18.0703 6.77082 19.3664 6.7708 20.3873 6.89805C20.255 6.21913 19.6573 5.68751 18.917 5.68751H7.08284C6.34253 5.68751 5.74482 6.21913 5.61257 6.89805ZM5.69284 8.52656C4.79975 8.65217 4.34804 8.88127 4.04474 9.2277C3.74144 9.57412 3.57405 10.0522 3.56757 10.954C3.56093 11.8789 3.72145 13.0972 3.95316 14.835L4.38649 18.085C4.56848 19.4499 4.69637 20.3975 4.88461 21.1087C5.06697 21.7976 5.28161 22.1621 5.57303 22.4173C5.86446 22.6724 6.25416 22.837 6.96115 22.9267C7.69093 23.0193 8.64711 23.0208 10.0241 23.0208H15.9757C17.3527 23.0208 18.3089 23.0193 19.0387 22.9267C19.7457 22.837 20.1354 22.6724 20.4268 22.4173C20.7182 22.1621 20.9329 21.7976 21.1152 21.1087C21.3035 20.3975 21.4313 19.4499 21.6133 18.085L22.0467 14.835C22.2784 13.0972 22.4389 11.8789 22.4323 10.954C22.4258 10.0522 22.2584 9.57412 21.9551 9.2277C21.6518 8.88127 21.2001 8.65217 20.307 8.52656C19.391 8.39774 18.1623 8.39584 16.4091 8.39584H9.59077C7.83753 8.39584 6.60879 8.39774 5.69284 8.52656ZM8.93741 19.5C8.93741 19.0513 9.30118 18.6875 9.74991 18.6875H16.2499C16.6986 18.6875 17.0624 19.0513 17.0624 19.5C17.0624 19.9487 16.6986 20.3125 16.2499 20.3125H9.74991C9.30118 20.3125 8.93741 19.9487 8.93741 19.5Z" fill="black" fill-opacity="0.3"/>
</svg>
