<svg width="33" height="33" viewBox="0 0 33 33" fill="none" xmlns="http://www.w3.org/2000/svg">
<rect width="33" height="33" rx="16.5" fill="#8B5CF6" fill-opacity="0.1"/>
<path fill-rule="evenodd" clip-rule="evenodd" d="M9.9375 15.1075C9.9375 11.4332 12.8663 8.4375 16.5 8.4375C20.1337 8.4375 23.0625 11.4332 23.0625 15.1075C23.0625 16.8813 22.557 18.7859 21.6633 20.4314C20.7708 22.0748 19.4667 23.5029 17.8354 24.2654C16.9879 24.6615 16.0121 24.6615 15.1646 24.2654C13.5333 23.5029 12.2292 22.0748 11.3367 20.4314C10.443 18.7859 9.9375 16.8813 9.9375 15.1075ZM16.5 9.5625C13.5063 9.5625 11.0625 12.0356 11.0625 15.1075C11.0625 16.6803 11.5145 18.4016 12.3253 19.8945C13.1372 21.3894 14.2845 22.6122 15.641 23.2462C16.1865 23.5012 16.8135 23.5012 17.359 23.2462C18.7155 22.6122 19.8628 21.3894 20.6747 19.8945C21.4855 18.4016 21.9375 16.6803 21.9375 15.1075C21.9375 12.0356 19.4937 9.5625 16.5 9.5625ZM16.5 13.3125C15.568 13.3125 14.8125 14.068 14.8125 15C14.8125 15.932 15.568 16.6875 16.5 16.6875C17.432 16.6875 18.1875 15.932 18.1875 15C18.1875 14.068 17.432 13.3125 16.5 13.3125ZM13.6875 15C13.6875 13.4467 14.9467 12.1875 16.5 12.1875C18.0533 12.1875 19.3125 13.4467 19.3125 15C19.3125 16.5533 18.0533 17.8125 16.5 17.8125C14.9467 17.8125 13.6875 16.5533 13.6875 15Z" fill="#8B5CF6"/>
</svg>
