<svg width="32" height="32" viewBox="0 0 32 32" fill="none" xmlns="http://www.w3.org/2000/svg">
<rect width="32" height="32" rx="16" fill="#FB2C36" fill-opacity="0.1"/>
<path fill-rule="evenodd" clip-rule="evenodd" d="M9.4375 14.6075C9.4375 10.9332 12.3663 7.9375 16 7.9375C19.6337 7.9375 22.5625 10.9332 22.5625 14.6075C22.5625 16.3813 22.057 18.2859 21.1633 19.9314C20.2708 21.5748 18.9667 23.0029 17.3354 23.7654C16.4879 24.1615 15.5121 24.1615 14.6646 23.7654C13.0333 23.0029 11.7292 21.5748 10.8367 19.9314C9.94302 18.2859 9.4375 16.3813 9.4375 14.6075ZM16 9.0625C13.0063 9.0625 10.5625 11.5356 10.5625 14.6075C10.5625 16.1803 11.0145 17.9016 11.8253 19.3945C12.6372 20.8894 13.7845 22.1122 15.141 22.7463C15.6865 23.0012 16.3135 23.0012 16.859 22.7463C18.2155 22.1122 19.3628 20.8894 20.1747 19.3945C20.9855 17.9016 21.4375 16.1803 21.4375 14.6075C21.4375 11.5356 18.9937 9.0625 16 9.0625ZM16 12.8125C15.068 12.8125 14.3125 13.568 14.3125 14.5C14.3125 15.432 15.068 16.1875 16 16.1875C16.932 16.1875 17.6875 15.432 17.6875 14.5C17.6875 13.568 16.932 12.8125 16 12.8125ZM13.1875 14.5C13.1875 12.9467 14.4467 11.6875 16 11.6875C17.5533 11.6875 18.8125 12.9467 18.8125 14.5C18.8125 16.0533 17.5533 17.3125 16 17.3125C14.4467 17.3125 13.1875 16.0533 13.1875 14.5Z" fill="#FB2C36"/>
</svg>
