<svg width="40" height="40" viewBox="0 0 40 40" fill="none" xmlns="http://www.w3.org/2000/svg">
<path d="M0 19.9964C0 8.95271 8.95271 0 19.9964 0C31.0402 0 39.9929 8.95271 39.9929 19.9964C39.9929 31.0402 31.0402 39.9929 19.9964 39.9929C8.95271 39.9929 0 31.0402 0 19.9964Z" fill="#00D40E" fill-opacity="0.1"/>
<path fill-rule="evenodd" clip-rule="evenodd" d="M18.1073 11.9756H21.8774C23.562 11.9756 24.8963 11.9756 25.9406 12.116C27.0153 12.2605 27.8852 12.5649 28.5712 13.2509C29.2572 13.9369 29.5616 14.8068 29.7061 15.8815C29.789 16.4983 29.823 17.2163 29.8369 18.0479C29.8432 18.0853 29.8465 18.1238 29.8465 18.1631C29.8465 18.1954 29.8443 18.2272 29.8399 18.2584C29.8465 18.7769 29.8465 19.3381 29.8465 19.9447V20.0482C29.8465 21.7328 29.8465 23.0671 29.7061 24.1114C29.5616 25.1861 29.2572 26.056 28.5712 26.742C27.8852 27.428 27.0153 27.7324 25.9406 27.8769C24.8963 28.0173 23.562 28.0173 21.8774 28.0173H18.1073C16.4227 28.0173 15.0883 28.0173 14.044 27.8769C12.9693 27.7324 12.0995 27.428 11.4135 26.742C10.7275 26.056 10.423 25.1861 10.2785 24.1114C10.1381 23.0671 10.1381 21.7328 10.1382 20.0482V19.9447C10.1381 19.3381 10.1381 18.7769 10.1447 18.2583C10.1404 18.2272 10.1382 18.1954 10.1382 18.1631C10.1382 18.1239 10.1414 18.0854 10.1478 18.0479C10.1617 17.2163 10.1956 16.4983 10.2785 15.8815C10.423 14.8068 10.7275 13.9369 11.4135 13.2509C12.0995 12.5649 12.9693 12.2605 14.044 12.116C15.0883 11.9756 16.4227 11.9756 18.1073 11.9756ZM11.515 18.8506C11.5132 19.2066 11.5132 19.5877 11.5132 19.9965C11.5132 21.7444 11.5146 22.9861 11.6413 23.9282C11.7653 24.8504 11.9978 25.3818 12.3857 25.7697C12.7737 26.1576 13.305 26.3902 14.2273 26.5142C15.1693 26.6408 16.4111 26.6423 18.159 26.6423H21.8257C23.5736 26.6423 24.8153 26.6408 25.7574 26.5142C26.6796 26.3902 27.211 26.1576 27.5989 25.7697C27.9868 25.3818 28.2194 24.8504 28.3434 23.9282C28.47 22.9861 28.4715 21.7444 28.4715 19.9965C28.4715 19.5877 28.4714 19.2066 28.4697 18.8506H11.515ZM28.4476 17.4756H11.5371C11.555 16.9378 11.5864 16.4731 11.6413 16.0647C11.7653 15.1425 11.9978 14.6111 12.3857 14.2232C12.7737 13.8353 13.305 13.6027 14.2273 13.4787C15.1693 13.3521 16.4111 13.3506 18.159 13.3506H21.8257C23.5736 13.3506 24.8153 13.3521 25.7574 13.4787C26.6796 13.6027 27.211 13.8353 27.5989 14.2232C27.9868 14.6111 28.2194 15.1425 28.3434 16.0647C28.3983 16.4731 28.4297 16.9378 28.4476 17.4756ZM13.8048 23.6631C13.8048 23.2834 14.1126 22.9756 14.4923 22.9756H18.159C18.5387 22.9756 18.8465 23.2834 18.8465 23.6631C18.8465 24.0428 18.5387 24.3506 18.159 24.3506H14.4923C14.1126 24.3506 13.8048 24.0428 13.8048 23.6631ZM19.7632 23.6631C19.7632 23.2834 20.071 22.9756 20.4507 22.9756H21.8257C22.2053 22.9756 22.5132 23.2834 22.5132 23.6631C22.5132 24.0428 22.2053 24.3506 21.8257 24.3506H20.4507C20.071 24.3506 19.7632 24.0428 19.7632 23.6631Z" fill="#00D40E"/>
</svg>
