<svg width="48" height="48" viewBox="0 0 48 48" fill="none" xmlns="http://www.w3.org/2000/svg">
<path d="M0 23.999C0 10.7447 10.7447 0 23.999 0C37.2533 0 47.9981 10.7447 47.9981 23.999C47.9981 37.2533 37.2533 47.9981 23.999 47.9981C10.7447 47.9981 0 37.2533 0 23.999Z" fill="#FF8502" fill-opacity="0.1"/>
<path fill-rule="evenodd" clip-rule="evenodd" d="M23.999 13.2486C23.3942 13.2486 22.8374 13.3989 22.2277 13.651C21.6389 13.8945 20.9552 14.2533 20.1037 14.7002L18.0361 15.7852C16.9911 16.3336 16.1548 16.7724 15.5091 17.2037C14.8401 17.6504 14.3249 18.1208 13.9497 18.758C13.5757 19.3931 13.4075 20.0807 13.3268 20.8996C13.2485 21.6945 13.2485 22.6721 13.2485 23.9016V24.0964C13.2485 25.3259 13.2485 26.3035 13.3268 27.0984C13.4075 27.9173 13.5757 28.605 13.9497 29.2401C14.3249 29.8772 14.8401 30.3476 15.5091 30.7944C16.1548 31.2256 16.9911 31.6645 18.0361 32.2128L20.1036 33.2978C20.9551 33.7447 21.6389 34.1035 22.2277 34.347C22.8374 34.5992 23.3942 34.7495 23.999 34.7495C24.6037 34.7495 25.1606 34.5992 25.7703 34.347C26.359 34.1035 27.0427 33.7447 27.8942 33.2979L29.9618 32.2129C31.0068 31.6645 31.8431 31.2256 32.4888 30.7944C33.1578 30.3476 33.673 29.8772 34.0482 29.2401C34.4222 28.605 34.5904 27.9173 34.6711 27.0984C34.7494 26.3035 34.7494 25.3259 34.7494 24.0965V23.9016C34.7494 22.6721 34.7494 21.6945 34.6711 20.8996C34.5904 20.0807 34.4222 19.3931 34.0482 18.758C33.673 18.1208 33.1578 17.6504 32.4888 17.2037C31.8431 16.7724 31.0068 16.3336 29.9618 15.7852L27.8942 14.7002C27.0428 14.2534 26.359 13.8945 25.7703 13.651C25.1606 13.3989 24.6037 13.2486 23.999 13.2486ZM20.7696 16.0448C21.6594 15.5779 22.2829 15.2515 22.8009 15.0372C23.3052 14.8287 23.6594 14.7487 23.999 14.7487C24.3385 14.7487 24.6928 14.8287 25.197 15.0372C25.715 15.2515 26.3385 15.5779 27.2283 16.0448L29.2284 17.0944C30.3181 17.6662 31.0837 18.0691 31.6558 18.4511C31.938 18.6396 32.1597 18.8146 32.3388 18.9906L29.0079 20.656L20.5078 16.1822L20.7696 16.0448ZM18.9434 17.0031L18.7696 17.0944C17.6798 17.6662 16.9142 18.0691 16.3422 18.4511C16.06 18.6396 15.8382 18.8146 15.6592 18.9906L23.999 23.1605L27.3563 21.4818L19.1495 17.1624C19.0697 17.1205 19.0007 17.0662 18.9434 17.0031ZM14.9363 20.3062C14.8858 20.5201 14.8476 20.763 14.8197 21.0467C14.7494 21.7595 14.7486 22.6634 14.7486 23.9405V24.0575C14.7486 25.3347 14.7494 26.2385 14.8197 26.9514C14.8883 27.6486 15.0188 28.0994 15.2423 28.4789C15.4645 28.8563 15.7859 29.1754 16.3422 29.5469C16.9142 29.9289 17.6798 30.3318 18.7696 30.9037L20.7696 31.9533C21.6594 32.4202 22.2829 32.7466 22.8009 32.9608C22.9645 33.0285 23.1123 33.0826 23.2489 33.1249V24.4626L14.9363 20.3062ZM24.749 33.1249C24.8856 33.0826 25.0334 33.0285 25.197 32.9608C25.715 32.7466 26.3385 32.4202 27.2283 31.9533L29.2284 30.9037C30.3181 30.3318 31.0837 29.9289 31.6558 29.5469C32.212 29.1754 32.5334 28.8563 32.7556 28.4789C32.9791 28.0994 33.1096 27.6486 33.1783 26.9514C33.2485 26.2385 33.2493 25.3347 33.2493 24.0575V23.9405C33.2493 22.6634 33.2485 21.7595 33.1783 21.0467C33.1503 20.763 33.1121 20.5201 33.0616 20.3062L29.7492 21.9625V24.9991C29.7492 25.4133 29.4134 25.7491 28.9992 25.7491C28.5849 25.7491 28.2491 25.4133 28.2491 24.9991V22.7125L24.749 24.4626V33.1249Z" fill="#FF8502"/>
</svg>
