<svg width="32" height="32" viewBox="0 0 32 32" fill="none" xmlns="http://www.w3.org/2000/svg">
<path d="M0 16C0 7.16344 7.16344 0 16 0C24.8366 0 32 7.16344 32 16C32 24.8366 24.8366 32 16 32C7.16344 32 0 24.8366 0 16Z" fill="black" fill-opacity="0.05"/>
<path d="M15.9886 23.2778C14.9436 23.2778 13.9646 23.0801 13.0515 22.6846C12.1385 22.2939 11.3352 21.752 10.6419 21.0586C9.94852 20.3701 9.40408 19.5693 9.00858 18.6562C8.61795 17.7383 8.42264 16.7568 8.42264 15.7119C8.42264 14.667 8.61795 13.688 9.00858 12.7749C9.40408 11.8569 9.94852 11.0513 10.6419 10.3579C11.3352 9.66455 12.1385 9.12256 13.0515 8.73193C13.9646 8.34131 14.9436 8.146 15.9886 8.146C17.0335 8.146 18.0125 8.34131 18.9256 8.73193C19.8435 9.12256 20.6492 9.66455 21.3426 10.3579C22.0359 11.0513 22.5779 11.8569 22.9685 12.7749C23.364 13.688 23.5618 14.667 23.5618 15.7119C23.5618 16.7568 23.364 17.7383 22.9685 18.6562C22.5779 19.5693 22.0359 20.3701 21.3426 21.0586C20.6492 21.752 19.8435 22.2939 18.9256 22.6846C18.0125 23.0801 17.0335 23.2778 15.9886 23.2778ZM15.9886 21.7837C16.8284 21.7837 17.6145 21.625 18.347 21.3076C19.0794 20.9951 19.7239 20.5605 20.2805 20.0039C20.8421 19.4473 21.2791 18.8027 21.5916 18.0703C21.9041 17.3379 22.0603 16.5518 22.0603 15.7119C22.0603 14.8721 21.9041 14.0859 21.5916 13.3535C21.2791 12.6162 20.8421 11.9717 20.2805 11.4199C19.7239 10.8633 19.0794 10.4287 18.347 10.1162C17.6145 9.79883 16.8284 9.64014 15.9886 9.64014C15.1536 9.64014 14.3675 9.79883 13.6302 10.1162C12.8977 10.4287 12.2532 10.8633 11.6966 11.4199C11.1399 11.9717 10.7029 12.6162 10.3855 13.3535C10.073 14.0859 9.91678 14.8721 9.91678 15.7119C9.91678 16.5518 10.073 17.3379 10.3855 18.0703C10.7029 18.8027 11.1399 19.4473 11.6966 20.0039C12.2532 20.5605 12.8977 20.9951 13.6302 21.3076C14.3675 21.625 15.1536 21.7837 15.9886 21.7837Z" fill="black" fill-opacity="0.4"/>
</svg>
