<svg width="20" height="20" viewBox="0 0 20 20" fill="none" xmlns="http://www.w3.org/2000/svg">
<path fill-rule="evenodd" clip-rule="evenodd" d="M7.49083 4.42347C8.47413 2.42153 10.5336 1.04199 12.9167 1.04199C16.2534 1.04199 18.9583 3.74694 18.9583 7.08366C18.9583 7.97707 18.764 8.82679 18.4147 9.59144C18.3236 9.791 18.3058 9.97949 18.3464 10.131L18.4525 10.5277C18.7923 11.7975 17.6305 12.9593 16.3607 12.6195L15.964 12.5134C15.8512 12.4832 15.718 12.4853 15.5749 12.5259C15.1499 16.1482 12.0698 18.9587 8.33334 18.9587C7.20836 18.9587 6.14124 18.7035 5.18825 18.2472C4.99959 18.1569 4.81384 18.1386 4.66104 18.1795L3.63934 18.4528C2.36948 18.7926 1.20773 17.6308 1.5475 16.361L1.82087 15.3393C1.86176 15.1865 1.84343 15.0007 1.75311 14.8121C1.29687 13.8591 1.04167 12.792 1.04167 11.667C1.04167 7.92486 3.86061 4.84114 7.49083 4.42347ZM8.94583 4.40069C12.5498 4.70042 15.4095 7.62125 15.6134 11.2517C15.8321 11.2308 16.0595 11.2449 16.2871 11.3058L16.6838 11.412C17.0245 11.5031 17.3361 11.1914 17.245 10.8507L17.1388 10.454C17.0079 9.9646 17.0932 9.476 17.2777 9.07208C17.554 8.46717 17.7083 7.79428 17.7083 7.08366C17.7083 4.43729 15.563 2.29199 12.9167 2.29199C11.2651 2.29199 9.80767 3.12769 8.94583 4.40069ZM8.33334 5.62532C4.99662 5.62532 2.29167 8.33027 2.29167 11.667C2.29167 12.6012 2.50327 13.4842 2.88056 14.2723C3.07673 14.6821 3.159 15.1743 3.0284 15.6624L2.75503 16.6841C2.66387 17.0248 2.97556 17.3365 3.31625 17.2453L4.33795 16.9719C4.82606 16.8413 5.31826 16.9236 5.72802 17.1198C6.51611 17.4971 7.39913 17.7087 8.33334 17.7087C11.6701 17.7087 14.375 15.0037 14.375 11.667C14.375 8.33027 11.6701 5.62532 8.33334 5.62532Z" fill="#2B7FFF"/>
<path d="M6.25 11.667C6.25 12.1272 5.87691 12.5003 5.41667 12.5003C4.95643 12.5003 4.58334 12.1272 4.58334 11.667C4.58334 11.2068 4.95643 10.8337 5.41667 10.8337C5.87691 10.8337 6.25 11.2068 6.25 11.667Z" fill="#2B7FFF"/>
<path d="M9.16667 11.667C9.16667 12.1272 8.79357 12.5003 8.33334 12.5003C7.8731 12.5003 7.5 12.1272 7.5 11.667C7.5 11.2068 7.8731 10.8337 8.33334 10.8337C8.79357 10.8337 9.16667 11.2068 9.16667 11.667Z" fill="#2B7FFF"/>
<path d="M12.0833 11.667C12.0833 12.1272 11.7102 12.5003 11.25 12.5003C10.7898 12.5003 10.4167 12.1272 10.4167 11.667C10.4167 11.2068 10.7898 10.8337 11.25 10.8337C11.7102 10.8337 12.0833 11.2068 12.0833 11.667Z" fill="#2B7FFF"/>
</svg>
