<svg width="64" height="64" viewBox="0 0 64 64" fill="none" xmlns="http://www.w3.org/2000/svg">
<rect width="64" height="64" rx="32" fill="#00D40E"/>
<path d="M37.0377 29.5379C37.4038 29.1718 37.4038 28.5782 37.0377 28.2121C36.6716 27.846 36.078 27.846 35.7118 28.2121L30.1248 33.7992L28.2877 31.9621C27.9216 31.596 27.328 31.596 26.9618 31.9621C26.5957 32.3282 26.5957 32.9218 26.9618 33.2879L29.4618 35.7879C29.828 36.154 30.4216 36.154 30.7877 35.7879L37.0377 29.5379Z" fill="white"/>
<path fill-rule="evenodd" clip-rule="evenodd" d="M31.9998 18.5625C24.5784 18.5625 18.5623 24.5787 18.5623 32C18.5623 39.4213 24.5784 45.4375 31.9998 45.4375C39.4211 45.4375 45.4373 39.4213 45.4373 32C45.4373 24.5787 39.4211 18.5625 31.9998 18.5625ZM20.4373 32C20.4373 25.6142 25.614 20.4375 31.9998 20.4375C38.3855 20.4375 43.5623 25.6142 43.5623 32C43.5623 38.3858 38.3855 43.5625 31.9998 43.5625C25.614 43.5625 20.4373 38.3858 20.4373 32Z" fill="white"/>
</svg>
