<svg width="26" height="26" viewBox="0 0 26 26" fill="none" xmlns="http://www.w3.org/2000/svg">
<path d="M9.74996 18.6875C9.30123 18.6875 8.93746 19.0513 8.93746 19.5C8.93746 19.9488 9.30123 20.3125 9.74996 20.3125H16.25C16.6987 20.3125 17.0625 19.9488 17.0625 19.5C17.0625 19.0513 16.6987 18.6875 16.25 18.6875H9.74996Z" fill="#8B5CF6"/>
<path fill-rule="evenodd" clip-rule="evenodd" d="M13 1.35419C12.2328 1.35419 11.5359 1.57391 10.7797 1.94161C10.0488 2.29706 9.20442 2.82112 8.14972 3.4757L5.91093 4.86516C4.91297 5.48451 4.11386 5.98046 3.49793 6.45215C2.86012 6.9406 2.37024 7.43807 2.01638 8.08454C1.66326 8.72966 1.50424 9.41607 1.428 10.2275C1.35411 11.0138 1.35412 11.9753 1.35413 13.1812V14.9282C1.35411 16.9907 1.3541 18.6188 1.51955 19.8918C1.68928 21.1976 2.0459 22.2518 2.85168 23.0853C3.66117 23.9226 4.69129 24.2967 5.96653 24.474C7.20249 24.6459 8.78099 24.6459 10.7703 24.6459H15.2296C17.2189 24.6459 18.7974 24.6459 20.0334 24.474C21.3086 24.2967 22.3387 23.9226 23.1482 23.0853C23.954 22.2518 24.3106 21.1976 24.4804 19.8918C24.6458 18.6188 24.6458 16.9908 24.6458 14.9282V13.1812C24.6458 11.9753 24.6458 11.0138 24.5719 10.2275C24.4957 9.41607 24.3367 8.72965 23.9835 8.08454C23.6297 7.43807 23.1398 6.9406 22.502 6.45215C21.8861 5.98046 21.087 5.48452 20.089 4.86518L17.8502 3.47569C16.7955 2.82112 15.9511 2.29706 15.2202 1.94161C14.4641 1.57391 13.7671 1.35419 13 1.35419ZM8.96945 4.87948C10.0699 4.19654 10.8436 3.71752 11.4904 3.40298C12.1205 3.09654 12.5668 2.97919 13 2.97919C13.4331 2.97919 13.8794 3.09654 14.5095 3.40298C15.1563 3.71751 15.9301 4.19654 17.0305 4.87948L19.1971 6.22417C20.238 6.87019 20.9689 7.32482 21.514 7.74228C22.0444 8.14847 22.3495 8.48367 22.5581 8.86478C22.7675 9.24724 22.8897 9.69439 22.9541 10.3795C23.02 11.081 23.0208 11.9663 23.0208 13.2209V14.8687C23.0208 17.0039 23.0192 18.5263 22.8689 19.6823C22.7213 20.8177 22.4434 21.4764 21.9799 21.9558C21.5202 22.4313 20.8944 22.7136 19.8096 22.8645C18.6985 23.019 17.2331 23.0209 15.1666 23.0209H10.8333C8.7668 23.0209 7.30144 23.019 6.19037 22.8645C5.10556 22.7136 4.47969 22.4313 4.01998 21.9558C3.55656 21.4764 3.27858 20.8177 3.131 19.6823C2.98074 18.5263 2.97913 17.0039 2.97913 14.8687V13.2209C2.97913 11.9663 2.97995 11.081 3.04587 10.3795C3.11025 9.69439 3.23246 9.24724 3.44181 8.86478C3.65042 8.48367 3.95556 8.14847 4.48596 7.74228C5.03107 7.32482 5.76188 6.87019 6.80278 6.22418L8.96945 4.87948Z" fill="#8B5CF6"/>
</svg>
