<svg width="40" height="40" viewBox="0 0 40 40" fill="none" xmlns="http://www.w3.org/2000/svg">
<path d="M0 19.9964C0 8.95271 8.95271 0 19.9964 0C31.0402 0 39.9929 8.95271 39.9929 19.9964C39.9929 31.0402 31.0402 39.9929 19.9964 39.9929C8.95271 39.9929 0 31.0402 0 19.9964Z" fill="#FF8502" fill-opacity="0.1"/>
<path fill-rule="evenodd" clip-rule="evenodd" d="M19.9923 10.1388C19.4378 10.1388 18.9272 10.2767 18.3681 10.5079C17.8283 10.7311 17.2013 11.0601 16.4206 11.4699L14.5247 12.4648C13.5665 12.9676 12.7996 13.37 12.2075 13.7654C11.5941 14.1751 11.1217 14.6064 10.7776 15.1907C10.4347 15.773 10.2805 16.4035 10.2065 17.1545C10.1347 17.8833 10.1347 18.7797 10.1347 19.9071V20.0858C10.1347 21.2131 10.1347 22.1096 10.2065 22.8384C10.2805 23.5894 10.4347 24.2199 10.7776 24.8022C11.1217 25.3865 11.5941 25.8178 12.2075 26.2275C12.7996 26.6229 13.5664 27.0253 14.5247 27.5281L16.4205 28.523C17.2013 28.9327 17.8283 29.2618 18.3681 29.485C18.9272 29.7163 19.4378 29.8541 19.9923 29.8541C20.5468 29.8541 21.0574 29.7163 21.6165 29.485C22.1563 29.2618 22.7833 28.9328 23.564 28.523L25.4599 27.5281C26.4182 27.0253 27.185 26.6229 27.7771 26.2275C28.3905 25.8178 28.863 25.3865 29.207 24.8022C29.5499 24.2199 29.7042 23.5894 29.7781 22.8384C29.8499 22.1096 29.8499 21.2132 29.8499 20.0858V19.9071C29.8499 18.7797 29.8499 17.8833 29.7781 17.1545C29.7042 16.4035 29.5499 15.773 29.207 15.1907C28.863 14.6064 28.3905 14.1751 27.7771 13.7654C27.185 13.37 26.4182 12.9676 25.4599 12.4648L23.5641 11.4699C22.7833 11.0602 22.1563 10.7311 21.6165 10.5079C21.0574 10.2767 20.5468 10.1388 19.9923 10.1388ZM17.0312 12.7028C17.847 12.2747 18.4188 11.9754 18.8938 11.7789C19.3561 11.5877 19.681 11.5143 19.9923 11.5143C20.3037 11.5143 20.6285 11.5877 21.0908 11.7789C21.5659 11.9754 22.1376 12.2747 22.9535 12.7028L24.7874 13.6652C25.7867 14.1896 26.4887 14.559 27.0132 14.9093C27.272 15.0821 27.4753 15.2426 27.6395 15.4039L24.5853 16.931L16.7911 12.8288L17.0312 12.7028ZM15.3566 13.5816L15.1972 13.6652C14.198 14.1896 13.496 14.559 12.9714 14.9093C12.7126 15.0821 12.5093 15.2426 12.3451 15.4039L19.9923 19.2275L23.0708 17.6883L15.5456 13.7276C15.4725 13.6892 15.4091 13.6394 15.3566 13.5816ZM11.6823 16.6104C11.636 16.8065 11.601 17.0292 11.5753 17.2893C11.511 17.9429 11.5102 18.7717 11.5102 19.9428V20.0501C11.5102 21.2212 11.511 22.05 11.5753 22.7036C11.6383 23.3429 11.758 23.7563 11.9629 24.1043C12.1666 24.4503 12.4613 24.743 12.9714 25.0836C13.496 25.4339 14.198 25.8033 15.1972 26.3277L17.0312 27.2901C17.847 27.7182 18.4188 28.0175 18.8938 28.214C19.0438 28.276 19.1793 28.3256 19.3046 28.3644V20.4215L11.6823 16.6104ZM20.6801 28.3644C20.8053 28.3256 20.9408 28.276 21.0908 28.214C21.5659 28.0175 22.1376 27.7182 22.9535 27.2901L24.7874 26.3277C25.7867 25.8033 26.4887 25.4339 27.0132 25.0836C27.5233 24.743 27.818 24.4503 28.0218 24.1043C28.2267 23.7563 28.3463 23.3429 28.4093 22.7036C28.4737 22.05 28.4744 21.2212 28.4744 20.0501V19.9428C28.4744 18.7717 28.4737 17.9429 28.4093 17.2893C28.3837 17.0292 28.3487 16.8065 28.3023 16.6104L25.265 18.129V20.9134C25.265 21.2933 24.9571 21.6012 24.5772 21.6012C24.1974 21.6012 23.8895 21.2933 23.8895 20.9134V18.8168L20.6801 20.4215V28.3644Z" fill="#FF8502"/>
</svg>
