<svg width="40" height="40" viewBox="0 0 40 40" fill="none" xmlns="http://www.w3.org/2000/svg">
<rect width="40" height="40" rx="12" fill="#CCCCCC"/>
<path d="M25 22C25.5523 22 26 21.5523 26 21C26 20.4477 25.5523 20 25 20C24.4477 20 24 20.4477 24 21C24 21.5523 24.4477 22 25 22Z" fill="white"/>
<path d="M25 26C25.5523 26 26 25.5523 26 25C26 24.4477 25.5523 24 25 24C24.4477 24 24 24.4477 24 25C24 25.5523 24.4477 26 25 26Z" fill="white"/>
<path d="M21 21C21 21.5523 20.5523 22 20 22C19.4477 22 19 21.5523 19 21C19 20.4477 19.4477 20 20 20C20.5523 20 21 20.4477 21 21Z" fill="white"/>
<path d="M21 25C21 25.5523 20.5523 26 20 26C19.4477 26 19 25.5523 19 25C19 24.4477 19.4477 24 20 24C20.5523 24 21 24.4477 21 25Z" fill="white"/>
<path d="M15 22C15.5523 22 16 21.5523 16 21C16 20.4477 15.5523 20 15 20C14.4477 20 14 20.4477 14 21C14 21.5523 14.4477 22 15 22Z" fill="white"/>
<path d="M15 26C15.5523 26 16 25.5523 16 25C16 24.4477 15.5523 24 15 24C14.4477 24 14 24.4477 14 25C14 25.5523 14.4477 26 15 26Z" fill="white"/>
<path fill-rule="evenodd" clip-rule="evenodd" d="M15 9.75C15.4142 9.75 15.75 10.0858 15.75 10.5V11.2627C16.412 11.25 17.1413 11.25 17.9435 11.25H22.0564C22.8586 11.25 23.588 11.25 24.25 11.2627V10.5C24.25 10.0858 24.5858 9.75 25 9.75C25.4142 9.75 25.75 10.0858 25.75 10.5V11.3271C26.0099 11.3469 26.2561 11.3718 26.489 11.4031C27.6614 11.5608 28.6104 11.8929 29.3588 12.6412C30.1071 13.3896 30.4392 14.3386 30.5969 15.511C30.75 16.6502 30.75 18.1058 30.75 19.9435V22.0564C30.75 23.8941 30.75 25.3498 30.5969 26.489C30.4392 27.6614 30.1071 28.6104 29.3588 29.3588C28.6104 30.1071 27.6614 30.4392 26.489 30.5969C25.3498 30.75 23.8942 30.75 22.0565 30.75H17.9436C16.1058 30.75 14.6502 30.75 13.511 30.5969C12.3386 30.4392 11.3896 30.1071 10.6412 29.3588C9.89288 28.6104 9.56076 27.6614 9.40314 26.489C9.24997 25.3498 9.24998 23.8942 9.25 22.0564V19.9436C9.24998 18.1058 9.24997 16.6502 9.40314 15.511C9.56076 14.3386 9.89288 13.3896 10.6412 12.6412C11.3896 11.8929 12.3386 11.5608 13.511 11.4031C13.7439 11.3718 13.9901 11.3469 14.25 11.3271V10.5C14.25 10.0858 14.5858 9.75 15 9.75ZM13.7108 12.8898C12.7048 13.025 12.1251 13.2787 11.7019 13.7019C11.2787 14.1251 11.025 14.7048 10.8898 15.7108C10.8669 15.8812 10.8477 16.0606 10.8317 16.25H29.1683C29.1523 16.0606 29.1331 15.8812 29.1102 15.7108C28.975 14.7048 28.7213 14.1251 28.2981 13.7019C27.8749 13.2787 27.2952 13.025 26.2892 12.8898C25.2615 12.7516 23.9068 12.75 22 12.75H18C16.0932 12.75 14.7385 12.7516 13.7108 12.8898ZM10.75 20C10.75 19.146 10.7503 18.4027 10.7631 17.75H29.2369C29.2497 18.4027 29.25 19.146 29.25 20V22C29.25 23.9068 29.2484 25.2615 29.1102 26.2892C28.975 27.2952 28.7213 27.8749 28.2981 28.2981C27.8749 28.7213 27.2952 28.975 26.2892 29.1102C25.2615 29.2484 23.9068 29.25 22 29.25H18C16.0932 29.25 14.7385 29.2484 13.7108 29.1102C12.7048 28.975 12.1251 28.7213 11.7019 28.2981C11.2787 27.8749 11.025 27.2952 10.8898 26.2892C10.7516 25.2615 10.75 23.9068 10.75 22V20Z" fill="white"/>
</svg>
