<svg width="48" height="48" viewBox="0 0 48 48" fill="none" xmlns="http://www.w3.org/2000/svg">
<path d="M0 16C0 7.16345 7.16344 0 16 0H31.9981C40.8346 0 47.9981 7.16344 47.9981 16V31.9981C47.9981 40.8346 40.8346 47.9981 31.9981 47.9981H16C7.16345 47.9981 0 40.8346 0 31.9981V16Z" fill="url(#paint0_linear_25_689)"/>
<path d="M28.999 25.999C29.5513 25.999 29.999 25.5513 29.999 24.999C29.999 24.4467 29.5513 23.999 28.999 23.999C28.4467 23.999 27.999 24.4467 27.999 24.999C27.999 25.5513 28.4467 25.999 28.999 25.999Z" fill="white"/>
<path d="M28.999 29.999C29.5513 29.999 29.999 29.5513 29.999 28.999C29.999 28.4467 29.5513 27.999 28.999 27.999C28.4467 27.999 27.999 28.4467 27.999 28.999C27.999 29.5513 28.4467 29.999 28.999 29.999Z" fill="white"/>
<path d="M24.999 24.999C24.999 25.5513 24.5513 25.999 23.999 25.999C23.4467 25.999 22.999 25.5513 22.999 24.999C22.999 24.4467 23.4467 23.999 23.999 23.999C24.5513 23.999 24.999 24.4467 24.999 24.999Z" fill="white"/>
<path d="M24.999 28.999C24.999 29.5513 24.5513 29.999 23.999 29.999C23.4467 29.999 22.999 29.5513 22.999 28.999C22.999 28.4467 23.4467 27.999 23.999 27.999C24.5513 27.999 24.999 28.4467 24.999 28.999Z" fill="white"/>
<path d="M18.999 25.999C19.5513 25.999 19.999 25.5513 19.999 24.999C19.999 24.4467 19.5513 23.999 18.999 23.999C18.4467 23.999 17.999 24.4467 17.999 24.999C17.999 25.5513 18.4467 25.999 18.999 25.999Z" fill="white"/>
<path d="M18.999 29.999C19.5513 29.999 19.999 29.5513 19.999 28.999C19.999 28.4467 19.5513 27.999 18.999 27.999C18.4467 27.999 17.999 28.4467 17.999 28.999C17.999 29.5513 18.4467 29.999 18.999 29.999Z" fill="white"/>
<path fill-rule="evenodd" clip-rule="evenodd" d="M18.999 13.749C19.4132 13.749 19.749 14.0848 19.749 14.499V15.2617C20.411 15.249 21.1404 15.249 21.9425 15.249H26.0554C26.8576 15.249 27.587 15.249 28.249 15.2617V14.499C28.249 14.0848 28.5848 13.749 28.999 13.749C29.4132 13.749 29.749 14.0848 29.749 14.499V15.3261C30.009 15.3459 30.2551 15.3708 30.488 15.4022C31.6605 15.5598 32.6094 15.8919 33.3578 16.6403C34.1061 17.3886 34.4383 18.3376 34.5959 19.51C34.7491 20.6492 34.749 22.1048 34.749 23.9426V26.0554C34.749 27.8932 34.7491 29.3488 34.5959 30.488C34.4383 31.6605 34.1061 32.6094 33.3578 33.3578C32.6094 34.1061 31.6605 34.4383 30.488 34.5959C29.3488 34.7491 27.8932 34.749 26.0555 34.749H21.9426C20.1049 34.749 18.6492 34.7491 17.51 34.5959C16.3376 34.4383 15.3886 34.1061 14.6403 33.3578C13.8919 32.6094 13.5598 31.6605 13.4022 30.488C13.249 29.3488 13.249 27.8932 13.249 26.0554V23.9426C13.249 22.1048 13.249 20.6492 13.4022 19.51C13.5598 18.3376 13.8919 17.3886 14.6403 16.6403C15.3886 15.8919 16.3376 15.5598 17.51 15.4022C17.7429 15.3708 17.9891 15.3459 18.249 15.3261V14.499C18.249 14.0848 18.5848 13.749 18.999 13.749ZM17.7099 16.8888C16.7038 17.024 16.1241 17.2777 15.7009 17.7009C15.2777 18.1241 15.024 18.7038 14.8888 19.7099C14.8659 19.8803 14.8467 20.0596 14.8307 20.249H33.1673C33.1513 20.0596 33.1322 19.8803 33.1093 19.7099C32.974 18.7038 32.7203 18.1241 32.2971 17.7009C31.8739 17.2777 31.2943 17.024 30.2882 16.8888C29.2605 16.7506 27.9058 16.749 25.999 16.749H21.999C20.0922 16.749 18.7375 16.7506 17.7099 16.8888ZM14.749 23.999C14.749 23.145 14.7493 22.4018 14.7621 21.749H33.2359C33.2487 22.4018 33.249 23.145 33.249 23.999V25.999C33.249 27.9058 33.2474 29.2605 33.1093 30.2882C32.974 31.2943 32.7203 31.8739 32.2971 32.2971C31.8739 32.7203 31.2943 32.974 30.2882 33.1093C29.2605 33.2474 27.9058 33.249 25.999 33.249H21.999C20.0922 33.249 18.7375 33.2474 17.7099 33.1093C16.7038 32.974 16.1241 32.7203 15.7009 32.2971C15.2777 31.8739 15.024 31.2943 14.8888 30.2882C14.7506 29.2605 14.749 27.9058 14.749 25.999V23.999Z" fill="white"/>
<defs>
<linearGradient id="paint0_linear_25_689" x1="23.999" y1="0" x2="23.999" y2="47.9981" gradientUnits="userSpaceOnUse">
<stop stop-color="#8B5CF6"/>
<stop offset="1" stop-color="#6D3ED6"/>
</linearGradient>
</defs>
</svg>
