<svg width="80" height="80" viewBox="0 0 80 80" fill="none" xmlns="http://www.w3.org/2000/svg">
<rect width="80" height="80" rx="22" fill="#8B5CF6"/>
<path fill-rule="evenodd" clip-rule="evenodd" d="M38.5202 29.1993C38.7785 28.8621 39.2474 28.3749 40 28.3749C40.7525 28.3749 41.2215 28.8621 41.4798 29.1993C41.7262 29.5212 41.9745 29.9667 42.229 30.4235L42.4112 30.7504C42.4454 30.8118 42.4723 30.86 42.4959 30.9013C42.5368 30.9109 42.5845 30.9218 42.6441 30.9352L43.0008 31.0159C43.4925 31.127 43.9812 31.2375 44.3564 31.3853C44.7706 31.5485 45.332 31.8664 45.5484 32.5623C45.761 33.2459 45.4927 33.8249 45.2585 34.1971C45.0416 34.5415 44.7121 34.9267 44.3747 35.321L44.1337 35.6028C44.082 35.6633 44.043 35.7089 44.0102 35.7484C44.0147 35.8029 44.0208 35.8664 44.029 35.9513L44.0653 36.3255C44.1165 36.8534 44.1661 37.3635 44.1479 37.7716C44.1288 38.1995 44.0262 38.8472 43.4454 39.288C42.8463 39.7428 42.1846 39.6437 41.7651 39.5235C41.3784 39.4127 40.9216 39.2022 40.4615 38.9902L40.1273 38.8363C40.0772 38.8132 40.0359 38.7943 40 38.778C39.9641 38.7943 39.9228 38.8132 39.8727 38.8363L39.5385 38.9902C39.0784 39.2022 38.6216 39.4127 38.2349 39.5235C37.8154 39.6437 37.1537 39.7428 36.5546 39.288C35.9738 38.8472 35.8711 38.1995 35.8521 37.7716C35.8339 37.3635 35.8834 36.8534 35.9347 36.3255L35.971 35.9513C35.9792 35.8664 35.9853 35.8029 35.9898 35.7484C35.957 35.7089 35.918 35.6633 35.8663 35.6028L35.6253 35.321C35.2879 34.9267 34.9584 34.5415 34.7415 34.1971C34.5073 33.8249 34.239 33.2459 34.4516 32.5623C34.668 31.8664 35.2294 31.5485 35.6436 31.3853C36.0188 31.2375 36.5074 31.127 36.9992 31.0159L37.3559 30.9352C37.4155 30.9218 37.4632 30.9109 37.5041 30.9013C37.5277 30.86 37.5546 30.8118 37.5888 30.7504L37.771 30.4235C38.0255 29.9667 38.2738 29.5212 38.5202 29.1993ZM40 31.0516C39.9128 31.2026 39.8158 31.3764 39.7016 31.5814L39.5541 31.8459L39.5206 31.9069C39.4028 32.1223 39.2077 32.479 38.8824 32.7259C38.5504 32.978 38.151 33.0648 37.9174 33.1155L37.8524 33.1298L37.5661 33.1946C37.3033 33.254 37.0893 33.3025 36.9062 33.3485C37.0253 33.495 37.1799 33.677 37.381 33.9122L37.5763 34.1405L37.6212 34.1925C37.7831 34.379 38.0445 34.6801 38.1654 35.0688C38.2848 35.4529 38.2436 35.8485 38.2176 36.0981L38.2105 36.1683L38.181 36.4729C38.1536 36.7553 38.1323 36.9806 38.1182 37.1639C38.2745 37.0951 38.4523 37.0133 38.6635 36.916L38.9317 36.7926L38.9922 36.7642C39.2075 36.6627 39.582 36.4861 40 36.4861C40.418 36.4861 40.7925 36.6627 41.0078 36.7642L41.0683 36.7926L41.3365 36.916C41.5477 37.0133 41.7255 37.0951 41.8818 37.1639C41.8677 36.9806 41.8464 36.7553 41.819 36.4729L41.7895 36.1683L41.7824 36.0981C41.7564 35.8485 41.7152 35.4529 41.8346 35.0688C41.9555 34.6801 42.2169 34.379 42.3788 34.1925L42.4237 34.1405L42.619 33.9122C42.8201 33.677 42.9747 33.495 43.0938 33.3485C42.9107 33.3025 42.6967 33.254 42.4339 33.1946L42.1476 33.1298L42.0826 33.1155C41.849 33.0648 41.4496 32.978 41.1175 32.7259C40.7923 32.479 40.5972 32.1223 40.4794 31.9069L40.4459 31.8459L40.2984 31.5814C40.1842 31.3764 40.0872 31.2026 40 31.0516ZM38.109 37.7672C38.109 37.7672 38.1086 37.7657 38.108 37.7624L38.109 37.7672ZM41.891 37.7672L41.892 37.7624C41.8914 37.7657 41.891 37.7672 41.891 37.7672Z" fill="white"/>
<path fill-rule="evenodd" clip-rule="evenodd" d="M33.2476 24.4107C34.9919 24.1164 37.2586 23.8749 40.0002 23.8749C42.7418 23.8749 45.0085 24.1164 46.7529 24.4107L46.9551 24.4446C48.4705 24.6983 49.73 24.9091 50.7148 26.122C51.3464 26.8999 51.5501 27.7406 51.5971 28.6797L52.3347 28.9256C53.0293 29.1571 53.6382 29.36 54.1213 29.5847C54.6435 29.8277 55.1221 30.1406 55.4879 30.6482C55.8538 31.1558 55.9993 31.7088 56.0646 32.281C56.125 32.8104 56.125 33.4522 56.1249 34.1845L56.1249 34.4023C56.1249 35.005 56.125 35.5374 56.0805 35.9826C56.0322 36.4651 55.9254 36.9342 55.6587 37.3875C55.3919 37.8409 55.0337 38.162 54.6353 38.4385C54.2677 38.6936 53.8024 38.9521 53.2755 39.2448L49.3145 41.4454C48.5054 43.0374 47.3939 44.4568 45.8652 45.4821C44.5532 46.362 42.9821 46.919 41.125 47.0779V50.1249H43.2703C44.5216 50.1249 45.5989 51.0081 45.8443 52.2351L46.1723 53.8749H49C49.6213 53.8749 50.125 54.3786 50.125 54.9999C50.125 55.6212 49.6213 56.1249 49 56.1249H31C30.3787 56.1249 29.875 55.6212 29.875 54.9999C29.875 54.3786 30.3787 53.8749 31 53.8749H33.8277L34.1557 52.2351C34.4011 51.0081 35.4784 50.1249 36.7297 50.1249H38.875V47.0779C37.0181 46.9189 35.4472 46.362 34.1353 45.4821C32.6067 44.4569 31.4953 43.0377 30.6862 41.4458L26.7244 39.2448C26.1975 38.9521 25.7322 38.6936 25.3646 38.4385C24.9662 38.162 24.608 37.8409 24.3412 37.3875C24.0745 36.9342 23.9677 36.4651 23.9195 35.9826C23.875 35.5373 23.875 35.005 23.875 34.4023L23.875 34.1844C23.8749 33.4522 23.8749 32.8104 23.9353 32.281C24.0006 31.7088 24.1461 31.1558 24.512 30.6482C24.8779 30.1406 25.3564 29.8277 25.8787 29.5847C26.3617 29.36 26.9706 29.1571 27.6653 28.9256L28.4034 28.6795C28.4503 27.7405 28.6541 26.8998 29.2857 26.122C30.2705 24.9091 31.53 24.6983 33.0453 24.4446L33.2476 24.4107ZM36.1223 53.8749H43.8777L43.638 52.6763C43.603 52.501 43.4491 52.3749 43.2703 52.3749H36.7297C36.551 52.3749 36.3971 52.501 36.362 52.6763L36.1223 53.8749ZM28.4531 31.0346L28.4327 31.0415C27.6656 31.2972 27.1804 31.4607 26.8277 31.6248C26.5012 31.7767 26.3962 31.8821 26.3373 31.9638C26.2785 32.0454 26.2116 32.1784 26.1708 32.5362C26.1267 32.9227 26.125 33.4347 26.125 34.2433L26.125 34.3521C26.125 35.0199 26.1263 35.4388 26.1583 35.7588C26.1878 36.0539 26.2364 36.1717 26.2804 36.2465C26.3245 36.3213 26.4038 36.421 26.6474 36.5901C26.9117 36.7735 27.2772 36.978 27.8609 37.3023L29.4595 38.1904C28.8181 35.8355 28.5605 33.3151 28.4531 31.0346ZM50.5411 38.1901C51.1824 35.8353 51.4399 33.3151 51.5473 31.0348L51.5672 31.0415C52.3343 31.2972 52.8195 31.4607 53.1722 31.6248C53.4987 31.7767 53.6038 31.8821 53.6626 31.9638C53.7215 32.0454 53.7883 32.1784 53.8291 32.5362C53.8733 32.9227 53.8749 33.4347 53.8749 34.2433L53.8749 34.3521C53.8749 35.0199 53.8736 35.4388 53.8416 35.7588C53.8121 36.0539 53.7635 36.1717 53.7195 36.2465C53.6755 36.3213 53.5961 36.421 53.3525 36.5901C53.0882 36.7735 52.7227 36.978 52.139 37.3023L50.5411 38.1901ZM40.0002 26.1249C37.3912 26.1249 35.2498 26.3547 33.6219 26.6293C31.8116 26.9348 31.4313 27.049 31.0324 27.5403C30.6393 28.0244 30.602 28.4822 30.6827 30.515C30.8172 33.9029 31.2642 37.559 32.6483 40.3395C33.3315 41.712 34.2247 42.8329 35.3885 43.6134C36.5448 44.389 38.0366 44.8749 40.0002 44.8749C41.9638 44.8749 43.4556 44.389 44.6119 43.6134C45.7757 42.8329 46.669 41.712 47.3522 40.3395C48.7363 37.559 49.1832 33.9029 49.3177 30.515C49.3984 28.4822 49.3611 28.0244 48.968 27.5403C48.5692 27.049 48.1889 26.9348 46.3785 26.6293C44.7507 26.3547 42.6093 26.1249 40.0002 26.1249Z" fill="white"/>
</svg>
