<svg width="16" height="16" viewBox="0 0 16 16" fill="none" xmlns="http://www.w3.org/2000/svg">
<path d="M7.99999 11.8333C8.27614 11.8333 8.49999 11.6095 8.49999 11.3333V7.33333C8.49999 7.05719 8.27614 6.83333 7.99999 6.83333C7.72385 6.83333 7.49999 7.05719 7.49999 7.33333V11.3333C7.49999 11.6095 7.72385 11.8333 7.99999 11.8333Z" fill="#8B5CF6"/>
<path d="M7.99999 4.66667C8.36818 4.66667 8.66666 4.96514 8.66666 5.33333C8.66666 5.70152 8.36818 6 7.99999 6C7.6318 6 7.33333 5.70152 7.33333 5.33333C7.33333 4.96514 7.6318 4.66667 7.99999 4.66667Z" fill="#8B5CF6"/>
<path fill-rule="evenodd" clip-rule="evenodd" d="M0.833328 8C0.833328 4.04196 4.04195 0.833332 7.99999 0.833332C11.958 0.833332 15.1667 4.04196 15.1667 8C15.1667 11.958 11.958 15.1667 7.99999 15.1667C4.04195 15.1667 0.833328 11.958 0.833328 8ZM7.99999 1.83333C4.59424 1.83333 1.83333 4.59424 1.83333 8C1.83333 11.4058 4.59424 14.1667 7.99999 14.1667C11.4058 14.1667 14.1667 11.4058 14.1667 8C14.1667 4.59424 11.4058 1.83333 7.99999 1.83333Z" fill="#8B5CF6"/>
</svg>
