<svg width="14" height="8" viewBox="0 0 14 8" fill="none" xmlns="http://www.w3.org/2000/svg">
<path d="M6.58447 0C6.29639 0 6.03271 0.117188 5.79346 0.351562L0.27832 5.99121C0.185547 6.08887 0.114746 6.19385 0.065918 6.30615C0.0219727 6.41846 0 6.54297 0 6.67969C0 6.86035 0.0439453 7.02637 0.131836 7.17773C0.219727 7.3291 0.336914 7.44873 0.483398 7.53662C0.634766 7.62451 0.800781 7.66846 0.981445 7.66846C1.25488 7.66846 1.49414 7.56836 1.69922 7.36816L6.92139 2.00684H6.25488L11.4624 7.36816C11.6675 7.56836 11.9067 7.66846 12.1802 7.66846C12.3608 7.66846 12.5244 7.62451 12.6709 7.53662C12.8223 7.44873 12.9419 7.3291 13.0298 7.17773C13.1177 7.02637 13.1616 6.86035 13.1616 6.67969C13.1616 6.41113 13.0664 6.18408 12.876 5.99854L7.37549 0.351562C7.2583 0.234375 7.13379 0.146484 7.00195 0.0878906C6.875 0.0341797 6.73584 0.00488281 6.58447 0Z" fill="black" fill-opacity="0.5"/>
</svg>
