<svg width="48" height="48" viewBox="0 0 48 48" fill="none" xmlns="http://www.w3.org/2000/svg">
<path d="M23.999 1.5C36.4249 1.5 46.498 11.5732 46.498 23.999C46.498 36.4249 36.4249 46.498 23.999 46.498C11.5732 46.498 1.5 36.4249 1.5 23.999C1.50001 11.5732 11.5732 1.50001 23.999 1.5Z" fill="url(#paint0_linear_1_66367)"/>
<path d="M23.999 1.5C36.4249 1.5 46.498 11.5732 46.498 23.999C46.498 36.4249 36.4249 46.498 23.999 46.498C11.5732 46.498 1.5 36.4249 1.5 23.999C1.50001 11.5732 11.5732 1.50001 23.999 1.5Z" stroke="white" stroke-width="3"/>
<path fill-rule="evenodd" clip-rule="evenodd" d="M17.0691 15.669C18.907 13.8311 21.3998 12.7985 23.9991 12.7985C26.5983 12.7985 29.0911 13.8311 30.9291 15.669C32.767 17.507 33.7996 19.9998 33.7996 22.599C33.7996 25.1983 32.767 27.6911 30.9291 29.529L23.9991 36.459L17.0691 29.529C16.159 28.619 15.437 27.5386 14.9444 26.3496C14.4519 25.1605 14.1984 23.8861 14.1984 22.599C14.1984 21.312 14.4519 20.0376 14.9444 18.8485C15.437 17.6595 16.159 16.5791 17.0691 15.669ZM23.9991 25.399C24.7417 25.399 25.4539 25.104 25.979 24.5789C26.5041 24.0538 26.7991 23.3416 26.7991 22.599C26.7991 21.8564 26.5041 21.1442 25.979 20.6191C25.4539 20.094 24.7417 19.799 23.9991 19.799C23.2565 19.799 22.5443 20.094 22.0192 20.6191C21.4941 21.1442 21.1991 21.8564 21.1991 22.599C21.1991 23.3416 21.4941 24.0538 22.0192 24.5789C22.5443 25.104 23.2565 25.399 23.9991 25.399Z" fill="white"/>
<defs>
<linearGradient id="paint0_linear_1_66367" x1="23.999" y1="0" x2="23.999" y2="47.9981" gradientUnits="userSpaceOnUse">
<stop stop-color="#8B5CF6"/>
<stop offset="1" stop-color="#6D3ED6"/>
</linearGradient>
</defs>
</svg>
