<svg width="80" height="80" viewBox="0 0 80 80" fill="none" xmlns="http://www.w3.org/2000/svg">
<rect width="80" height="80" rx="22" fill="#8B5CF6"/>
<path fill-rule="evenodd" clip-rule="evenodd" d="M26.8749 37.2148C26.8749 29.8663 32.7324 23.8749 39.9999 23.8749C47.2674 23.8749 53.1249 29.8663 53.1249 37.2148C53.1249 40.7625 52.1138 44.5717 50.3265 47.8627C48.5415 51.1496 45.9333 54.0057 42.6706 55.5307C40.9757 56.3229 39.024 56.3229 37.3291 55.5307C34.0664 54.0057 31.4583 51.1496 29.6732 47.8627C27.8859 44.5717 26.8749 40.7625 26.8749 37.2148ZM39.9999 26.1249C34.0125 26.1249 29.1249 31.0711 29.1249 37.2148C29.1249 40.3604 30.0288 43.803 31.6504 46.7888C33.2742 49.7787 35.5689 52.2243 38.2818 53.4924C39.373 54.0024 40.6268 54.0024 41.7179 53.4924C44.4308 52.2243 46.7255 49.7787 48.3493 46.7888C49.9709 43.803 50.8749 40.3604 50.8749 37.2148C50.8749 31.0711 45.9872 26.1249 39.9999 26.1249ZM39.9999 33.6249C38.1359 33.6249 36.6249 35.1359 36.6249 36.9999C36.6249 38.8638 38.1359 40.3749 39.9999 40.3749C41.8638 40.3749 43.3749 38.8638 43.3749 36.9999C43.3749 35.1359 41.8638 33.6249 39.9999 33.6249ZM34.3749 36.9999C34.3749 33.8933 36.8933 31.3749 39.9999 31.3749C43.1065 31.3749 45.6249 33.8933 45.6249 36.9999C45.6249 40.1065 43.1065 42.6249 39.9999 42.6249C36.8933 42.6249 34.3749 40.1065 34.3749 36.9999Z" fill="white"/>
</svg>
