<svg width="8" height="13" viewBox="0 0 8 13" fill="none" xmlns="http://www.w3.org/2000/svg">
<path d="M7.45605 6.48145C7.45605 6.6084 7.43164 6.72559 7.38281 6.83301C7.33398 6.94043 7.26074 7.04297 7.16309 7.14062L1.45752 12.7217C1.29639 12.8877 1.09619 12.9707 0.856934 12.9707C0.700684 12.9707 0.556641 12.9316 0.424805 12.8535C0.292969 12.7803 0.187988 12.6777 0.109863 12.5459C0.0366211 12.4189 0 12.2773 0 12.1211C0 11.8867 0.0878906 11.6792 0.263672 11.4985L5.40527 6.48145L0.263672 1.46436C0.0878906 1.28369 0 1.07861 0 0.849121C0 0.687988 0.0366211 0.543945 0.109863 0.416992C0.187988 0.290039 0.292969 0.189941 0.424805 0.116699C0.556641 0.0385742 0.700684 -0.000488281 0.856934 -0.000488281C1.09619 -0.000488281 1.29639 0.0800781 1.45752 0.241211L7.16309 5.82227C7.26074 5.91992 7.33398 6.02246 7.38281 6.12988C7.43164 6.2373 7.45605 6.35449 7.45605 6.48145Z" fill="black" fill-opacity="0.5"/>
</svg>
