<svg width="40" height="40" viewBox="0 0 40 40" fill="none" xmlns="http://www.w3.org/2000/svg">
<rect width="40" height="40" rx="20" fill="white" fill-opacity="0.2"/>
<path d="M26.4167 19.9998C26.4167 20.5061 26.0063 20.9165 25.5 20.9165C24.9938 20.9165 24.5834 20.5061 24.5834 19.9998C24.5834 19.4936 24.9938 19.0832 25.5 19.0832C26.0063 19.0832 26.4167 19.4936 26.4167 19.9998Z" fill="white"/>
<path fill-rule="evenodd" clip-rule="evenodd" d="M18.115 11.979H20.9684C22.653 11.979 23.9874 11.979 25.0316 12.1194C26.1064 12.2639 26.9762 12.5683 27.6622 13.2543C28.5096 14.1017 28.7796 15.2365 28.8777 16.7091C29.4068 16.9419 29.8064 17.4344 29.8504 18.0581C29.8543 18.1133 29.8542 18.1728 29.8542 18.2279C29.8542 18.233 29.8542 18.2379 29.8542 18.2429V21.7568C29.8542 21.7617 29.8542 21.7667 29.8542 21.7717C29.8542 21.8269 29.8543 21.8864 29.8504 21.9415C29.8064 22.5653 29.4068 23.0578 28.8777 23.2906C28.7796 24.7632 28.5096 25.898 27.6622 26.7454C26.9762 27.4314 26.1064 27.7358 25.0316 27.8803C23.9874 28.0207 22.653 28.0207 20.9684 28.0207H18.115C16.4304 28.0207 15.0961 28.0207 14.0518 27.8803C12.9771 27.7358 12.1072 27.4314 11.4212 26.7454C10.7352 26.0594 10.4307 25.1895 10.2862 24.1148C10.1458 23.0705 10.1459 21.7362 10.1459 20.0516V19.9481C10.1459 18.2635 10.1458 16.9292 10.2862 15.8849C10.4307 14.8102 10.7352 13.9403 11.4212 13.2543C12.1072 12.5683 12.977 12.2639 14.0518 12.1194C15.096 11.979 16.4304 11.979 18.115 11.979ZM27.4873 23.4373H25.7116C23.7451 23.4373 22.0625 21.9454 22.0625 19.9998C22.0625 18.0543 23.7451 16.5623 25.7116 16.5623H27.4873C27.383 15.3327 27.1469 14.6836 26.69 14.2266C26.302 13.8386 25.7707 13.6061 24.8484 13.4821C23.9064 13.3555 22.6646 13.354 20.9167 13.354H18.1667C16.4188 13.354 15.177 13.3555 14.235 13.4821C13.3127 13.6061 12.7814 13.8386 12.3935 14.2266C12.0055 14.6145 11.773 15.1459 11.649 16.0681C11.5223 17.0101 11.5209 18.2519 11.5209 19.9998C11.5209 21.7478 11.5223 22.9895 11.649 23.9316C11.773 24.8538 12.0055 25.3852 12.3935 25.7731C12.7814 26.161 13.3127 26.3936 14.235 26.5176C15.177 26.6442 16.4188 26.6457 18.1667 26.6457H20.9167C22.6646 26.6457 23.9064 26.6442 24.8484 26.5176C25.7707 26.3936 26.302 26.161 26.69 25.7731C27.147 25.3161 27.383 24.667 27.4873 23.4373ZM13.8125 16.3332C13.8125 15.9535 14.1203 15.6457 14.5 15.6457H18.1667C18.5464 15.6457 18.8542 15.9535 18.8542 16.3332C18.8542 16.7129 18.5464 17.0207 18.1667 17.0207H14.5C14.1203 17.0207 13.8125 16.7129 13.8125 16.3332ZM28.1799 17.9375C28.1613 17.9373 28.1369 17.9373 28.0973 17.9373H25.7116C24.4068 17.9373 23.4375 18.9078 23.4375 19.9998C23.4375 21.0918 24.4068 22.0623 25.7116 22.0623H28.0973C28.1369 22.0623 28.1613 22.0623 28.1799 22.0621C28.1914 22.062 28.1974 22.0618 28.2003 22.0617L28.2023 22.0616C28.3913 22.0501 28.4726 21.9226 28.4787 21.8459C28.4787 21.8459 28.4789 21.8401 28.479 21.8319C28.4792 21.8156 28.4792 21.7939 28.4792 21.7568V18.2429C28.4792 18.2058 28.4792 18.1841 28.479 18.1678C28.4789 18.1595 28.4787 18.1538 28.4787 18.1538C28.4725 18.0771 28.3913 17.9495 28.2023 17.938C28.2023 17.938 28.1978 17.9377 28.1799 17.9375Z" fill="white"/>
</svg>
