<svg width="48" height="48" viewBox="0 0 48 48" fill="none" xmlns="http://www.w3.org/2000/svg">
<rect width="47.9981" height="47.9981" rx="23.999" fill="#8B5CF6" fill-opacity="0.1"/>
<path fill-rule="evenodd" clip-rule="evenodd" d="M23.9416 13.249C21.6333 13.249 19.8242 13.249 18.4127 13.4388C16.968 13.633 15.828 14.0384 14.9332 14.9332C14.0384 15.828 13.633 16.968 13.4388 18.4127C13.249 19.8242 13.249 21.6332 13.249 23.9416V24.0564C13.249 26.3648 13.249 28.1738 13.4388 29.5853C13.633 31.0301 14.0384 32.1701 14.9332 33.0649C15.828 33.9597 16.968 34.365 18.4127 34.5593C19.8242 34.749 21.6333 34.749 23.9417 34.749H24.0564C26.3648 34.749 28.1738 34.749 29.5853 34.5593C31.0301 34.365 32.1701 33.9597 33.0649 33.0649C33.9597 32.1701 34.365 31.0301 34.5593 29.5853C34.749 28.1738 34.749 26.3648 34.749 24.0564V23.9417C34.749 21.6333 34.749 19.8242 34.5593 18.4127C34.365 16.968 33.9597 15.828 33.0649 14.9332C32.1701 14.0384 31.0301 13.633 29.5853 13.4388C28.1738 13.249 26.3648 13.249 24.0564 13.249H23.9416ZM23.249 14.7493C21.2553 14.7514 19.7717 14.7696 18.6126 14.9254C17.3342 15.0973 16.5635 15.4242 15.9938 15.9938C15.4242 16.5635 15.0973 17.3342 14.9254 18.6126C14.7696 19.7717 14.7514 21.2553 14.7493 23.249H18.9128C18.5618 22.8106 18.2996 22.2935 18.1566 21.7215C17.6183 19.5685 19.5685 17.6183 21.7215 18.1566C22.2935 18.2996 22.8106 18.5618 23.249 18.9128V14.7493ZM14.7493 24.749C14.7514 26.7427 14.7696 28.2264 14.9254 29.3854C15.0973 30.6639 15.4242 31.4346 15.9938 32.0042C16.5635 32.5739 17.3342 32.9008 18.6126 33.0727C19.7717 33.2285 21.2553 33.2466 23.249 33.2487V26.1227C22.4694 27.6799 20.8591 28.749 18.999 28.749C18.5848 28.749 18.249 28.4132 18.249 27.999C18.249 27.5848 18.5848 27.249 18.999 27.249C20.5358 27.249 21.8235 26.1824 22.1621 24.749H22.0341L22.0249 24.749H14.7493ZM24.749 33.2487C26.7427 33.2466 28.2264 33.2285 29.3854 33.0727C30.6639 32.9008 31.4346 32.5739 32.0042 32.0042C32.5739 31.4346 32.9008 30.6639 33.0727 29.3854C33.2285 28.2264 33.2466 26.7427 33.2487 24.749H25.9732L25.9639 24.749H25.836C26.1746 26.1824 27.4622 27.249 28.999 27.249C29.4132 27.249 29.749 27.5848 29.749 27.999C29.749 28.4132 29.4132 28.749 28.999 28.749C27.139 28.749 25.5287 27.6799 24.749 26.1227V33.2487ZM33.2487 23.249H29.0853C29.4362 22.8106 29.6985 22.2935 29.8415 21.7215C30.3797 19.5685 28.4295 17.6183 26.2765 18.1566C25.7045 18.2996 25.1874 18.5618 24.749 18.9128V14.7493C26.7427 14.7514 28.2264 14.7696 29.3854 14.9254C30.6639 15.0973 31.4346 15.4242 32.0042 15.9938C32.5739 16.5635 32.9008 17.3342 33.0727 18.6126C33.2285 19.7717 33.2466 21.2553 33.2487 23.249ZM24.749 23.249L24.749 22.0281C24.7517 20.8849 25.5307 19.8892 26.6403 19.6118C27.6948 19.3482 28.6499 20.3033 28.3863 21.3577C28.109 22.4669 27.1139 23.2457 25.9712 23.249H24.749ZM23.249 22.0265C23.2456 20.884 22.4668 19.8891 21.3577 19.6118C20.3033 19.3482 19.3482 20.3033 19.6118 21.3577C19.8891 22.4669 20.8842 23.2457 22.0268 23.249H23.249V22.0265Z" fill="#8B5CF6"/>
</svg>
