<svg width="44" height="44" viewBox="0 0 44 44" fill="none" xmlns="http://www.w3.org/2000/svg">
<rect width="44" height="44" rx="22" fill="#8B5CF6"/>
<rect x="0.5" y="0.5" width="43" height="43" rx="21.5" stroke="black" stroke-opacity="0.1"/>
<path fill-rule="evenodd" clip-rule="evenodd" d="M27.1197 15.0258C26.1448 15.1992 24.8303 15.6356 22.9856 16.2505L18.8095 17.6425C17.3261 18.137 16.2517 18.4957 15.4929 18.8184C14.6995 19.1559 14.4172 19.3911 14.3256 19.5487C14.0432 20.0344 14.0432 20.6342 14.3256 21.1199C14.4172 21.2775 14.6995 21.5128 15.4929 21.8502C16.2517 22.173 17.3261 22.5316 18.8095 23.0261C18.8329 23.0339 18.856 23.0416 18.8789 23.0492C19.1952 23.1544 19.4566 23.2414 19.685 23.3608L24.1211 18.9735C24.3725 18.7249 24.7779 18.7271 25.0266 18.9785C25.2752 19.2299 25.273 19.6353 25.0215 19.884L20.6049 24.2519C20.7426 24.4951 20.8358 24.7753 20.9509 25.1212C20.9585 25.144 20.9662 25.1671 20.974 25.1906C21.4684 26.6739 21.8271 27.7483 22.1499 28.5072C22.4873 29.3006 22.7225 29.5828 22.8802 29.6745C23.3658 29.9568 23.9657 29.9568 24.4513 29.6745C24.609 29.5828 24.8442 29.3006 25.1816 28.5072C25.5044 27.7483 25.8631 26.6739 26.3575 25.1906L27.7496 21.0145C28.3645 19.1698 28.8008 17.8553 28.9743 16.8803C29.1486 15.9007 29.0154 15.4846 28.7654 15.2346C28.5155 14.9847 28.0994 14.8515 27.1197 15.0258ZM26.8955 13.7651C27.9806 13.572 28.958 13.6163 29.6709 14.3292C30.3838 15.0421 30.428 16.0194 30.235 17.1046C30.0431 18.1832 29.5752 19.5869 28.9828 21.364L27.5621 25.6263C27.08 27.0725 26.7054 28.1962 26.36 29.0084C26.0268 29.7918 25.6568 30.4548 25.0949 30.7815C24.2114 31.2952 23.1201 31.2952 22.2366 30.7815C21.6747 30.4548 21.3047 29.7918 20.9715 29.0084C20.6261 28.1962 20.2515 27.0725 19.7695 25.6263L19.7592 25.5955C19.5903 25.0889 19.5388 24.9514 19.4659 24.8425C19.3843 24.7205 19.2795 24.6158 19.1576 24.5342C19.0486 24.4612 18.9112 24.4098 18.4046 24.2409L18.3737 24.2306C16.9275 23.7485 15.8038 23.374 14.9917 23.0286C14.2083 22.6954 13.5452 22.3254 13.2185 21.7634C12.7049 20.8799 12.7049 19.7887 13.2185 18.9052C13.5452 18.3432 14.2083 17.9733 14.9917 17.6401C15.8038 17.2946 16.9276 16.9201 18.3737 16.438L22.6361 15.0172C24.4132 14.4248 25.8169 13.9569 26.8955 13.7651Z" fill="white"/>
</svg>
