<svg width="42" height="42" viewBox="0 0 42 42" fill="none" xmlns="http://www.w3.org/2000/svg">
<rect width="42" height="42" rx="21" fill="#8B5CF6" fill-opacity="0.1"/>
<path fill-rule="evenodd" clip-rule="evenodd" d="M20.292 12.3081C19.8982 12.8222 19.4538 13.6155 18.8083 14.7736L18.4806 15.3614C18.4608 15.3968 18.4413 15.4319 18.422 15.4667C18.1213 16.0079 17.8674 16.4647 17.4584 16.7752C17.045 17.089 16.5411 17.2023 15.9553 17.3339C15.9177 17.3424 15.8797 17.3509 15.8414 17.3596L15.2051 17.5035C13.9497 17.7876 13.0958 17.983 12.5108 18.2135C11.94 18.4385 11.8195 18.6228 11.7736 18.7704C11.7251 18.9263 11.7237 19.1647 12.0649 19.7068C12.4113 20.257 12.9956 20.9432 13.8501 21.9425L14.2839 22.4498C14.3091 22.4793 14.3341 22.5084 14.3589 22.5373C14.7619 23.0074 15.0979 23.3993 15.252 23.895C15.4053 24.3877 15.3545 24.9054 15.2929 25.5331C15.2891 25.5716 15.2853 25.6105 15.2815 25.6499L15.2159 26.3267C15.0868 27.6589 14.9998 28.5762 15.0292 29.2369C15.0586 29.8964 15.1979 30.0788 15.3086 30.1628C15.4072 30.2376 15.5892 30.3204 16.1825 30.1504C16.7853 29.9777 17.5866 29.6111 18.762 29.0699L19.3578 28.7956C19.3945 28.7787 19.4309 28.7619 19.4669 28.7452C20.0117 28.4934 20.4843 28.2748 21 28.2748C21.5157 28.2748 21.9883 28.4934 22.5331 28.7452C22.5692 28.7619 22.6055 28.7787 22.6422 28.7956L23.238 29.0699C24.4134 29.6111 25.2147 29.9777 25.8176 30.1504C26.4108 30.3204 26.5929 30.2376 26.6914 30.1628C26.8021 30.0788 26.9414 29.8964 26.9708 29.2369C27.0002 28.5762 26.9132 27.6589 26.7841 26.3267L26.7185 25.6499C26.7147 25.6105 26.7109 25.5716 26.7071 25.5331C26.6455 24.9054 26.5948 24.3877 26.748 23.895C26.9021 23.3993 27.2382 23.0074 27.6412 22.5372C27.6659 22.5084 27.6909 22.4793 27.7161 22.4498L28.1499 21.9425C29.0044 20.9432 29.5887 20.257 29.9351 19.7068C30.2763 19.1647 30.2749 18.9263 30.2264 18.7704C30.1805 18.6228 30.06 18.4385 29.4892 18.2135C28.9043 17.983 28.0503 17.7876 26.795 17.5035L26.1586 17.3596C26.1203 17.3509 26.0823 17.3424 26.0447 17.3339C25.459 17.2023 24.955 17.089 24.5416 16.7752C24.1326 16.4647 23.8788 16.0079 23.578 15.4667C23.5587 15.4319 23.5392 15.3968 23.5195 15.3614L23.1918 14.7735C22.5462 13.6155 22.1018 12.8222 21.7081 12.3081C21.3147 11.7944 21.1138 11.75 21 11.75C20.8863 11.75 20.6853 11.7944 20.292 12.3081ZM19.1011 11.3961C19.5777 10.7736 20.1669 10.25 21 10.25C21.8331 10.25 22.4223 10.7736 22.899 11.3961C23.3674 12.0077 23.864 12.8988 24.471 13.9878L24.8296 14.6311C25.2222 15.3352 25.3226 15.4848 25.4486 15.5804C25.5698 15.6725 25.7262 15.7238 26.4896 15.8965L27.1897 16.0549C28.3653 16.3209 29.3338 16.54 30.0392 16.818C30.7714 17.1065 31.4121 17.5318 31.6588 18.325C31.9029 19.1101 31.6285 19.8323 31.2045 20.5059C30.7925 21.1604 30.1344 21.9298 29.3306 22.8698L28.8561 23.4247C28.3391 24.0292 28.2311 24.1772 28.1803 24.3404C28.1286 24.5069 28.1334 24.6992 28.2115 25.5052L28.2831 26.2433C28.4048 27.4994 28.5041 28.5236 28.4693 29.3037C28.434 30.0977 28.2536 30.8601 27.5983 31.3576C26.9308 31.8643 26.1542 31.8072 25.4044 31.5924C24.6774 31.3841 23.771 30.9667 22.6705 30.46L22.0149 30.1581C21.2975 29.8278 21.1439 29.7748 21 29.7748C20.8561 29.7748 20.7025 29.8278 19.9852 30.1581L19.3295 30.46C18.229 30.9667 17.3226 31.3841 16.5956 31.5924C15.8459 31.8072 15.0692 31.8643 14.4017 31.3576C13.7464 30.8601 13.5661 30.0977 13.5307 29.3037C13.496 28.5236 13.5952 27.4993 13.717 26.2433L13.7885 25.5052C13.8666 24.6992 13.8715 24.5069 13.8197 24.3404C13.7689 24.1772 13.6609 24.0292 13.1439 23.4247L12.6694 22.8698C11.8656 21.9299 11.2075 21.1604 10.7955 20.5059C10.3715 19.8323 10.0971 19.1101 10.3413 18.325C10.5879 17.5318 11.2287 17.1065 11.9609 16.818C12.6662 16.54 13.6347 16.3209 14.8104 16.0549L14.874 16.0405L15.5104 15.8965C16.2738 15.7238 16.4302 15.6725 16.5515 15.5804C16.6774 15.4848 16.7779 15.3352 17.1704 14.6311L17.529 13.9878C18.136 12.8988 18.6327 12.0077 19.1011 11.3961Z" fill="#8B5CF6"/>
</svg>
