<svg width="20" height="20" viewBox="0 0 20 20" fill="none" xmlns="http://www.w3.org/2000/svg">
<path d="M9.99996 14.7917C10.3451 14.7917 10.625 14.5118 10.625 14.1667V9.16667C10.625 8.82149 10.3451 8.54167 9.99996 8.54167C9.65478 8.54167 9.37496 8.82149 9.37496 9.16667V14.1667C9.37496 14.5118 9.65478 14.7917 9.99996 14.7917Z" fill="#2B7FFF"/>
<path d="M9.99996 5.83334C10.4602 5.83334 10.8333 6.20643 10.8333 6.66667C10.8333 7.12691 10.4602 7.5 9.99996 7.5C9.53972 7.5 9.16662 7.12691 9.16662 6.66667C9.16662 6.20643 9.53972 5.83334 9.99996 5.83334Z" fill="#2B7FFF"/>
<path fill-rule="evenodd" clip-rule="evenodd" d="M1.04163 10C1.04163 5.05245 5.05241 1.04167 9.99996 1.04167C14.9475 1.04167 18.9583 5.05245 18.9583 10C18.9583 14.9476 14.9475 18.9583 9.99996 18.9583C5.05241 18.9583 1.04163 14.9476 1.04163 10ZM9.99996 2.29167C5.74276 2.29167 2.29163 5.74281 2.29163 10C2.29163 14.2572 5.74276 17.7083 9.99996 17.7083C14.2572 17.7083 17.7083 14.2572 17.7083 10C17.7083 5.74281 14.2572 2.29167 9.99996 2.29167Z" fill="#2B7FFF"/>
</svg>
