<svg width="42" height="42" viewBox="0 0 42 42" fill="none" xmlns="http://www.w3.org/2000/svg">
<rect width="42" height="42" rx="21" fill="#8B5CF6" fill-opacity="0.1"/>
<path fill-rule="evenodd" clip-rule="evenodd" d="M20.9436 10.25H21.0564C22.8942 10.25 24.3498 10.25 25.489 10.4031C26.6614 10.5608 27.6104 10.8929 28.3588 11.6412C29.1071 12.3896 29.4392 13.3386 29.5969 14.511C29.75 15.6502 29.75 17.1058 29.75 18.9436V23.0564C29.75 24.8942 29.75 26.3498 29.5969 27.489C29.4392 28.6614 29.1071 29.6104 28.3588 30.3588C27.6104 31.1071 26.6614 31.4392 25.489 31.5969C24.3498 31.75 22.8942 31.75 21.0564 31.75H20.9436C19.1058 31.75 17.6502 31.75 16.511 31.5969C15.3386 31.4392 14.3896 31.1071 13.6412 30.3588C12.8929 29.6104 12.5608 28.6614 12.4031 27.489C12.25 26.3498 12.25 24.8942 12.25 23.0564V18.9436C12.25 17.1058 12.25 15.6502 12.4031 14.511C12.5608 13.3386 12.8929 12.3896 13.6412 11.6412C14.3896 10.8929 15.3386 10.5608 16.511 10.4031C17.6502 10.25 19.1058 10.25 20.9436 10.25ZM16.7108 11.8898C15.7048 12.025 15.1251 12.2787 14.7019 12.7019C14.2787 13.1251 14.025 13.7048 13.8898 14.7108C13.7516 15.7385 13.75 17.0932 13.75 19V23C13.75 24.9068 13.7516 26.2615 13.8898 27.2892C14.025 28.2952 14.2787 28.8749 14.7019 29.2981C15.1251 29.7213 15.7048 29.975 16.7108 30.1102C17.7385 30.2484 19.0932 30.25 21 30.25C22.9068 30.25 24.2615 30.2484 25.2892 30.1102C26.2952 29.975 26.8749 29.7213 27.2981 29.2981C27.7213 28.8749 27.975 28.2952 28.1102 27.2892C28.2484 26.2615 28.25 24.9068 28.25 23V19C28.25 17.0932 28.2484 15.7385 28.1102 14.7108C27.975 13.7048 27.7213 13.1251 27.2981 12.7019C26.8749 12.2787 26.2952 12.025 25.2892 11.8898C24.2615 11.7516 22.9068 11.75 21 11.75C19.0932 11.75 17.7385 11.7516 16.7108 11.8898ZM17.25 28C17.25 27.5858 17.5858 27.25 18 27.25H24C24.4142 27.25 24.75 27.5858 24.75 28C24.75 28.4142 24.4142 28.75 24 28.75H18C17.5858 28.75 17.25 28.4142 17.25 28Z" fill="#8B5CF6"/>
</svg>
